<svg width="32" height="32" viewBox="0 0 32 32" fill="none" xmlns="http://www.w3.org/2000/svg">
    <g clip-path="url(#clip0_3842_8305)">
        <path d="M29.4745 31.9995H26.9482C25.4324 31.9995 24.4219 30.989 24.4219 29.4732V26.1048C24.4219 25.5995 24.7587 25.2627 25.264 25.2627C25.7692 25.2627 26.1061 25.5995 26.1061 26.1048V29.4732C26.1061 29.9785 26.4429 30.3153 26.9482 30.3153H29.4745C29.9798 30.3153 30.3166 29.9785 30.3166 29.4732V26.1048C30.3166 25.5995 30.6535 25.2627 31.1587 25.2627C31.664 25.2627 32.0008 25.5995 32.0008 26.1048V29.4732C32.0008 30.989 30.9903 31.9995 29.4745 31.9995Z" fill="#D8D8D8"/>
        <path d="M29.4745 28.6311H26.9482C25.4324 28.6311 24.4219 27.6206 24.4219 26.1048V15.9995C24.4219 15.4943 24.7587 15.1574 25.264 15.1574C25.7692 15.1574 26.1061 15.4943 26.1061 15.9995V26.1048C26.1061 26.6101 26.4429 26.9469 26.9482 26.9469H29.4745C29.9798 26.9469 30.3166 26.6101 30.3166 26.1048V10.1048C30.3166 9.59954 30.6535 9.2627 31.1587 9.2627C31.664 9.2627 32.0008 9.59954 32.0008 10.1048V26.1048C32.0008 27.6206 30.9903 28.6311 29.4745 28.6311Z" fill="#D8D8D8"/>
        <path d="M25.2632 16.8418C21.5579 16.8418 18.5264 13.8103 18.5264 10.105C18.5264 6.39974 21.5579 3.36816 25.2632 3.36816C28.9685 3.36816 32.0001 6.39974 32.0001 10.105C32.0001 10.6103 31.6632 10.9471 31.1579 10.9471C30.6527 10.9471 30.3158 10.6103 30.3158 10.105C30.3158 7.41027 27.9579 5.05237 25.2632 5.05237C22.5685 5.05237 20.2106 7.41027 20.2106 10.105C20.2106 12.7997 22.5685 15.1576 25.2632 15.1576C25.7685 15.1576 26.1053 15.4945 26.1053 15.9997C26.1053 16.505 25.7685 16.8418 25.2632 16.8418Z" fill="#D8D8D8"/>
        <path d="M5.05263 28.6314H2.52632C1.01053 28.6314 0 27.6208 0 26.1051V22.7366C0 22.2314 0.336842 21.8945 0.842105 21.8945C1.34737 21.8945 1.68421 22.2314 1.68421 22.7366V26.1051C1.68421 26.6103 2.02105 26.9472 2.52632 26.9472H5.05263C5.55789 26.9472 5.89474 26.6103 5.89474 26.1051V22.7366C5.89474 22.2314 6.23158 21.8945 6.73684 21.8945C7.24211 21.8945 7.57895 22.2314 7.57895 22.7366V26.1051C7.57895 27.6208 6.56842 28.6314 5.05263 28.6314Z" fill="#D8D8D8"/>
        <path d="M5.05263 25.263H2.52632C1.01053 25.263 0 24.2524 0 22.7366V6.73664C0 6.23137 0.336842 5.89453 0.842105 5.89453C1.34737 5.89453 1.68421 6.23137 1.68421 6.73664V22.7366C1.68421 23.2419 2.02105 23.5787 2.52632 23.5787H5.05263C5.55789 23.5787 5.89474 23.2419 5.89474 22.7366V12.6314C5.89474 12.1261 6.23158 11.7893 6.73684 11.7893C7.24211 11.7893 7.57895 12.1261 7.57895 12.6314V22.7366C7.57895 24.2524 6.56842 25.263 5.05263 25.263Z" fill="#D8D8D8"/>
        <path d="M6.73684 13.4737C6.23158 13.4737 5.89474 13.1368 5.89474 12.6316C5.89474 12.1263 6.23158 11.7895 6.73684 11.7895C9.43158 11.7895 11.7895 9.43158 11.7895 6.73684C11.7895 4.04211 9.43158 1.68421 6.73684 1.68421C4.04211 1.68421 1.68421 4.04211 1.68421 6.73684C1.68421 7.24211 1.34737 7.57895 0.842105 7.57895C0.336842 7.57895 0 7.24211 0 6.73684C0 3.03158 3.03158 0 6.73684 0C10.4421 0 13.4737 3.03158 13.4737 6.73684C13.4737 10.4421 10.4421 13.4737 6.73684 13.4737Z" fill="#D8D8D8"/>
    </g>
    <defs>
        <clipPath id="clip0_3842_8305">
            <rect width="32" height="32" fill="white"/>
        </clipPath>
    </defs>
</svg>