<svg width="25" height="44" viewBox="0 0 25 44" fill="none" xmlns="http://www.w3.org/2000/svg">
    <path d="M20.1872 7.5625H5.06283C2.40908 7.5625 0.25 9.72369 0.25 12.3804V31.6197C0.25 34.2764 2.40908 36.4376 5.06283 36.4376H20.1872C22.8409 36.4376 25 34.2764 25 31.6197V12.3804C25 9.72369 22.8409 7.5625 20.1872 7.5625ZM23.625 31.6197C23.625 33.5184 22.0828 35.0625 20.1872 35.0625H5.06283C3.16721 35.0625 1.62497 33.5183 1.62497 31.6197V12.3804C1.62497 10.4816 3.16721 8.93757 5.06283 8.93757H20.1872C22.0828 8.93757 23.625 10.4817 23.625 12.3804V31.6197Z" fill="#D8D8D8"/>
    <path d="M21.5514 8.12713L20.5452 2.59152C20.2806 1.138 18.9177 0 17.4416 0H7.80853C6.33286 0 4.96947 1.138 4.70502 2.59152L3.69864 8.12713C3.66198 8.32784 3.71687 8.53379 3.84729 8.69039C3.9777 8.84699 4.17106 8.93753 4.375 8.93753H20.875C21.0788 8.93753 21.2722 8.84679 21.4028 8.69039C21.5334 8.53389 21.5881 8.32784 21.5514 8.12713ZM5.19879 7.56246L6.05762 2.83724C6.20204 2.04437 7.00357 1.37497 7.80833 1.37497H17.4414C18.2462 1.37497 19.0478 2.04508 19.1922 2.83724L20.0512 7.56246H5.19879Z" fill="#D8D8D8"/>
    <path d="M21.4028 35.3096C21.2724 35.153 21.0791 35.0625 20.8751 35.0625H4.37512C4.17128 35.0625 3.97792 35.1532 3.84731 35.3096C3.71669 35.466 3.662 35.6721 3.69866 35.8729L4.70504 41.4085C4.9696 42.862 6.33288 44 7.80856 44H17.4417C18.9178 44 20.2807 42.862 20.5452 41.4085L21.5515 35.8729C21.588 35.6722 21.5333 35.4662 21.4028 35.3096ZM19.1925 41.1627C19.0481 41.9551 18.2465 42.625 17.4418 42.625H7.80866C7.0039 42.625 6.20226 41.9556 6.05795 41.1627L5.19891 36.4375H20.0513L19.1925 41.1627Z" fill="#D8D8D8"/>
    <path d="M12.625 18.5625C10.7297 18.5625 9.1875 20.1047 9.1875 22C9.1875 23.8952 10.7297 25.4374 12.625 25.4374C14.5202 25.4374 16.0624 23.8952 16.0624 22C16.0624 20.1047 14.5202 18.5625 12.625 18.5625ZM12.625 24.0625C11.4877 24.0625 10.5625 23.1372 10.5625 22C10.5625 20.8627 11.4877 19.9375 12.625 19.9375C13.7623 19.9375 14.6875 20.8627 14.6875 22C14.6875 23.1372 13.7623 24.0625 12.625 24.0625Z" fill="#D8D8D8"/>
</svg>