<svg xmlns="http://www.w3.org/2000/svg" width="16" height="16" viewBox="0 0 16 16" fill="none">
    <path fill-rule="evenodd" clip-rule="evenodd" d="M7.15462 1.18301C7.37862 0.959008 7.68262 0.833008 7.99995 0.833008C8.31729 0.833008 8.62129 0.959008 8.84529 1.18301L9.80862 2.14634C9.85262 2.19034 9.91529 2.21101 9.97729 2.20101L11.3226 1.98834C11.636 1.93834 11.956 2.01567 12.2126 2.20167C12.4686 2.38834 12.6406 2.66901 12.6906 2.98167L12.9033 4.32701C12.9133 4.38901 12.952 4.44234 13.008 4.47101L14.2213 5.08901C14.504 5.23301 14.718 5.48367 14.816 5.78501C14.914 6.08634 14.888 6.41501 14.744 6.69701L14.126 7.91101C14.0973 7.96701 14.0973 8.03234 14.126 8.08834L14.744 9.30234C14.888 9.58434 14.914 9.91301 14.816 10.2143C14.718 10.5157 14.504 10.7663 14.2213 10.9103L13.008 11.5283C12.952 11.557 12.9133 11.6103 12.9033 11.6723L12.6906 13.0177C12.6406 13.3303 12.4686 13.611 12.2126 13.7977C11.956 13.9837 11.636 14.061 11.3226 14.011L9.97729 13.7983C9.91529 13.7883 9.85262 13.809 9.80862 13.853L8.84529 14.8163C8.62129 15.0403 8.31729 15.1663 7.99995 15.1663C7.68262 15.1663 7.37862 15.0403 7.15462 14.8163L6.19129 13.853C6.14729 13.809 6.08462 13.7883 6.02262 13.7983L4.67729 14.011C4.36395 14.061 4.04395 13.9837 3.78729 13.7977C3.53129 13.611 3.35929 13.3303 3.30929 13.0177L3.09662 11.6723C3.08662 11.6103 3.04795 11.557 2.99195 11.5283L1.77862 10.9103C1.49595 10.7663 1.28195 10.5157 1.18395 10.2143C1.08595 9.91301 1.11195 9.58434 1.25595 9.30234L1.87395 8.08834C1.90262 8.03234 1.90262 7.96701 1.87395 7.91101L1.25595 6.69701C1.11195 6.41501 1.08595 6.08634 1.18395 5.78501C1.28195 5.48367 1.49595 5.23301 1.77862 5.08901L2.99195 4.47101C3.04795 4.44234 3.08662 4.38901 3.09662 4.32701L3.30929 2.98167C3.35929 2.66901 3.53129 2.38834 3.78729 2.20167C4.04395 2.01567 4.36395 1.93834 4.67729 1.98834L6.02262 2.20101C6.08462 2.21101 6.14729 2.19034 6.19129 2.14634L7.15462 1.18301ZM5.31329 8.35301L6.86862 9.90901C7.06395 10.1043 7.38062 10.1043 7.57595 9.90901L10.6866 6.79767C10.882 6.60234 10.882 6.28567 10.6866 6.09034C10.492 5.89567 10.1746 5.89567 9.97995 6.09034L7.22195 8.84834L6.01995 7.64634C5.82529 7.45101 5.50795 7.45101 5.31329 7.64634C5.11795 7.84101 5.11795 8.15834 5.31329 8.35301Z" fill="#101010"/>
</svg>