<svg width="48" height="48" viewBox="0 0 48 48" fill="none" xmlns="http://www.w3.org/2000/svg">
<circle cx="24" cy="23.9999" r="24" fill="#0091FF"/>
<path fill-rule="evenodd" clip-rule="evenodd" d="M30.579 21.2738C30.6409 21.1749 30.6661 21.0574 30.6505 20.9417C30.6348 20.8261 30.5792 20.7195 30.4932 20.6406C30.4073 20.5616 30.2964 20.5152 30.1799 20.5094C30.0633 20.5036 29.9484 20.5388 29.855 20.6088C28.691 21.4818 27.3395 22.4954 26.5855 23.0607C26.4156 23.1882 26.2096 23.2582 25.9972 23.2606C25.7849 23.2631 25.5773 23.1979 25.4045 23.0745C24.765 22.6178 23.7545 21.8962 23.11 21.4356C22.7133 21.1522 22.238 20.9999 21.7505 20.9999C21.521 20.9999 21.2948 21.0583 21.0941 21.1696C20.8933 21.2808 20.7242 21.4412 20.6025 21.6358L17.421 26.7258C17.3591 26.8248 17.3339 26.9423 17.3495 27.0579C17.3652 27.1736 17.4208 27.2801 17.5068 27.3591C17.5927 27.438 17.7036 27.4844 17.8201 27.4902C17.9367 27.496 18.0516 27.4608 18.145 27.3908C19.309 26.5178 20.6605 25.5043 21.4145 24.9389C21.5844 24.8115 21.7904 24.7415 22.0028 24.739C22.2151 24.7365 22.4227 24.8017 22.5955 24.9252C23.235 25.3818 24.2455 26.1035 24.89 26.564C25.2866 26.8475 25.762 26.9999 26.2495 26.9999C26.479 26.9999 26.7052 26.9415 26.9059 26.8303C27.1067 26.7191 27.2758 26.5586 27.3975 26.364L30.579 21.2738ZM17 31.5973C15.7621 30.64 14.7585 29.4133 14.0654 28.0103C13.3724 26.6072 13.008 25.0648 13 23.4999C13 17.7049 17.929 12.9999 24 12.9999C30.071 12.9999 35 17.7049 35 23.4999C35 29.2949 30.071 33.9999 24 33.9999C23.0169 34.0008 22.0377 33.8755 21.0865 33.627L18.4165 34.8506C18.2642 34.9204 18.0967 34.9508 17.9296 34.939C17.7624 34.9272 17.6009 34.8736 17.4599 34.7831C17.3189 34.6926 17.2029 34.5681 17.1225 34.4211C17.0421 34.274 17 34.1091 17 33.9416V31.5973Z" fill="white"/>
</svg>
