<svg width="48" height="48" viewBox="0 0 48 48" fill="none" xmlns="http://www.w3.org/2000/svg">
<g clip-path="url(#clip0_2374_2957)">
<g clip-path="url(#clip1_2374_2957)">
<path d="M43.1948 25.854C43.1732 25.4439 43.0221 25.0986 42.7847 24.7965C41.533 24.3649 40.2598 25.185 39.3102 27.2351C38.7059 28.5732 38.6196 30.1054 38.6628 31.2492C39.116 30.8392 39.6123 30.4723 40.0655 30.1054C41.1014 29.3069 42.0941 28.5732 42.7631 27.4509C42.979 27.0625 43.2595 26.4798 43.1948 25.854Z" fill="white"/>
<path d="M35.3611 41.6944C33.7425 39.9247 32.6203 37.7019 32.1887 35.328C31.865 33.5368 32.1456 30.127 32.7067 27.7099C32.5124 27.8394 32.2966 27.9905 32.0808 28.0984C31.7139 28.3142 31.3255 28.4653 30.9586 28.5947C30.786 28.6379 30.6133 28.5516 30.5486 28.3789C30.527 28.3358 30.527 28.3142 30.527 28.271C30.527 28.1416 30.6133 28.0121 30.7644 27.9689C31.0881 27.861 31.4334 27.7099 31.7787 27.5373C32.1887 27.2999 32.5988 27.0193 32.9441 26.7172L32.9656 26.6956C32.9872 26.6741 33.0304 26.6525 33.052 26.6093C33.1383 26.5446 33.203 26.4582 33.2893 26.3935C33.3109 26.3719 33.3541 26.3288 33.3757 26.3072C33.4404 26.2424 33.5052 26.1561 33.5699 26.0914C33.9799 25.6382 34.3468 25.1418 34.6274 24.6239C34.9511 24.0196 35.1453 23.4153 35.21 22.8111C35.21 22.7895 35.21 22.7679 35.21 22.7463C35.2532 22.2284 35.2964 21.7968 35.6201 21.7104C35.7064 21.6889 35.9006 21.6457 36.0949 21.8831C36.1596 21.9478 36.2028 22.0342 36.2243 22.0989C36.2675 21.8615 36.3107 21.5162 36.2891 21.3867C36.2459 20.8472 36.1596 20.3077 35.9006 19.8761C35.8143 19.7466 35.728 19.6171 35.6417 19.4876C35.4474 19.2071 35.2316 18.9265 35.1237 18.5596C35.0374 18.2575 35.0806 17.9985 35.2532 17.8475C35.3395 17.7611 35.5338 17.6748 35.8143 17.7611C35.7064 17.3943 35.3827 16.7252 35.2532 16.531C34.9942 16.1426 34.6921 15.7757 34.3684 15.4304L34.131 15.1283C34.1094 15.1283 34.0663 15.1283 34.0447 15.1283C33.052 15.1067 31.7571 15.2793 30.7212 16.0994C29.4911 17.0705 28.4336 17.2864 27.592 17.1569C27.0956 17.0921 26.7072 16.8979 26.405 16.6821C25.585 16.121 24.7001 15.3657 23.8369 15.3657H23.8153C22.9521 15.3872 22.0889 16.121 21.2688 16.6821C20.9451 16.8979 20.535 17.0921 20.0387 17.1569C19.2186 17.2648 18.1611 17.049 16.9526 16.0994C15.8951 15.2577 14.5571 15.1067 13.586 15.1283C13.5644 15.1283 13.5428 15.1283 13.5212 15.1283L13.3054 15.4088C12.9817 15.7757 12.6796 16.1426 12.4206 16.531C12.0537 17.049 11.7516 17.6317 11.4926 18.2143C11.471 18.2791 11.4279 18.3654 11.3847 18.4517C11.2337 18.7754 10.8884 19.5092 10.9963 19.8113C11.0394 19.7897 11.0826 19.7682 11.1258 19.7682C11.1905 19.7466 11.2552 19.7034 11.32 19.7034C11.4926 19.6603 11.6869 19.7034 11.8163 19.8329C12.0321 20.0703 12.0106 20.4803 11.8163 20.9767C11.6869 21.2788 11.6221 21.732 11.6221 22.0989V22.1421C11.6221 22.1421 11.6221 22.1636 11.6221 22.1852C11.8379 22.0557 12.0537 21.9478 12.2695 22.0773C12.399 22.1421 12.4638 22.2715 12.4638 22.4226C12.4638 23.739 13.1328 25.0555 14.0823 26.0914C14.1255 26.1345 14.1687 26.1777 14.2118 26.2208C14.255 26.2856 14.3197 26.3288 14.3629 26.3935C15.1398 27.1704 16.0678 27.7531 16.9742 28.0337C17.0821 28.0552 17.1684 28.1631 17.19 28.271C17.2116 28.3358 17.2116 28.3789 17.19 28.4437C17.1037 28.5084 16.9742 28.5947 16.8447 28.5947C16.8231 28.5947 16.78 28.5948 16.7584 28.5732C15.8304 28.2926 14.8592 27.7099 14.0392 26.933C14.3629 27.451 14.6003 28.0121 14.8161 28.53C15.6146 30.6881 15.852 33.062 15.4419 35.328C15.0103 37.7019 13.8881 39.9247 12.2695 41.6944C11.6437 42.385 10.8668 42.9676 10.0251 43.4208C9.85247 43.5072 9.70141 43.6151 9.52876 43.7014C8.96766 45.3415 8.66553 47.1112 8.66553 48.8376C8.66553 48.8592 8.66553 48.8592 8.66553 48.8808H39.0083C39.0083 47.327 38.7493 45.5142 38.2745 43.7877C37.1955 43.2482 36.1596 42.5576 35.3611 41.6944ZM20.6214 25.0555C20.5998 24.9692 20.5566 24.8613 20.535 24.7749C20.2329 23.847 19.5855 23.2211 19.3912 23.0485C19.1538 22.8974 18.9165 22.7032 18.7007 22.5089C18.528 22.3147 18.3338 22.0557 18.118 21.7752C17.6648 21.1709 17.0605 20.3293 16.5426 20.3293C16.3699 20.3293 16.2188 20.1782 16.2188 20.0055C16.2188 19.8329 16.3699 19.6818 16.5426 19.6818C17.4058 19.6818 18.0964 20.6314 18.6359 21.3867C18.8301 21.6457 19.0028 21.9047 19.1538 22.0557C19.2833 22.1852 19.456 22.3147 19.607 22.4442C19.6502 22.4658 19.6718 22.4658 19.715 22.4874C19.715 22.4874 19.7581 22.5305 19.8229 22.5737C20.4919 22.9837 21.3119 23.1779 22.0025 23.07C22.4126 23.0053 22.9737 22.8111 23.3621 22.2284C22.8226 21.9047 21.7004 21.1493 21.5062 20.1998C21.3767 19.5739 21.5062 18.9697 21.873 18.4949C22.3047 17.9554 22.9953 17.6532 23.8153 17.6532C24.6354 17.6532 25.326 17.9554 25.7576 18.4949C26.1461 18.9697 26.2756 19.5739 26.1245 20.1998C25.9087 21.1493 24.7649 21.9262 24.2469 22.25C24.6354 22.8111 25.1749 23.0269 25.585 23.07C26.5345 23.2211 27.7215 22.8111 28.4336 22.0557C28.5847 21.9047 28.7574 21.6457 28.9516 21.3867C29.5127 20.6314 30.2033 19.6818 31.0449 19.6818C31.2176 19.6818 31.3686 19.8329 31.3686 20.0055C31.3686 20.1782 31.2176 20.3293 31.0449 20.3293C30.527 20.3293 29.9011 21.1709 29.4695 21.7752C29.2537 22.0557 29.0595 22.3147 28.8868 22.5089C28.7574 22.66 28.6063 22.7895 28.4336 22.8974C28.4121 22.9406 28.3905 22.9837 28.3473 23.0053C28.3473 23.0053 27.4841 23.6959 27.1388 24.7749C27.1172 24.8613 27.074 24.9476 27.0525 25.0555C26.923 25.4655 26.7719 25.9619 26.5345 26.3935C26.1029 27.192 25.3476 27.8826 23.8369 27.8826C22.3047 27.8826 21.5709 27.192 21.1393 26.3935C20.9019 25.9619 20.7508 25.4655 20.6214 25.0555ZM23.8153 45.5358C23.2974 45.5358 22.8658 45.1042 22.8658 44.5862C22.8658 44.0683 23.2974 43.6367 23.8153 43.6367C24.3333 43.6367 24.7649 44.0683 24.7649 44.5862C24.7649 45.1042 24.3548 45.5358 23.8153 45.5358Z" fill="white"/>
<path d="M10.1976 37.0544C10.3703 36.8818 10.5214 36.7091 10.694 36.5581C10.7803 36.4718 10.9098 36.3423 11.0825 36.2559C11.104 36.1049 11.104 35.9322 11.104 35.7812C11.1256 34.8532 10.8667 33.9684 10.1329 33.3425C9.74444 33.0188 9.29124 32.7814 8.79488 32.6088C7.52161 33.7094 6.16201 34.9611 5.75198 36.407C5.53617 37.1623 5.66565 37.9608 6.11885 38.4572C6.48573 38.8457 7.00367 38.9967 7.65109 38.8672C8.64382 38.6514 9.42073 37.8314 10.1976 37.0544Z" fill="white"/>
<path d="M14.2118 12.1501C14.3197 12.1501 14.4061 12.1285 14.514 12.1069C14.4708 11.999 14.4924 11.8696 14.5571 11.7832C14.5787 11.7401 14.6219 11.6969 14.665 11.6753C15.593 11.2437 16.7152 10.3805 17.0605 9.38775C17.1468 9.15036 17.1468 8.91297 17.0821 8.63241C16.9094 7.89866 16.2404 7.12176 15.8304 6.66856C15.0535 5.76216 14.2118 4.89892 13.327 4.122C13.2623 4.05726 13.1759 3.99252 13.1112 3.9062C12.6796 3.47458 12.1832 3.06454 11.7948 2.97822C11.6437 2.95664 11.5142 2.95664 11.4063 3.06454C11.3416 3.1077 11.2552 3.12928 11.1905 3.12928C11.1258 3.12928 11.061 3.1077 11.0178 3.06454C10.4999 3.94936 11.0394 5.99954 11.1473 6.79804C11.3416 8.13605 12.1832 12.3012 14.2118 12.1501Z" fill="white"/>
<path d="M32.7498 11.6537C32.7929 11.6753 32.8145 11.6969 32.8577 11.7184C32.944 11.8048 32.9656 11.9558 32.9008 12.0853C32.9008 12.0853 32.9008 12.0853 32.9008 12.1069C35.1668 12.7543 36.0948 8.22233 36.289 6.79799C36.3969 5.9995 36.9581 3.92773 36.4185 3.04291C36.3106 3.15082 36.1164 3.15082 36.0085 3.04291C35.5985 2.7192 34.9079 3.30188 34.3036 3.88457C34.2173 3.97089 34.1525 4.03563 34.0878 4.10038C33.2246 4.87729 32.3829 5.74053 31.5844 6.64693C31.1959 7.10013 30.5269 7.87704 30.3327 8.61079C30.2896 8.76186 30.2896 8.89134 30.2896 9.02083C30.2896 9.15032 30.3111 9.25822 30.3543 9.36613C30.6996 10.3588 31.8002 11.2221 32.7498 11.6537Z" fill="white"/>
<path d="M23.8369 27.2351C24.8296 27.2351 25.4123 26.8898 25.7792 26.3935C25.9734 26.1129 26.1245 25.7892 26.2324 25.4655C25.5849 25.9834 24.8944 26.3287 24.1606 26.3935C24.0311 26.415 23.9232 26.415 23.7937 26.415C23.6642 26.415 23.5563 26.415 23.4484 26.3935C23.0168 26.3503 22.5852 26.1992 22.1752 25.9834C21.9378 25.8539 21.6788 25.7029 21.4414 25.5302C21.5493 25.8539 21.7004 26.1345 21.873 26.3935C22.2615 26.8898 22.8442 27.2351 23.8369 27.2351Z" fill="white"/>
<path d="M25.4769 23.7175C24.7647 23.6096 24.182 23.2643 23.772 22.7247C23.362 23.2643 22.7793 23.6096 22.0671 23.7175C21.9592 23.739 21.7866 23.739 21.6139 23.739C21.3118 23.739 21.0097 23.6959 20.7075 23.6311C20.8802 23.9117 21.0312 24.2354 21.1607 24.5807C21.1823 24.667 21.2255 24.7749 21.247 24.8613C21.3118 25.0771 21.3765 25.2929 21.4413 25.5087C21.6787 25.7029 21.9161 25.854 22.175 26.005C22.5851 26.2208 23.0167 26.3503 23.4483 26.4151H24.1605C24.8942 26.3288 25.5848 26.005 26.2322 25.4871C26.297 25.2929 26.3617 25.0986 26.4265 24.8828C26.448 24.7965 26.4912 24.6886 26.5128 24.6023C26.6207 24.2354 26.7933 23.9117 26.966 23.6311C26.4696 23.739 25.9517 23.7822 25.4769 23.7175Z" fill="#F58F90"/>
<path d="M42.2669 24.3864C41.7058 24.0843 41.0152 24.0843 40.4109 24.3864C40.1951 24.5159 39.9793 24.667 39.7635 24.818C39.5045 25.0338 39.2456 25.2712 38.9866 25.5086C38.4686 26.005 37.9291 26.5229 37.2385 26.8251C35.6847 27.5588 34.3251 27.0624 33.7856 26.8035C33.5698 27.0193 33.3324 27.2135 33.095 27.4077C32.9655 27.4941 32.8576 27.5804 32.7281 27.6883C32.1886 30.1054 31.8865 33.5151 32.2102 35.3279C32.6418 37.6803 33.764 39.9247 35.3826 41.6943C36.1595 42.536 37.1738 43.205 38.2528 43.7445C38.037 42.9676 37.7996 42.2122 37.4975 41.5217C37.4328 41.3274 37.3464 41.1548 37.2817 40.9821C37.2385 40.8526 37.1738 40.7232 37.1306 40.5937C37.109 40.5505 37.109 40.5073 37.0875 40.4642C37.0227 40.3131 36.9796 40.1836 36.9364 40.0326C36.9364 40.011 36.9148 39.9894 36.9148 39.9678C36.8716 39.8168 36.8069 39.6657 36.7637 39.5362C36.7637 39.5146 36.7637 39.5146 36.7422 39.493C36.699 39.342 36.6558 39.1909 36.6127 39.0399V39.0183C36.5695 38.8672 36.5264 38.7161 36.5048 38.5651V38.5435C36.4616 38.3924 36.44 38.2414 36.4185 38.0903C36.3753 37.8313 36.3321 37.5723 36.289 37.2918C36.2674 37.0544 36.2458 36.7954 36.2458 36.5365C36.2458 36.3854 36.2458 36.2343 36.2458 36.0833C36.2458 36.0833 36.2458 36.0833 36.2458 36.0617C36.2458 35.9106 36.2458 35.738 36.2674 35.5869C36.2674 35.5006 36.289 35.4143 36.289 35.3279C36.289 35.2848 36.289 35.2632 36.3105 35.22C36.3105 35.1769 36.3321 35.1121 36.3321 35.069C36.3321 35.0258 36.3537 34.9826 36.3537 34.9395C36.3537 34.8963 36.3753 34.8532 36.3753 34.81C36.3969 34.7668 36.3969 34.7021 36.4185 34.6589C36.4185 34.6158 36.44 34.5942 36.44 34.551C36.4616 34.4863 36.4832 34.4431 36.4832 34.3784C36.4832 34.3568 36.5048 34.3352 36.5048 34.292C36.5264 34.2273 36.5479 34.1626 36.5695 34.1194C36.5695 34.0978 36.5911 34.0762 36.5911 34.0547C36.6127 33.9899 36.6343 33.9252 36.6774 33.8604C36.6774 33.8389 36.699 33.8173 36.699 33.8173C36.7206 33.7525 36.7637 33.6878 36.7853 33.623C36.7853 33.6015 36.8069 33.6015 36.8069 33.5799C36.8501 33.5151 36.8716 33.4504 36.9148 33.3641C36.9148 33.3425 36.9364 33.3425 36.9364 33.3209C36.9796 33.2562 37.0227 33.1698 37.0659 33.1051C37.0659 33.1051 37.0659 33.0835 37.0875 33.0835C37.1306 33.0188 37.1738 32.9325 37.2169 32.8677C37.2169 32.8677 37.2169 32.8461 37.2385 32.8461C37.2817 32.7814 37.3464 32.6951 37.3896 32.6303C37.3896 32.6303 37.3896 32.6303 37.3896 32.6087C37.4543 32.544 37.4975 32.4577 37.5622 32.3929C37.627 32.3066 37.6917 32.2419 37.7565 32.1555C37.8212 32.0692 37.886 32.0045 37.9723 31.9181C38.037 31.8318 38.1233 31.7671 38.1881 31.6808C38.2312 31.6376 38.2528 31.5944 38.296 31.5729C38.3823 31.4865 38.4686 31.4218 38.555 31.3355C38.5981 31.3139 38.6197 31.2707 38.6629 31.2491C38.6197 30.1269 38.6844 28.5947 39.3103 27.2135C40.2383 25.1849 41.49 24.3648 42.7201 24.7533C42.5906 24.6022 42.4395 24.4943 42.2669 24.3864Z" fill="#F9AE5F"/>
<path d="M14.039 26.933C14.0174 26.9114 14.0174 26.933 14.0174 26.933C13.0247 28.7242 11.5572 30.1054 9.91703 31.6161C9.63648 31.8534 9.35593 32.1124 9.05379 32.3714C8.96747 32.4361 8.90273 32.5009 8.81641 32.5656C9.29119 32.7383 9.74438 32.9757 10.1328 33.2994C10.8882 33.9252 11.1256 34.8316 11.104 35.7596C11.104 35.9107 11.0824 36.0833 11.0824 36.2344C11.2766 36.1265 11.5356 36.0401 11.8162 36.1265C12.1399 36.2344 12.3557 36.5797 12.3557 36.9465C12.3557 37.2271 12.2478 37.4645 12.1399 37.7019C11.9025 38.2198 11.6651 38.7162 11.4493 39.2125C10.9098 40.3563 10.4134 41.457 9.87387 42.7086C9.74438 43.0108 9.63648 43.3345 9.50699 43.6582C9.67964 43.5719 9.83071 43.4856 10.0034 43.3992C10.845 42.946 11.6219 42.3633 12.2478 41.6728C13.8663 39.9031 14.9885 37.6803 15.4202 35.3064C15.8302 33.0404 15.5928 30.6665 14.7943 28.5084C14.6217 28.012 14.3627 27.4509 14.039 26.933Z" fill="#F9AE5F"/>
<path d="M34.0447 15.1282C34.0663 15.1282 34.1094 15.1282 34.131 15.1282L34.0231 15.0203C33.9584 14.9555 33.9368 14.8476 33.9584 14.7613C33.9799 14.675 34.0231 14.5887 34.1094 14.5455C34.8432 14.1355 37.5192 11.071 37.8861 6.02105L37.9077 5.82681C37.9724 4.87725 38.0587 3.90612 38.0372 2.95656V2.82707C38.0372 2.24438 38.0371 1.42431 37.6703 1.05744C36.6128 -2.74777e-05 34.5195 1.7696 33.6131 2.50335C32.275 3.62556 31.0234 5.00674 29.7717 6.71163C28.5847 8.3302 27.4625 8.37337 26.4266 8.28704C25.9734 8.24388 25.4986 8.17914 25.067 8.13597C24.5491 8.07123 24.0743 8.00649 23.8153 8.00649C23.5564 8.00649 23.0816 8.07123 22.5636 8.13597C22.132 8.20072 21.6572 8.24388 21.204 8.28704C20.1682 8.37337 19.0459 8.3302 17.859 6.71163C16.6073 4.98516 15.3556 3.62556 14.0176 2.50335C13.1112 1.74802 10.9963 -0.0216097 9.96038 1.03586C9.59351 1.40273 9.59351 2.2228 9.59351 2.80549V2.93497C9.59351 3.88453 9.65825 4.87726 9.72299 5.80524L9.74457 5.99946C10.1115 11.0494 12.7875 14.1139 13.5212 14.5239C13.6076 14.5671 13.6507 14.6534 13.6723 14.7397C13.6939 14.8261 13.6723 14.934 13.6076 14.9987L13.4997 15.1282C13.5212 15.1282 13.5428 15.1282 13.5644 15.1282C14.5571 15.085 15.8736 15.2361 16.931 16.0993C18.1395 17.0489 19.1754 17.2647 20.0171 17.1568C20.5134 17.0921 20.9019 16.8978 21.204 16.682C22.0241 16.1209 22.9089 15.3656 23.7722 15.3656H23.7937H23.8153C24.6786 15.3656 25.5634 16.1209 26.3835 16.682C26.6856 16.8978 27.0956 17.0705 27.5704 17.1568C28.3905 17.2647 29.4479 17.0489 30.6565 16.0993C31.7355 15.2577 33.0735 15.1066 34.0447 15.1282ZM17.6432 9.64664C17.2331 10.812 15.9815 11.8263 14.9024 12.3011C14.9024 12.3011 14.8593 12.3011 14.8161 12.3011C14.7082 12.3011 14.6003 12.2579 14.5355 12.15C14.5355 12.1284 14.514 12.1284 14.514 12.1069C14.406 12.1284 14.3197 12.15 14.2118 12.15C12.1832 12.3011 11.3416 8.13597 11.1473 6.79796C11.0394 5.99946 10.4999 3.94928 11.0178 3.06446C10.9963 3.04288 10.9747 3.04288 10.9531 3.0213C10.9315 2.99971 10.9315 2.97814 10.9315 2.95656C10.8668 2.82707 10.8884 2.65443 10.9963 2.5681C11.2337 2.37387 11.5142 2.30913 11.7732 2.35229C12.4422 2.41703 13.1328 3.06446 13.5428 3.45291C13.6291 3.51766 13.6939 3.5824 13.7586 3.64715C14.665 4.44564 15.5067 5.30887 16.3052 6.25843C16.7368 6.75479 17.4705 7.61803 17.6863 8.50285C17.7943 8.91289 17.7727 9.27976 17.6432 9.64664ZM19.4991 15.603C18.9812 15.603 18.5496 15.1714 18.5496 14.6534C18.5496 14.1355 18.9812 13.7038 19.4991 13.7038C20.0171 13.7038 20.4487 14.1355 20.4487 14.6534C20.4487 15.1714 20.0387 15.603 19.4991 15.603ZM28.1531 15.603C27.6351 15.603 27.2035 15.1714 27.2035 14.6534C27.2035 14.1355 27.6351 13.7038 28.1531 13.7038C28.671 13.7038 29.1027 14.1355 29.1027 14.6534C29.1027 15.1714 28.671 15.603 28.1531 15.603ZM32.9009 12.1069C32.8577 12.2363 32.7282 12.3011 32.6203 12.3011C32.5772 12.3011 32.534 12.3011 32.4909 12.2795C32.3829 12.2364 32.275 12.1716 32.1671 12.1284C32.1456 12.1069 32.1024 12.0853 32.0808 12.0853C31.9945 12.0421 31.9298 11.999 31.8434 11.9342C31.8218 11.9126 31.7787 11.8911 31.7571 11.8695C31.6492 11.8047 31.5413 11.7184 31.4334 11.6537C31.3255 11.5673 31.196 11.481 31.0881 11.3731C30.7644 11.0926 30.4622 10.7904 30.2249 10.4667C30.1817 10.402 30.1385 10.3372 30.0954 10.2725C30.0306 10.1862 29.9875 10.0998 29.9443 9.99193C29.9227 9.97035 29.9227 9.94877 29.9011 9.92719C29.858 9.84086 29.8148 9.73296 29.7717 9.64664C29.7285 9.56031 29.7069 9.47399 29.7069 9.38766C29.6638 9.21502 29.6638 9.02079 29.6853 8.80498C29.6853 8.69708 29.7069 8.61076 29.7285 8.50285C29.7501 8.39495 29.7932 8.28704 29.8364 8.17914C29.8796 8.07123 29.9227 7.96333 29.9875 7.85542C30.0954 7.63962 30.2249 7.44538 30.3543 7.25116C30.4622 7.10009 30.5486 6.9706 30.6565 6.84112C30.7644 6.71163 30.8507 6.58215 30.9586 6.47424C31.0234 6.4095 31.0881 6.32317 31.1313 6.25843C31.3255 6.02104 31.5413 5.80524 31.7355 5.56785C32.0377 5.22255 32.3614 4.89884 32.6851 4.57512C33.0088 4.25141 33.3325 3.94928 33.6778 3.64715C33.7425 3.5824 33.8073 3.51766 33.8936 3.45291C33.9584 3.38817 34.0447 3.30185 34.131 3.21553C34.2173 3.1292 34.3036 3.04288 34.4116 2.97814C34.4547 2.93498 34.5195 2.89181 34.5626 2.84865C34.6705 2.76233 34.7784 2.69758 34.8863 2.63284C34.9942 2.5681 35.1021 2.50336 35.2316 2.4602C35.2964 2.43862 35.3395 2.41703 35.4043 2.39545C35.5122 2.35229 35.6417 2.33071 35.7496 2.33071C35.8575 2.33071 35.987 2.35229 36.0949 2.37387C36.1596 2.39545 36.2028 2.41703 36.2675 2.43861C36.3323 2.4602 36.3754 2.50336 36.4402 2.54652C36.4617 2.5681 36.4833 2.58968 36.5049 2.58968C36.6128 2.69758 36.6128 2.87023 36.4833 2.99972C36.4617 3.0213 36.4617 3.04288 36.4402 3.04288C36.9797 3.90611 36.4402 5.97788 36.3107 6.79796C36.0733 8.20071 35.1453 12.7543 32.9009 12.1069Z" fill="#F9AE5F"/>
<path d="M43.8854 25.8108C43.8206 24.9476 43.3459 24.2354 42.6121 23.8254C41.8568 23.4153 40.9288 23.4153 40.1519 23.8254C39.5476 24.1491 39.0513 24.6023 38.5765 25.0555C38.0801 25.5303 37.6053 25.9835 37.0011 26.264C35.8141 26.8035 34.7782 26.523 34.2603 26.3072C34.6272 25.8756 34.9509 25.4223 35.2099 24.926C35.5767 24.2354 35.7925 23.5664 35.8789 22.8758C35.8789 22.8542 35.8789 22.8111 35.8789 22.7679C35.8789 22.7247 35.8789 22.7032 35.8789 22.6816C35.9868 22.7895 36.1162 22.8758 36.3321 22.8758C36.44 22.8758 36.5694 22.8111 36.6558 22.7247C36.9795 22.3794 36.9795 21.3867 36.9795 21.2788C36.9147 20.6961 36.8284 20.0487 36.5047 19.5092C36.4184 19.3581 36.3105 19.2071 36.2026 19.0776C36.0299 18.8402 35.8789 18.6244 35.7925 18.387C36.1378 18.5165 36.3105 18.387 36.3968 18.2791C36.8284 17.7611 35.8141 16.1426 35.8141 16.121C35.5336 15.7109 35.2099 15.3009 34.8861 14.9556L34.7782 14.8261C35.9004 13.8981 38.2312 10.7689 38.5765 5.99953L38.5981 5.8053C38.6628 4.85574 38.7275 3.86302 38.7275 2.89188V2.76239C38.7275 2.0718 38.7275 1.10066 38.1664 0.539556C36.6989 -0.927946 34.2819 1.07908 33.2244 1.9639C31.8432 3.10769 30.57 4.51045 29.2751 6.28008C28.2824 7.63968 27.4839 7.68284 26.5127 7.59652C26.0811 7.55335 25.5848 7.51019 25.1747 7.44545C24.6136 7.3807 24.1388 7.31597 23.8367 7.31597C23.5346 7.31597 23.0598 7.3807 22.4987 7.44545C22.0887 7.48861 21.5923 7.55335 21.1607 7.59652C20.2111 7.68284 19.391 7.63968 18.3983 6.28008C17.125 4.51045 15.8302 3.0861 14.449 1.94232C13.4131 1.07908 10.9961 -0.949522 9.52857 0.51798C8.96746 1.07908 8.96746 2.05022 8.96746 2.74081V2.8703C8.94588 3.86302 9.03221 4.85574 9.09695 5.8053L9.11853 5.99953C9.46382 10.7689 11.7946 13.8981 12.9168 14.8261L12.8089 14.9556C12.4852 15.3225 12.1614 15.7325 11.8809 16.1426C11.4924 16.7037 11.1687 17.3079 10.8882 17.9338C10.845 17.9985 10.8234 18.0633 10.7803 18.1496C10.5213 18.7107 10.1328 19.5739 10.435 20.1134C10.6724 20.5666 11.0824 20.4372 11.2982 20.3508C11.2766 20.4372 11.255 20.5451 11.1903 20.6961C11.0176 21.0846 10.9313 21.6241 10.9529 22.0773V22.1205C10.9745 22.2931 10.9745 22.6816 11.3198 22.8326C11.4924 22.8974 11.6435 22.8326 11.8161 22.7463C11.924 24.0843 12.6146 25.3792 13.5426 26.4367C12.6146 28.2279 11.1471 29.6522 9.4854 31.1629C9.20485 31.4003 8.9243 31.6592 8.62216 31.9182C7.21941 33.1267 5.644 34.5079 5.12606 36.2344C4.84551 37.2055 5.03973 38.263 5.644 38.9104C6.16194 39.4715 6.91727 39.6873 7.78051 39.5147C8.96746 39.2773 9.8307 38.3925 10.6508 37.5508C10.8234 37.3782 10.9745 37.2055 11.1471 37.0545C11.4277 36.7955 11.5572 36.7739 11.6003 36.7955C11.6651 36.8171 11.7082 36.9034 11.7082 37.0113C11.7082 37.1624 11.6435 37.335 11.5572 37.5077C11.3198 38.0256 11.0824 38.522 10.8666 39.0183C10.3271 40.1837 9.8307 41.2627 9.29117 42.536C8.44952 44.5215 8.0179 46.7011 8.0179 48.8808C8.0179 49.0534 8.16897 49.2045 8.34162 49.2045C8.49268 49.2045 8.64375 49.075 8.64375 48.8808C8.64375 48.8592 8.64375 48.8592 8.64375 48.8376C8.64375 47.0896 8.94588 45.32 9.50698 43.7014C9.50698 43.7014 9.50698 43.7014 9.50698 43.6798C9.61489 43.3561 9.74437 43.054 9.87386 42.7302C10.4134 41.4785 10.9097 40.3779 11.4493 39.2341C11.6651 38.7378 11.9025 38.2414 12.1399 37.7235C12.2478 37.4861 12.3557 37.2487 12.3557 36.9681C12.3557 36.6013 12.1399 36.256 11.8161 36.1481C11.5356 36.0617 11.2766 36.1265 11.0824 36.256C10.9097 36.3639 10.7803 36.4934 10.6939 36.5581C10.5213 36.7092 10.3702 36.8818 10.1976 37.0545C9.42066 37.8314 8.64375 38.6514 7.65102 38.8457C7.0036 38.9752 6.48566 38.8241 6.11878 38.4356C5.66558 37.9393 5.5361 37.1408 5.7519 36.3855C6.18352 34.9179 7.54312 33.6878 8.79481 32.5872C8.79481 32.5872 8.79481 32.5872 8.8164 32.5656C8.90272 32.5009 8.96746 32.4361 9.05378 32.3714C9.35592 32.1124 9.63647 31.8535 9.91702 31.6161C11.5572 30.1054 13.0247 28.7242 14.0174 26.933C14.0174 26.933 14.0174 26.9114 14.039 26.9114L14.0606 26.933C14.8806 27.6883 15.8302 28.271 16.7798 28.5732C16.8013 28.5947 16.8445 28.5947 16.8661 28.5947C16.9956 28.5947 17.125 28.5084 17.2114 28.4437C17.2329 28.3789 17.2329 28.3358 17.2114 28.271C17.1898 28.1631 17.1035 28.0552 16.9956 28.0336C16.1107 27.7531 15.1828 27.1704 14.3843 26.3935C14.3195 26.3503 14.2764 26.2856 14.2332 26.2208C14.19 26.1777 14.1469 26.1345 14.1037 26.0914C13.1542 25.0555 12.4852 23.739 12.4852 22.4226C12.4852 22.2715 12.4204 22.1421 12.2909 22.0773C12.0751 21.9478 11.8593 22.0557 11.6435 22.1852C11.6435 22.1636 11.6435 22.142 11.6435 22.142V22.0989C11.6435 21.732 11.7082 21.2788 11.8377 20.9767C12.032 20.4803 12.0535 20.0703 11.8377 19.8329C11.7082 19.7034 11.514 19.6602 11.3414 19.7034C11.2766 19.7034 11.2119 19.7466 11.1471 19.7682C11.104 19.7682 11.0608 19.7897 11.0176 19.8113C10.9097 19.5092 11.255 18.7754 11.4061 18.4517C11.4493 18.3654 11.4924 18.2791 11.514 18.2143C11.773 17.6316 12.0751 17.049 12.442 16.531C12.701 16.1426 13.0031 15.7757 13.3268 15.4088L13.5426 15.1283L13.6505 14.9988C13.7153 14.934 13.7368 14.8261 13.7153 14.7398C13.6937 14.6535 13.6505 14.5672 13.5642 14.524C12.8304 14.114 10.1544 11.0495 9.78754 5.99953L9.76595 5.8053C9.70121 4.87732 9.63647 3.8846 9.63647 2.93504V2.80555C9.63647 2.22287 9.63647 1.4028 10.0033 1.03592C11.0392 -0.0215438 13.1542 1.74809 14.0606 2.50342C15.3986 3.62563 16.6503 4.98522 17.902 6.7117C19.0889 8.33027 20.2111 8.37343 21.247 8.28711C21.7002 8.24395 22.175 8.20078 22.6066 8.13604C23.1245 8.0713 23.5993 8.00655 23.8583 8.00655C24.1173 8.00655 24.592 8.0713 25.11 8.13604C25.5416 8.1792 26.0164 8.24395 26.4696 8.28711C27.5055 8.37343 28.6277 8.33027 29.8146 6.7117C31.0663 5.00681 32.318 3.62563 33.656 2.50342C34.5624 1.76967 36.6558 3.83839e-05 37.7132 1.0575C38.0801 1.42438 38.0801 2.24445 38.0801 2.82713V2.95662C38.1017 3.90618 38.0154 4.87732 37.9506 5.82688L37.9291 6.02111C37.5622 11.071 34.8861 14.1355 34.1524 14.5456C34.0661 14.5887 34.0229 14.6751 34.0013 14.7614C33.9797 14.8477 34.0013 14.9556 34.0661 15.0203L34.174 15.1283L34.4114 15.4304C34.7351 15.7757 35.0372 16.1426 35.2962 16.531C35.4257 16.7252 35.7494 17.3943 35.8573 17.7611C35.5767 17.6748 35.3825 17.7611 35.2962 17.8475C35.1235 17.9985 35.0804 18.2575 35.1667 18.5596C35.2746 18.9265 35.4904 19.207 35.6846 19.4876C35.771 19.6171 35.8573 19.7466 35.9436 19.8761C36.2026 20.3077 36.2889 20.8472 36.3321 21.3867C36.3536 21.5162 36.3105 21.8615 36.2673 22.0989C36.2457 22.0341 36.2026 21.9478 36.1378 21.8831C35.9436 21.6457 35.7494 21.6889 35.6631 21.7104C35.3393 21.7968 35.2962 22.2284 35.253 22.7463C35.253 22.7679 35.253 22.7895 35.253 22.8111C35.1883 23.4153 34.994 24.0196 34.6703 24.6239C34.3898 25.1634 34.0229 25.6382 33.6129 26.0914C33.5481 26.1561 33.4834 26.2424 33.4186 26.3072C33.3971 26.3288 33.3539 26.3719 33.3323 26.3935C33.246 26.4582 33.1812 26.5446 33.0949 26.6093C33.0733 26.6309 33.0302 26.674 33.0086 26.6956L32.987 26.7172C32.6201 27.0193 32.2317 27.2999 31.8216 27.5373C31.4764 27.7099 31.1311 27.861 30.8073 27.9689C30.6779 28.0121 30.57 28.1415 30.57 28.271C30.57 28.3142 30.57 28.3358 30.5915 28.3789C30.6563 28.5516 30.8289 28.6379 31.0016 28.5947C31.3684 28.4653 31.7569 28.3142 32.1238 28.0984C32.3396 27.9905 32.5338 27.8394 32.7496 27.7099L32.7712 27.6883C32.9007 27.602 33.0302 27.5157 33.1381 27.4078C33.3755 27.2136 33.6129 27.0193 33.8287 26.8035C34.3682 27.0625 35.7278 27.5589 37.2816 26.8251C37.9722 26.523 38.5117 26.005 39.0297 25.5087C39.2886 25.2497 39.5476 25.0123 39.8066 24.8181C40.0224 24.6454 40.2166 24.4944 40.454 24.3865C41.0583 24.0843 41.7489 24.0843 42.31 24.3865C42.4826 24.4944 42.6337 24.6023 42.7632 24.7533C42.7848 24.7749 42.8063 24.7965 42.8063 24.7965C43.0437 25.0771 43.1948 25.4439 43.2164 25.854C43.2811 26.4798 43.0006 27.0625 42.7848 27.451C42.1157 28.5732 41.123 29.3069 40.0871 30.1054C39.6339 30.4723 39.1376 30.8392 38.6844 31.2492C38.6412 31.2708 38.6196 31.3139 38.5765 31.3355C38.4902 31.4218 38.4038 31.4866 38.3175 31.5729C38.2743 31.6161 38.2528 31.6592 38.2096 31.6808C38.1233 31.7671 38.0585 31.8319 37.9938 31.9182C37.929 32.0045 37.8643 32.0693 37.778 32.1556C37.7132 32.2419 37.6485 32.3067 37.5838 32.393C37.519 32.4577 37.4758 32.544 37.4111 32.6088C37.4111 32.6088 37.4111 32.6088 37.4111 32.6304C37.3679 32.6951 37.3032 32.7814 37.26 32.8462C37.26 32.8462 37.26 32.8678 37.2385 32.8678C37.1953 32.9325 37.1521 33.0188 37.109 33.0836C37.109 33.0836 37.109 33.1052 37.0874 33.1052C37.0442 33.1699 37.0011 33.2562 36.9579 33.321C36.9579 33.3425 36.9363 33.3425 36.9363 33.3641C36.8932 33.4289 36.8716 33.4936 36.8284 33.5799C36.8284 33.6015 36.8068 33.6015 36.8068 33.6231C36.7853 33.6878 36.7421 33.7526 36.7205 33.8173C36.7205 33.8389 36.6989 33.8605 36.6989 33.8605C36.6774 33.9252 36.6558 33.99 36.6126 34.0547C36.6126 34.0763 36.591 34.0979 36.591 34.1195C36.5694 34.1842 36.5479 34.2489 36.5263 34.2921C36.5263 34.3137 36.5047 34.3353 36.5047 34.3784C36.4831 34.4432 36.4615 34.4863 36.4615 34.5511C36.4615 34.5942 36.44 34.6158 36.44 34.659C36.4184 34.7021 36.4184 34.7669 36.3968 34.81C36.3968 34.8532 36.3752 34.8964 36.3752 34.9395C36.3752 34.9827 36.3536 35.0259 36.3536 35.069C36.3536 35.1122 36.3321 35.1769 36.3321 35.2201C36.3321 35.2632 36.3105 35.2848 36.3105 35.328C36.3105 35.4143 36.2889 35.5006 36.2889 35.587C36.2673 35.7596 36.2673 35.9107 36.2673 36.0617C36.2673 36.0617 36.2673 36.0617 36.2673 36.0833C36.2673 36.2344 36.2673 36.3855 36.2673 36.5365C36.2673 36.7955 36.2889 37.0545 36.3105 37.2919C36.3321 37.5724 36.3752 37.8314 36.44 38.0903C36.4615 38.2414 36.5047 38.3925 36.5263 38.5435V38.5651C36.5695 38.7162 36.591 38.8673 36.6342 39.0183V39.0399C36.6774 39.191 36.7205 39.342 36.7637 39.4931C36.7637 39.5147 36.7637 39.5147 36.7853 39.5363C36.8284 39.6873 36.8716 39.8168 36.9363 39.9679C36.9363 39.9895 36.9579 40.011 36.9579 40.0326C37.0011 40.1837 37.0658 40.3132 37.109 40.4642C37.1306 40.5074 37.1306 40.5506 37.1521 40.5937C37.1953 40.7232 37.26 40.8527 37.3032 40.9822C37.3679 41.1548 37.4543 41.3491 37.519 41.5217C37.7996 42.2339 38.0585 42.9892 38.2743 43.7445V43.7661C38.7491 45.4926 39.0081 47.327 39.0081 48.8592C39.0081 49.0319 39.1592 49.1829 39.3318 49.1829C39.5045 49.1829 39.6555 49.0319 39.7203 48.8376C39.7203 46.4853 39.1376 43.6366 38.188 41.2412C37.3248 39.1262 36.8284 37.6803 36.9795 35.587C37.0874 34.2705 37.6485 33.1699 38.8354 32.0045C39.3534 31.4866 39.9576 31.0334 40.5403 30.5802C41.5762 29.8033 42.6553 28.9832 43.389 27.7531C43.7559 27.1272 43.9285 26.4367 43.8854 25.8108Z" fill="#101010"/>
<path d="M14.6647 11.6753C14.6215 11.6969 14.5784 11.7401 14.5568 11.7832C14.492 11.8695 14.4705 11.9774 14.5136 12.1069C14.5136 12.1285 14.5352 12.1285 14.5352 12.1501C14.5999 12.258 14.6863 12.3012 14.8158 12.3012C14.8589 12.3012 14.9021 12.3012 14.9021 12.3012C15.9811 11.8264 17.2328 10.8121 17.6429 9.64671C17.7723 9.27983 17.7939 8.91296 17.686 8.50292C17.4702 7.61811 16.7365 6.75486 16.3048 6.2585C15.5063 5.30894 14.6647 4.44571 13.7583 3.64722C13.6935 3.58248 13.6288 3.51773 13.5425 3.45298C13.1324 3.04295 12.4419 2.41711 11.7728 2.35236C11.5139 2.33078 11.2549 2.37394 10.9959 2.56817C10.888 2.6545 10.8665 2.82714 10.9312 2.95663C10.9312 2.97821 10.9528 2.99979 10.9528 3.02137C10.9744 3.04295 10.9959 3.06453 11.0175 3.06453C11.0607 3.10769 11.1254 3.12927 11.1902 3.12927C11.2549 3.12927 11.3412 3.10769 11.406 3.06453C11.5139 2.97821 11.6649 2.95663 11.7944 2.97821C12.1829 3.06453 12.6577 3.47457 13.1109 3.90619C13.1756 3.99251 13.2619 4.05725 13.3267 4.12199C14.2115 4.89891 15.0531 5.76215 15.8301 6.66855C16.2401 7.12174 16.9091 7.89865 17.0818 8.6324C17.1465 8.91296 17.1465 9.15035 17.0602 9.38774C16.7149 10.3805 15.5927 11.2437 14.6647 11.6753Z" fill="#101010"/>
<path d="M31.5843 6.64695C32.3828 5.74056 33.2244 4.87732 34.0877 4.1004C34.1524 4.03566 34.2172 3.97092 34.3035 3.88459C34.9078 3.30191 35.5983 2.71923 36.0084 3.04294C36.1163 3.15084 36.2889 3.15084 36.4184 3.04294C36.44 3.02136 36.4616 2.99978 36.4616 2.99978C36.5695 2.89188 36.5695 2.71922 36.4832 2.58974C36.4616 2.56816 36.44 2.54658 36.4184 2.54658C36.3537 2.50342 36.3105 2.46026 36.2458 2.43868C36.181 2.4171 36.1379 2.37393 36.0731 2.37393C35.9652 2.33077 35.8357 2.33077 35.7278 2.33077C35.6199 2.33077 35.4904 2.35235 35.3825 2.39551C35.3178 2.41709 35.2746 2.43868 35.2099 2.46026C35.102 2.50342 34.9725 2.56816 34.8646 2.6329C34.7567 2.69765 34.6488 2.78397 34.5409 2.84871C34.4977 2.89187 34.433 2.93504 34.3898 2.9782C34.2819 3.06452 34.1956 3.15085 34.1093 3.21559C34.0229 3.30191 33.9366 3.36665 33.8719 3.45298C33.7855 3.51772 33.7208 3.58247 33.6561 3.64721C33.3323 3.94934 32.9871 4.25147 32.6633 4.57519C32.3396 4.8989 32.0159 5.22261 31.7138 5.56791C31.498 5.78372 31.3037 6.0211 31.1095 6.25849C31.0448 6.32324 31.0016 6.38798 30.9369 6.4743C30.8505 6.58221 30.7426 6.7117 30.6347 6.84118C30.5268 6.97067 30.4405 7.10015 30.3326 7.25122C30.2031 7.44545 30.0736 7.63968 29.9657 7.85549C29.9226 7.96339 29.8578 8.0713 29.8147 8.1792C29.7715 8.28711 29.7283 8.39501 29.7068 8.50291C29.6852 8.61082 29.6636 8.69714 29.6636 8.80505C29.642 8.99927 29.642 9.1935 29.6852 9.38773C29.7068 9.47405 29.7283 9.56038 29.7499 9.6467C29.7931 9.7546 29.8362 9.84093 29.8794 9.92725C29.901 9.94883 29.901 9.97041 29.9226 9.992C29.9657 10.0783 30.0305 10.1862 30.0736 10.2725C30.1168 10.3373 30.16 10.402 30.2031 10.4668C30.4405 10.7905 30.7426 11.1142 31.0663 11.3732C31.1743 11.4595 31.3037 11.5674 31.4116 11.6537C31.5195 11.74 31.6275 11.8048 31.7354 11.8695C31.7569 11.8911 31.8001 11.9127 31.8217 11.9343C31.908 11.9774 31.9727 12.0422 32.0591 12.0853C32.0807 12.1069 32.1238 12.1285 32.1454 12.1285C32.2533 12.1932 32.3612 12.2364 32.4691 12.2796C32.5123 12.3012 32.5554 12.3011 32.5986 12.3011C32.7065 12.3011 32.836 12.2364 32.8791 12.1069C32.8791 12.1069 32.8791 12.1069 32.8791 12.0853C32.9439 11.9559 32.9223 11.8048 32.836 11.7185C32.8144 11.6969 32.7712 11.6753 32.7281 11.6537C31.7785 11.2221 30.6779 10.3589 30.3326 9.36615C30.2894 9.25825 30.2679 9.15034 30.2679 9.02085C30.2679 8.89137 30.2894 8.76189 30.311 8.61082C30.5268 7.87707 31.1958 7.10015 31.5843 6.64695Z" fill="#101010"/>
<path d="M19.4989 15.603C20.0384 15.603 20.4484 15.1714 20.4484 14.6535C20.4484 14.1355 20.0168 13.7039 19.4989 13.7039C18.9809 13.7039 18.5493 14.1355 18.5493 14.6535C18.5493 15.1714 18.9809 15.603 19.4989 15.603Z" fill="#101010"/>
<path d="M31.3685 20.0056C31.3685 19.8329 31.2175 19.6818 31.0448 19.6818C30.2032 19.6818 29.5126 20.6314 28.9515 21.3867C28.7573 21.6457 28.5846 21.9047 28.4335 22.0557C27.7214 22.8111 26.5344 23.2211 25.5849 23.07C25.1748 23.0053 24.6353 22.8111 24.2468 22.25C24.7864 21.9263 25.9086 21.1709 26.1244 20.1998C26.2755 19.5739 26.146 18.9697 25.7575 18.4949C25.3259 17.9554 24.6353 17.6532 23.8152 17.6532C22.9952 17.6532 22.3046 17.9554 21.8729 18.4949C21.5061 18.9697 21.3766 19.5739 21.5061 20.1998C21.7003 21.1493 22.8225 21.9047 23.362 22.2284C22.9736 22.8111 22.4125 23.0053 22.0024 23.07C21.3118 23.178 20.4918 22.9837 19.8228 22.5737C19.758 22.5305 19.7149 22.4874 19.7149 22.4874C19.6933 22.4658 19.6501 22.4442 19.607 22.4442C19.4343 22.3363 19.2832 22.2068 19.1538 22.0557C19.0027 21.9047 18.83 21.6457 18.6358 21.3867C18.0963 20.6314 17.4057 19.6818 16.5425 19.6818C16.3698 19.6818 16.2188 19.8329 16.2188 20.0056C16.2188 20.1782 16.3698 20.3293 16.5425 20.3293C17.0604 20.3293 17.6647 21.1709 18.1179 21.7752C18.3337 22.0557 18.5279 22.3147 18.7006 22.5089C18.8948 22.7032 19.1322 22.8974 19.3911 23.0485C19.5854 23.2211 20.2544 23.847 20.5349 24.7749C20.5565 24.8613 20.5997 24.9692 20.6213 25.0555C20.7507 25.4655 20.9018 25.9619 21.1392 26.3935C21.5708 27.192 22.3046 27.8826 23.8368 27.8826C25.3475 27.8826 26.1028 27.192 26.5344 26.3935C26.7718 25.9619 26.9229 25.4655 27.0524 25.0555C27.0739 24.9476 27.1171 24.8613 27.1387 24.7749C27.484 23.6959 28.3472 23.0053 28.3472 23.0053C28.3904 22.9837 28.412 22.9406 28.4335 22.8974C28.5846 22.7679 28.7357 22.6384 28.8867 22.5089C29.0594 22.3147 29.2536 22.0557 29.4694 21.7752C29.901 21.1709 30.5269 20.3293 31.0448 20.3293C31.2175 20.3293 31.3685 20.1782 31.3685 20.0056ZM26.5128 24.5807C26.4913 24.667 26.4481 24.7749 26.4265 24.8613C26.3618 25.0555 26.297 25.2497 26.2323 25.4655C26.1244 25.8108 25.9733 26.113 25.7791 26.3935C25.4122 26.8899 24.8511 27.2352 23.8368 27.2352C22.8225 27.2352 22.2614 26.8899 21.8945 26.3935C21.7003 26.1345 21.5708 25.8324 21.4629 25.5303V25.5087C21.3982 25.2929 21.3334 25.0771 21.2687 24.8613C21.2471 24.7749 21.2039 24.667 21.1824 24.5807C21.0745 24.2138 20.9018 23.8901 20.7292 23.6311C21.0313 23.6959 21.3334 23.739 21.6356 23.739C21.8082 23.739 21.9809 23.7391 22.0888 23.7175C22.8009 23.6096 23.3836 23.2643 23.7936 22.7248C24.2037 23.2643 24.7864 23.6096 25.4985 23.7175C25.9733 23.7822 26.4913 23.7391 26.9876 23.6096C26.7934 23.8901 26.6207 24.2138 26.5128 24.5807Z" fill="#101010"/>
<path d="M29.1025 14.6535C29.1025 14.1355 28.6709 13.7039 28.1529 13.7039C27.635 13.7039 27.2034 14.1355 27.2034 14.6535C27.2034 15.1714 27.635 15.603 28.1529 15.603C28.6709 15.603 29.1025 15.1714 29.1025 14.6535Z" fill="#101010"/>
</g>
<mask id="mask0_2374_2957" style="mask-type:alpha" maskUnits="userSpaceOnUse" x="0" y="0" width="48" height="48">
<circle cx="24" cy="24" r="24" fill="#53C855"/>
</mask>
<g mask="url(#mask0_2374_2957)">
<circle cx="24" cy="24" r="24" fill="#53C855"/>
<path d="M43.1948 25.854C43.1732 25.4439 43.0221 25.0986 42.7847 24.7965C41.533 24.3649 40.2598 25.185 39.3102 27.2351C38.7059 28.5732 38.6196 30.1054 38.6628 31.2492C39.116 30.8392 39.6123 30.4723 40.0655 30.1054C41.1014 29.3069 42.0941 28.5732 42.7631 27.4509C42.979 27.0625 43.2595 26.4798 43.1948 25.854Z" fill="white"/>
<path d="M23.8153 44.284C23.6427 44.284 23.5132 44.4135 23.5132 44.5862C23.5132 44.7588 23.6427 44.8883 23.8153 44.8883C23.988 44.8883 24.1174 44.7588 24.1174 44.5862C24.1174 44.4135 23.988 44.284 23.8153 44.284Z" fill="white"/>
<path d="M35.3611 41.6944C33.7425 39.9247 32.6203 37.7019 32.1887 35.328C31.865 33.5368 32.1456 30.127 32.7067 27.7099C32.5124 27.8394 32.2966 27.9905 32.0808 28.0984C31.7139 28.3142 31.3255 28.4653 30.9586 28.5947C30.786 28.6379 30.6133 28.5516 30.5486 28.3789C30.527 28.3358 30.527 28.3142 30.527 28.271C30.527 28.1416 30.6133 28.0121 30.7644 27.9689C31.0881 27.861 31.4334 27.7099 31.7787 27.5373C32.1887 27.2999 32.5988 27.0193 32.9441 26.7172L32.9656 26.6956C32.9872 26.6741 33.0304 26.6525 33.052 26.6093C33.1383 26.5446 33.203 26.4582 33.2893 26.3935C33.3109 26.3719 33.3541 26.3288 33.3757 26.3072C33.4404 26.2424 33.5052 26.1561 33.5699 26.0914C33.9799 25.6382 34.3468 25.1418 34.6274 24.6239C34.9511 24.0196 35.1453 23.4153 35.21 22.8111C35.21 22.7895 35.21 22.7679 35.21 22.7463C35.2532 22.2284 35.2964 21.7968 35.6201 21.7104C35.7064 21.6889 35.9006 21.6457 36.0949 21.8831C36.1596 21.9478 36.2028 22.0342 36.2243 22.0989C36.2675 21.8615 36.3107 21.5162 36.2891 21.3867C36.2459 20.8472 36.1596 20.3077 35.9006 19.8761C35.8143 19.7466 35.728 19.6171 35.6417 19.4876C35.4474 19.2071 35.2316 18.9265 35.1237 18.5596C35.0374 18.2575 35.0806 17.9985 35.2532 17.8475C35.3395 17.7611 35.5338 17.6748 35.8143 17.7611C35.7064 17.3943 35.3827 16.7252 35.2532 16.531C34.9942 16.1426 34.6921 15.7757 34.3684 15.4304L34.131 15.1283C34.1094 15.1283 34.0663 15.1283 34.0447 15.1283C33.052 15.1067 31.7571 15.2793 30.7212 16.0994C29.4911 17.0705 28.4336 17.2864 27.592 17.1569C27.0956 17.0921 26.7072 16.8979 26.405 16.6821C25.585 16.121 24.7001 15.3657 23.8369 15.3657H23.8153C22.9521 15.3872 22.0889 16.121 21.2688 16.6821C20.9451 16.8979 20.535 17.0921 20.0387 17.1569C19.2186 17.2648 18.1611 17.049 16.9526 16.0994C15.8951 15.2577 14.5571 15.1067 13.586 15.1283C13.5644 15.1283 13.5428 15.1283 13.5212 15.1283L13.3054 15.4088C12.9817 15.7757 12.6796 16.1426 12.4206 16.531C12.0537 17.049 11.7516 17.6317 11.4926 18.2143C11.471 18.2791 11.4279 18.3654 11.3847 18.4517C11.2337 18.7754 10.8884 19.5092 10.9963 19.8113C11.0394 19.7897 11.0826 19.7682 11.1258 19.7682C11.1905 19.7466 11.2552 19.7034 11.32 19.7034C11.4926 19.6603 11.6869 19.7034 11.8163 19.8329C12.0321 20.0703 12.0106 20.4803 11.8163 20.9767C11.6869 21.2788 11.6221 21.732 11.6221 22.0989V22.1421C11.6221 22.1421 11.6221 22.1636 11.6221 22.1852C11.8379 22.0557 12.0537 21.9478 12.2695 22.0773C12.399 22.1421 12.4638 22.2715 12.4638 22.4226C12.4638 23.739 13.1328 25.0555 14.0823 26.0914C14.1255 26.1345 14.1687 26.1777 14.2118 26.2208C14.255 26.2856 14.3197 26.3288 14.3629 26.3935C15.1398 27.1704 16.0678 27.7531 16.9742 28.0337C17.0821 28.0552 17.1684 28.1631 17.19 28.271C17.2116 28.3358 17.2116 28.3789 17.19 28.4437C17.1037 28.5084 16.9742 28.5947 16.8447 28.5947C16.8231 28.5947 16.78 28.5948 16.7584 28.5732C15.8304 28.2926 14.8592 27.7099 14.0392 26.933C14.3629 27.451 14.6003 28.0121 14.8161 28.53C15.6146 30.6881 15.852 33.062 15.4419 35.328C15.0103 37.7019 13.8881 39.9247 12.2695 41.6944C11.6437 42.385 10.8668 42.9676 10.0251 43.4208C9.85247 43.5072 9.70141 43.6151 9.52876 43.7014C8.96766 45.3415 8.66553 47.1112 8.66553 48.8376C8.66553 48.8592 8.66553 48.8592 8.66553 48.8808H39.0083C39.0083 47.327 38.7493 45.5142 38.2745 43.7877C37.1955 43.2482 36.1596 42.5576 35.3611 41.6944ZM20.6214 25.0555C20.5998 24.9692 20.5566 24.8613 20.535 24.7749C20.2329 23.847 19.5855 23.2211 19.3912 23.0485C19.1538 22.8974 18.9165 22.7032 18.7007 22.5089C18.528 22.3147 18.3338 22.0557 18.118 21.7752C17.6648 21.1709 17.0605 20.3293 16.5426 20.3293C16.3699 20.3293 16.2188 20.1782 16.2188 20.0055C16.2188 19.8329 16.3699 19.6818 16.5426 19.6818C17.4058 19.6818 18.0964 20.6314 18.6359 21.3867C18.8301 21.6457 19.0028 21.9047 19.1538 22.0557C19.2833 22.1852 19.456 22.3147 19.607 22.4442C19.6502 22.4658 19.6718 22.4658 19.715 22.4874C19.715 22.4874 19.7581 22.5305 19.8229 22.5737C20.4919 22.9837 21.3119 23.1779 22.0025 23.07C22.4126 23.0053 22.9737 22.8111 23.3621 22.2284C22.8226 21.9047 21.7004 21.1493 21.5062 20.1998C21.3767 19.5739 21.5062 18.9697 21.873 18.4949C22.3047 17.9554 22.9953 17.6532 23.8153 17.6532C24.6354 17.6532 25.326 17.9554 25.7576 18.4949C26.1461 18.9697 26.2756 19.5739 26.1245 20.1998C25.9087 21.1493 24.7649 21.9262 24.2469 22.25C24.6354 22.8111 25.1749 23.0269 25.585 23.07C26.5345 23.2211 27.7215 22.8111 28.4336 22.0557C28.5847 21.9047 28.7574 21.6457 28.9516 21.3867C29.5127 20.6314 30.2033 19.6818 31.0449 19.6818C31.2176 19.6818 31.3686 19.8329 31.3686 20.0055C31.3686 20.1782 31.2176 20.3293 31.0449 20.3293C30.527 20.3293 29.9011 21.1709 29.4695 21.7752C29.2537 22.0557 29.0595 22.3147 28.8868 22.5089C28.7574 22.66 28.6063 22.7895 28.4336 22.8974C28.4121 22.9406 28.3905 22.9837 28.3473 23.0053C28.3473 23.0053 27.4841 23.6959 27.1388 24.7749C27.1172 24.8613 27.074 24.9476 27.0525 25.0555C26.923 25.4655 26.7719 25.9619 26.5345 26.3935C26.1029 27.192 25.3476 27.8826 23.8369 27.8826C22.3047 27.8826 21.5709 27.192 21.1393 26.3935C20.9019 25.9619 20.7508 25.4655 20.6214 25.0555ZM23.8153 45.5358C23.2974 45.5358 22.8658 45.1042 22.8658 44.5862C22.8658 44.0683 23.2974 43.6367 23.8153 43.6367C24.3333 43.6367 24.7649 44.0683 24.7649 44.5862C24.7649 45.1042 24.3548 45.5358 23.8153 45.5358Z" fill="white"/>
<path d="M10.1976 37.0544C10.3703 36.8818 10.5214 36.7091 10.694 36.5581C10.7803 36.4718 10.9098 36.3423 11.0825 36.2559C11.104 36.1049 11.104 35.9322 11.104 35.7812C11.1256 34.8532 10.8667 33.9684 10.1329 33.3425C9.74444 33.0188 9.29124 32.7814 8.79488 32.6088C7.52161 33.7094 6.16201 34.9611 5.75198 36.407C5.53617 37.1623 5.66565 37.9608 6.11885 38.4572C6.48573 38.8457 7.00367 38.9967 7.65109 38.8672C8.64382 38.6514 9.42073 37.8314 10.1976 37.0544Z" fill="white"/>
<path d="M14.2118 12.1501C14.3197 12.1501 14.4061 12.1285 14.514 12.1069C14.4708 11.999 14.4924 11.8696 14.5571 11.7832C14.5787 11.7401 14.6219 11.6969 14.665 11.6753C15.593 11.2437 16.7152 10.3805 17.0605 9.38775C17.1468 9.15036 17.1468 8.91297 17.0821 8.63241C16.9094 7.89866 16.2404 7.12176 15.8304 6.66856C15.0535 5.76216 14.2118 4.89892 13.327 4.122C13.2623 4.05726 13.1759 3.99252 13.1112 3.9062C12.6796 3.47458 12.1832 3.06454 11.7948 2.97822C11.6437 2.95664 11.5142 2.95664 11.4063 3.06454C11.3416 3.1077 11.2552 3.12928 11.1905 3.12928C11.1258 3.12928 11.061 3.1077 11.0178 3.06454C10.4999 3.94936 11.0394 5.99954 11.1473 6.79804C11.3416 8.13605 12.1832 12.3012 14.2118 12.1501Z" fill="white"/>
<path d="M32.7498 11.6537C32.7929 11.6753 32.8145 11.6969 32.8577 11.7184C32.944 11.8048 32.9656 11.9558 32.9008 12.0853C32.9008 12.0853 32.9008 12.0853 32.9008 12.1069C35.1668 12.7543 36.0948 8.22233 36.289 6.79799C36.3969 5.9995 36.9581 3.92773 36.4185 3.04291C36.3106 3.15082 36.1164 3.15082 36.0085 3.04291C35.5985 2.7192 34.9079 3.30188 34.3036 3.88457C34.2173 3.97089 34.1525 4.03563 34.0878 4.10038C33.2246 4.87729 32.3829 5.74053 31.5844 6.64693C31.1959 7.10013 30.5269 7.87704 30.3327 8.61079C30.2896 8.76186 30.2896 8.89134 30.2896 9.02083C30.2896 9.15032 30.3111 9.25822 30.3543 9.36613C30.6996 10.3588 31.8002 11.2221 32.7498 11.6537Z" fill="white"/>
<path d="M23.8369 27.2351C24.8296 27.2351 25.4123 26.8898 25.7792 26.3935C25.9734 26.1129 26.1245 25.7892 26.2324 25.4655C25.5849 25.9834 24.8944 26.3287 24.1606 26.3935C24.0311 26.415 23.9232 26.415 23.7937 26.415C23.6642 26.415 23.5563 26.415 23.4484 26.3935C23.0168 26.3503 22.5852 26.1992 22.1752 25.9834C21.9378 25.8539 21.6788 25.7029 21.4414 25.5302C21.5493 25.8539 21.7004 26.1345 21.873 26.3935C22.2615 26.8898 22.8442 27.2351 23.8369 27.2351Z" fill="white"/>
<path d="M25.4769 23.7175C24.7647 23.6096 24.182 23.2643 23.772 22.7247C23.362 23.2643 22.7793 23.6096 22.0671 23.7175C21.9592 23.739 21.7866 23.739 21.6139 23.739C21.3118 23.739 21.0097 23.6959 20.7075 23.6311C20.8802 23.9117 21.0312 24.2354 21.1607 24.5807C21.1823 24.667 21.2255 24.7749 21.247 24.8613C21.3118 25.0771 21.3765 25.2929 21.4413 25.5087C21.6787 25.7029 21.9161 25.854 22.175 26.005C22.5851 26.2208 23.0167 26.3503 23.4483 26.4151H24.1605C24.8942 26.3288 25.5848 26.005 26.2322 25.4871C26.297 25.2929 26.3617 25.0986 26.4265 24.8828C26.448 24.7965 26.4912 24.6886 26.5128 24.6023C26.6207 24.2354 26.7933 23.9117 26.966 23.6311C26.4696 23.739 25.9517 23.7822 25.4769 23.7175Z" fill="#F58F90"/>
<path d="M42.2669 24.3864C41.7058 24.0843 41.0152 24.0843 40.4109 24.3864C40.1951 24.5159 39.9793 24.667 39.7635 24.818C39.5045 25.0338 39.2456 25.2712 38.9866 25.5086C38.4686 26.005 37.9291 26.5229 37.2385 26.8251C35.6847 27.5588 34.3251 27.0624 33.7856 26.8035C33.5698 27.0193 33.3324 27.2135 33.095 27.4077C32.9655 27.4941 32.8576 27.5804 32.7281 27.6883C32.1886 30.1054 31.8865 33.5151 32.2102 35.3279C32.6418 37.6803 33.764 39.9247 35.3826 41.6943C36.1595 42.536 37.1738 43.205 38.2528 43.7445C38.037 42.9676 37.7996 42.2122 37.4975 41.5217C37.4328 41.3274 37.3464 41.1548 37.2817 40.9821C37.2385 40.8526 37.1738 40.7232 37.1306 40.5937C37.109 40.5505 37.109 40.5073 37.0875 40.4642C37.0227 40.3131 36.9796 40.1836 36.9364 40.0326C36.9364 40.011 36.9148 39.9894 36.9148 39.9678C36.8716 39.8168 36.8069 39.6657 36.7637 39.5362C36.7637 39.5146 36.7637 39.5146 36.7422 39.493C36.699 39.342 36.6558 39.1909 36.6127 39.0399V39.0183C36.5695 38.8672 36.5264 38.7161 36.5048 38.5651V38.5435C36.4616 38.3924 36.44 38.2414 36.4185 38.0903C36.3753 37.8313 36.3321 37.5723 36.289 37.2918C36.2674 37.0544 36.2458 36.7954 36.2458 36.5365C36.2458 36.3854 36.2458 36.2343 36.2458 36.0833C36.2458 36.0833 36.2458 36.0833 36.2458 36.0617C36.2458 35.9106 36.2458 35.738 36.2674 35.5869C36.2674 35.5006 36.289 35.4143 36.289 35.3279C36.289 35.2848 36.289 35.2632 36.3105 35.22C36.3105 35.1769 36.3321 35.1121 36.3321 35.069C36.3321 35.0258 36.3537 34.9826 36.3537 34.9395C36.3537 34.8963 36.3753 34.8532 36.3753 34.81C36.3969 34.7668 36.3969 34.7021 36.4185 34.6589C36.4185 34.6158 36.44 34.5942 36.44 34.551C36.4616 34.4863 36.4832 34.4431 36.4832 34.3784C36.4832 34.3568 36.5048 34.3352 36.5048 34.292C36.5264 34.2273 36.5479 34.1626 36.5695 34.1194C36.5695 34.0978 36.5911 34.0762 36.5911 34.0547C36.6127 33.9899 36.6343 33.9252 36.6774 33.8604C36.6774 33.8389 36.699 33.8173 36.699 33.8173C36.7206 33.7525 36.7637 33.6878 36.7853 33.623C36.7853 33.6015 36.8069 33.6015 36.8069 33.5799C36.8501 33.5151 36.8716 33.4504 36.9148 33.3641C36.9148 33.3425 36.9364 33.3425 36.9364 33.3209C36.9796 33.2562 37.0227 33.1698 37.0659 33.1051C37.0659 33.1051 37.0659 33.0835 37.0875 33.0835C37.1306 33.0188 37.1738 32.9325 37.2169 32.8677C37.2169 32.8677 37.2169 32.8461 37.2385 32.8461C37.2817 32.7814 37.3464 32.6951 37.3896 32.6303C37.3896 32.6303 37.3896 32.6303 37.3896 32.6087C37.4543 32.544 37.4975 32.4577 37.5622 32.3929C37.627 32.3066 37.6917 32.2419 37.7565 32.1555C37.8212 32.0692 37.886 32.0045 37.9723 31.9181C38.037 31.8318 38.1233 31.7671 38.1881 31.6808C38.2312 31.6376 38.2528 31.5944 38.296 31.5729C38.3823 31.4865 38.4686 31.4218 38.555 31.3355C38.5981 31.3139 38.6197 31.2707 38.6629 31.2491C38.6197 30.1269 38.6844 28.5947 39.3103 27.2135C40.2383 25.1849 41.49 24.3648 42.7201 24.7533C42.5906 24.6022 42.4395 24.4943 42.2669 24.3864Z" fill="#F9AE5F"/>
<path d="M14.039 26.933C14.0174 26.9114 14.0174 26.933 14.0174 26.933C13.0247 28.7242 11.5572 30.1054 9.91703 31.6161C9.63648 31.8534 9.35593 32.1124 9.05379 32.3714C8.96747 32.4361 8.90273 32.5009 8.81641 32.5656C9.29119 32.7383 9.74438 32.9757 10.1328 33.2994C10.8882 33.9252 11.1256 34.8316 11.104 35.7596C11.104 35.9107 11.0824 36.0833 11.0824 36.2344C11.2766 36.1265 11.5356 36.0401 11.8162 36.1265C12.1399 36.2344 12.3557 36.5797 12.3557 36.9465C12.3557 37.2271 12.2478 37.4645 12.1399 37.7019C11.9025 38.2198 11.6651 38.7162 11.4493 39.2125C10.9098 40.3563 10.4134 41.457 9.87387 42.7086C9.74438 43.0108 9.63648 43.3345 9.50699 43.6582C9.67964 43.5719 9.83071 43.4856 10.0034 43.3992C10.845 42.946 11.6219 42.3633 12.2478 41.6728C13.8663 39.9031 14.9885 37.6803 15.4202 35.3064C15.8302 33.0404 15.5928 30.6665 14.7943 28.5084C14.6217 28.012 14.3627 27.4509 14.039 26.933Z" fill="#F9AE5F"/>
<path d="M34.0447 15.1282C34.0663 15.1282 34.1094 15.1282 34.131 15.1282L34.0231 15.0203C33.9584 14.9555 33.9368 14.8476 33.9584 14.7613C33.9799 14.675 34.0231 14.5887 34.1094 14.5455C34.8432 14.1355 37.5192 11.071 37.8861 6.02105L37.9077 5.82681C37.9724 4.87725 38.0587 3.90612 38.0372 2.95656V2.82707C38.0372 2.24438 38.0371 1.42431 37.6703 1.05744C36.6128 -2.74777e-05 34.5195 1.7696 33.6131 2.50335C32.275 3.62556 31.0234 5.00674 29.7717 6.71163C28.5847 8.3302 27.4625 8.37337 26.4266 8.28704C25.9734 8.24388 25.4986 8.17914 25.067 8.13597C24.5491 8.07123 24.0743 8.00649 23.8153 8.00649C23.5564 8.00649 23.0816 8.07123 22.5636 8.13597C22.132 8.20072 21.6572 8.24388 21.204 8.28704C20.1682 8.37337 19.0459 8.3302 17.859 6.71163C16.6073 4.98516 15.3556 3.62556 14.0176 2.50335C13.1112 1.74802 10.9963 -0.0216097 9.96038 1.03586C9.59351 1.40273 9.59351 2.2228 9.59351 2.80549V2.93497C9.59351 3.88453 9.65825 4.87726 9.72299 5.80524L9.74457 5.99946C10.1115 11.0494 12.7875 14.1139 13.5212 14.5239C13.6076 14.5671 13.6507 14.6534 13.6723 14.7397C13.6939 14.8261 13.6723 14.934 13.6076 14.9987L13.4997 15.1282C13.5212 15.1282 13.5428 15.1282 13.5644 15.1282C14.5571 15.085 15.8736 15.2361 16.931 16.0993C18.1395 17.0489 19.1754 17.2647 20.0171 17.1568C20.5134 17.0921 20.9019 16.8978 21.204 16.682C22.0241 16.1209 22.9089 15.3656 23.7722 15.3656H23.7937H23.8153C24.6786 15.3656 25.5634 16.1209 26.3835 16.682C26.6856 16.8978 27.0956 17.0705 27.5704 17.1568C28.3905 17.2647 29.4479 17.0489 30.6565 16.0993C31.7355 15.2577 33.0735 15.1066 34.0447 15.1282ZM17.6432 9.64664C17.2331 10.812 15.9815 11.8263 14.9024 12.3011C14.9024 12.3011 14.8593 12.3011 14.8161 12.3011C14.7082 12.3011 14.6003 12.2579 14.5355 12.15C14.5355 12.1284 14.514 12.1284 14.514 12.1069C14.406 12.1284 14.3197 12.15 14.2118 12.15C12.1832 12.3011 11.3416 8.13597 11.1473 6.79796C11.0394 5.99946 10.4999 3.94928 11.0178 3.06446C10.9963 3.04288 10.9747 3.04288 10.9531 3.0213C10.9315 2.99971 10.9315 2.97814 10.9315 2.95656C10.8668 2.82707 10.8884 2.65443 10.9963 2.5681C11.2337 2.37387 11.5142 2.30913 11.7732 2.35229C12.4422 2.41703 13.1328 3.06446 13.5428 3.45291C13.6291 3.51766 13.6939 3.5824 13.7586 3.64715C14.665 4.44564 15.5067 5.30887 16.3052 6.25843C16.7368 6.75479 17.4705 7.61803 17.6863 8.50285C17.7943 8.91289 17.7727 9.27976 17.6432 9.64664ZM19.4991 15.603C18.9812 15.603 18.5496 15.1714 18.5496 14.6534C18.5496 14.1355 18.9812 13.7038 19.4991 13.7038C20.0171 13.7038 20.4487 14.1355 20.4487 14.6534C20.4487 15.1714 20.0387 15.603 19.4991 15.603ZM28.1531 15.603C27.6351 15.603 27.2035 15.1714 27.2035 14.6534C27.2035 14.1355 27.6351 13.7038 28.1531 13.7038C28.671 13.7038 29.1027 14.1355 29.1027 14.6534C29.1027 15.1714 28.671 15.603 28.1531 15.603ZM32.9009 12.1069C32.8577 12.2363 32.7282 12.3011 32.6203 12.3011C32.5772 12.3011 32.534 12.3011 32.4909 12.2795C32.3829 12.2364 32.275 12.1716 32.1671 12.1284C32.1456 12.1069 32.1024 12.0853 32.0808 12.0853C31.9945 12.0421 31.9298 11.999 31.8434 11.9342C31.8218 11.9126 31.7787 11.8911 31.7571 11.8695C31.6492 11.8047 31.5413 11.7184 31.4334 11.6537C31.3255 11.5673 31.196 11.481 31.0881 11.3731C30.7644 11.0926 30.4622 10.7904 30.2249 10.4667C30.1817 10.402 30.1385 10.3372 30.0954 10.2725C30.0306 10.1862 29.9875 10.0998 29.9443 9.99193C29.9227 9.97035 29.9227 9.94877 29.9011 9.92719C29.858 9.84086 29.8148 9.73296 29.7717 9.64664C29.7285 9.56031 29.7069 9.47399 29.7069 9.38766C29.6638 9.21502 29.6638 9.02079 29.6853 8.80498C29.6853 8.69708 29.7069 8.61076 29.7285 8.50285C29.7501 8.39495 29.7932 8.28704 29.8364 8.17914C29.8796 8.07123 29.9227 7.96333 29.9875 7.85542C30.0954 7.63962 30.2249 7.44538 30.3543 7.25116C30.4622 7.10009 30.5486 6.9706 30.6565 6.84112C30.7644 6.71163 30.8507 6.58215 30.9586 6.47424C31.0234 6.4095 31.0881 6.32317 31.1313 6.25843C31.3255 6.02104 31.5413 5.80524 31.7355 5.56785C32.0377 5.22255 32.3614 4.89884 32.6851 4.57512C33.0088 4.25141 33.3325 3.94928 33.6778 3.64715C33.7425 3.5824 33.8073 3.51766 33.8936 3.45291C33.9584 3.38817 34.0447 3.30185 34.131 3.21553C34.2173 3.1292 34.3036 3.04288 34.4116 2.97814C34.4547 2.93498 34.5195 2.89181 34.5626 2.84865C34.6705 2.76233 34.7784 2.69758 34.8863 2.63284C34.9942 2.5681 35.1021 2.50336 35.2316 2.4602C35.2964 2.43862 35.3395 2.41703 35.4043 2.39545C35.5122 2.35229 35.6417 2.33071 35.7496 2.33071C35.8575 2.33071 35.987 2.35229 36.0949 2.37387C36.1596 2.39545 36.2028 2.41703 36.2675 2.43861C36.3323 2.4602 36.3754 2.50336 36.4402 2.54652C36.4617 2.5681 36.4833 2.58968 36.5049 2.58968C36.6128 2.69758 36.6128 2.87023 36.4833 2.99972C36.4617 3.0213 36.4617 3.04288 36.4402 3.04288C36.9797 3.90611 36.4402 5.97788 36.3107 6.79796C36.0733 8.20071 35.1453 12.7543 32.9009 12.1069Z" fill="#F9AE5F"/>
<path d="M43.8854 25.8108C43.8206 24.9476 43.3459 24.2354 42.6121 23.8254C41.8568 23.4153 40.9288 23.4153 40.1519 23.8254C39.5476 24.1491 39.0513 24.6023 38.5765 25.0555C38.0801 25.5303 37.6053 25.9835 37.0011 26.264C35.8141 26.8035 34.7782 26.523 34.2603 26.3072C34.6272 25.8756 34.9509 25.4223 35.2099 24.926C35.5767 24.2354 35.7925 23.5664 35.8789 22.8758C35.8789 22.8542 35.8789 22.8111 35.8789 22.7679C35.8789 22.7247 35.8789 22.7032 35.8789 22.6816C35.9868 22.7895 36.1162 22.8758 36.3321 22.8758C36.44 22.8758 36.5694 22.8111 36.6558 22.7247C36.9795 22.3794 36.9795 21.3867 36.9795 21.2788C36.9147 20.6961 36.8284 20.0487 36.5047 19.5092C36.4184 19.3581 36.3105 19.2071 36.2026 19.0776C36.0299 18.8402 35.8789 18.6244 35.7925 18.387C36.1378 18.5165 36.3105 18.387 36.3968 18.2791C36.8284 17.7611 35.8141 16.1426 35.8141 16.121C35.5336 15.7109 35.2099 15.3009 34.8861 14.9556L34.7782 14.8261C35.9004 13.8981 38.2312 10.7689 38.5765 5.99953L38.5981 5.8053C38.6628 4.85574 38.7275 3.86302 38.7275 2.89188V2.76239C38.7275 2.0718 38.7275 1.10066 38.1664 0.539556C36.6989 -0.927946 34.2819 1.07908 33.2244 1.9639C31.8432 3.10769 30.57 4.51045 29.2751 6.28008C28.2824 7.63968 27.4839 7.68284 26.5127 7.59652C26.0811 7.55335 25.5848 7.51019 25.1747 7.44545C24.6136 7.3807 24.1388 7.31597 23.8367 7.31597C23.5346 7.31597 23.0598 7.3807 22.4987 7.44545C22.0887 7.48861 21.5923 7.55335 21.1607 7.59652C20.2111 7.68284 19.391 7.63968 18.3983 6.28008C17.125 4.51045 15.8302 3.0861 14.449 1.94232C13.4131 1.07908 10.9961 -0.949522 9.52857 0.51798C8.96746 1.07908 8.96746 2.05022 8.96746 2.74081V2.8703C8.94588 3.86302 9.03221 4.85574 9.09695 5.8053L9.11853 5.99953C9.46382 10.7689 11.7946 13.8981 12.9168 14.8261L12.8089 14.9556C12.4852 15.3225 12.1614 15.7325 11.8809 16.1426C11.4924 16.7037 11.1687 17.3079 10.8882 17.9338C10.845 17.9985 10.8234 18.0633 10.7803 18.1496C10.5213 18.7107 10.1328 19.5739 10.435 20.1134C10.6724 20.5666 11.0824 20.4372 11.2982 20.3508C11.2766 20.4372 11.255 20.5451 11.1903 20.6961C11.0176 21.0846 10.9313 21.6241 10.9529 22.0773V22.1205C10.9745 22.2931 10.9745 22.6816 11.3198 22.8326C11.4924 22.8974 11.6435 22.8326 11.8161 22.7463C11.924 24.0843 12.6146 25.3792 13.5426 26.4367C12.6146 28.2279 11.1471 29.6522 9.4854 31.1629C9.20485 31.4003 8.9243 31.6592 8.62216 31.9182C7.21941 33.1267 5.644 34.5079 5.12606 36.2344C4.84551 37.2055 5.03973 38.263 5.644 38.9104C6.16194 39.4715 6.91727 39.6873 7.78051 39.5147C8.96746 39.2773 9.8307 38.3925 10.6508 37.5508C10.8234 37.3782 10.9745 37.2055 11.1471 37.0545C11.4277 36.7955 11.5572 36.7739 11.6003 36.7955C11.6651 36.8171 11.7082 36.9034 11.7082 37.0113C11.7082 37.1624 11.6435 37.335 11.5572 37.5077C11.3198 38.0256 11.0824 38.522 10.8666 39.0183C10.3271 40.1837 9.8307 41.2627 9.29117 42.536C8.44952 44.5215 8.0179 46.7011 8.0179 48.8808C8.0179 49.0534 8.16897 49.2045 8.34162 49.2045C8.49268 49.2045 8.64375 49.075 8.64375 48.8808C8.64375 48.8592 8.64375 48.8592 8.64375 48.8376C8.64375 47.0896 8.94588 45.32 9.50698 43.7014C9.50698 43.7014 9.50698 43.7014 9.50698 43.6798C9.61489 43.3561 9.74437 43.054 9.87386 42.7302C10.4134 41.4785 10.9097 40.3779 11.4493 39.2341C11.6651 38.7378 11.9025 38.2414 12.1399 37.7235C12.2478 37.4861 12.3557 37.2487 12.3557 36.9681C12.3557 36.6013 12.1399 36.256 11.8161 36.1481C11.5356 36.0617 11.2766 36.1265 11.0824 36.256C10.9097 36.3639 10.7803 36.4934 10.6939 36.5581C10.5213 36.7092 10.3702 36.8818 10.1976 37.0545C9.42066 37.8314 8.64375 38.6514 7.65102 38.8457C7.0036 38.9752 6.48566 38.8241 6.11878 38.4356C5.66558 37.9393 5.5361 37.1408 5.7519 36.3855C6.18352 34.9179 7.54312 33.6878 8.79481 32.5872C8.79481 32.5872 8.79481 32.5872 8.8164 32.5656C8.90272 32.5009 8.96746 32.4361 9.05378 32.3714C9.35592 32.1124 9.63647 31.8535 9.91702 31.6161C11.5572 30.1054 13.0247 28.7242 14.0174 26.933C14.0174 26.933 14.0174 26.9114 14.039 26.9114L14.0606 26.933C14.8806 27.6883 15.8302 28.271 16.7798 28.5732C16.8013 28.5947 16.8445 28.5947 16.8661 28.5947C16.9956 28.5947 17.125 28.5084 17.2114 28.4437C17.2329 28.3789 17.2329 28.3358 17.2114 28.271C17.1898 28.1631 17.1035 28.0552 16.9956 28.0336C16.1107 27.7531 15.1828 27.1704 14.3843 26.3935C14.3195 26.3503 14.2764 26.2856 14.2332 26.2208C14.19 26.1777 14.1469 26.1345 14.1037 26.0914C13.1542 25.0555 12.4852 23.739 12.4852 22.4226C12.4852 22.2715 12.4204 22.1421 12.2909 22.0773C12.0751 21.9478 11.8593 22.0557 11.6435 22.1852C11.6435 22.1636 11.6435 22.142 11.6435 22.142V22.0989C11.6435 21.732 11.7082 21.2788 11.8377 20.9767C12.032 20.4803 12.0535 20.0703 11.8377 19.8329C11.7082 19.7034 11.514 19.6602 11.3414 19.7034C11.2766 19.7034 11.2119 19.7466 11.1471 19.7682C11.104 19.7682 11.0608 19.7897 11.0176 19.8113C10.9097 19.5092 11.255 18.7754 11.4061 18.4517C11.4493 18.3654 11.4924 18.2791 11.514 18.2143C11.773 17.6316 12.0751 17.049 12.442 16.531C12.701 16.1426 13.0031 15.7757 13.3268 15.4088L13.5426 15.1283L13.6505 14.9988C13.7153 14.934 13.7368 14.8261 13.7153 14.7398C13.6937 14.6535 13.6505 14.5672 13.5642 14.524C12.8304 14.114 10.1544 11.0495 9.78754 5.99953L9.76595 5.8053C9.70121 4.87732 9.63647 3.8846 9.63647 2.93504V2.80555C9.63647 2.22287 9.63647 1.4028 10.0033 1.03592C11.0392 -0.0215438 13.1542 1.74809 14.0606 2.50342C15.3986 3.62563 16.6503 4.98522 17.902 6.7117C19.0889 8.33027 20.2111 8.37343 21.247 8.28711C21.7002 8.24395 22.175 8.20078 22.6066 8.13604C23.1245 8.0713 23.5993 8.00655 23.8583 8.00655C24.1173 8.00655 24.592 8.0713 25.11 8.13604C25.5416 8.1792 26.0164 8.24395 26.4696 8.28711C27.5055 8.37343 28.6277 8.33027 29.8146 6.7117C31.0663 5.00681 32.318 3.62563 33.656 2.50342C34.5624 1.76967 36.6558 3.83839e-05 37.7132 1.0575C38.0801 1.42438 38.0801 2.24445 38.0801 2.82713V2.95662C38.1017 3.90618 38.0154 4.87732 37.9506 5.82688L37.9291 6.02111C37.5622 11.071 34.8861 14.1355 34.1524 14.5456C34.0661 14.5887 34.0229 14.6751 34.0013 14.7614C33.9797 14.8477 34.0013 14.9556 34.0661 15.0203L34.174 15.1283L34.4114 15.4304C34.7351 15.7757 35.0372 16.1426 35.2962 16.531C35.4257 16.7252 35.7494 17.3943 35.8573 17.7611C35.5767 17.6748 35.3825 17.7611 35.2962 17.8475C35.1235 17.9985 35.0804 18.2575 35.1667 18.5596C35.2746 18.9265 35.4904 19.207 35.6846 19.4876C35.771 19.6171 35.8573 19.7466 35.9436 19.8761C36.2026 20.3077 36.2889 20.8472 36.3321 21.3867C36.3536 21.5162 36.3105 21.8615 36.2673 22.0989C36.2457 22.0341 36.2026 21.9478 36.1378 21.8831C35.9436 21.6457 35.7494 21.6889 35.6631 21.7104C35.3393 21.7968 35.2962 22.2284 35.253 22.7463C35.253 22.7679 35.253 22.7895 35.253 22.8111C35.1883 23.4153 34.994 24.0196 34.6703 24.6239C34.3898 25.1634 34.0229 25.6382 33.6129 26.0914C33.5481 26.1561 33.4834 26.2424 33.4186 26.3072C33.3971 26.3288 33.3539 26.3719 33.3323 26.3935C33.246 26.4582 33.1812 26.5446 33.0949 26.6093C33.0733 26.6309 33.0302 26.674 33.0086 26.6956L32.987 26.7172C32.6201 27.0193 32.2317 27.2999 31.8216 27.5373C31.4764 27.7099 31.1311 27.861 30.8073 27.9689C30.6779 28.0121 30.57 28.1415 30.57 28.271C30.57 28.3142 30.57 28.3358 30.5915 28.3789C30.6563 28.5516 30.8289 28.6379 31.0016 28.5947C31.3684 28.4653 31.7569 28.3142 32.1238 28.0984C32.3396 27.9905 32.5338 27.8394 32.7496 27.7099L32.7712 27.6883C32.9007 27.602 33.0302 27.5157 33.1381 27.4078C33.3755 27.2136 33.6129 27.0193 33.8287 26.8035C34.3682 27.0625 35.7278 27.5589 37.2816 26.8251C37.9722 26.523 38.5117 26.005 39.0297 25.5087C39.2886 25.2497 39.5476 25.0123 39.8066 24.8181C40.0224 24.6454 40.2166 24.4944 40.454 24.3865C41.0583 24.0843 41.7489 24.0843 42.31 24.3865C42.4826 24.4944 42.6337 24.6023 42.7632 24.7533C42.7848 24.7749 42.8063 24.7965 42.8063 24.7965C43.0437 25.0771 43.1948 25.4439 43.2164 25.854C43.2811 26.4798 43.0006 27.0625 42.7848 27.451C42.1157 28.5732 41.123 29.3069 40.0871 30.1054C39.6339 30.4723 39.1376 30.8392 38.6844 31.2492C38.6412 31.2708 38.6196 31.3139 38.5765 31.3355C38.4902 31.4218 38.4038 31.4866 38.3175 31.5729C38.2743 31.6161 38.2528 31.6592 38.2096 31.6808C38.1233 31.7671 38.0585 31.8319 37.9938 31.9182C37.929 32.0045 37.8643 32.0693 37.778 32.1556C37.7132 32.2419 37.6485 32.3067 37.5838 32.393C37.519 32.4577 37.4758 32.544 37.4111 32.6088C37.4111 32.6088 37.4111 32.6088 37.4111 32.6304C37.3679 32.6951 37.3032 32.7814 37.26 32.8462C37.26 32.8462 37.26 32.8678 37.2385 32.8678C37.1953 32.9325 37.1521 33.0188 37.109 33.0836C37.109 33.0836 37.109 33.1052 37.0874 33.1052C37.0442 33.1699 37.0011 33.2562 36.9579 33.321C36.9579 33.3425 36.9363 33.3425 36.9363 33.3641C36.8932 33.4289 36.8716 33.4936 36.8284 33.5799C36.8284 33.6015 36.8068 33.6015 36.8068 33.6231C36.7853 33.6878 36.7421 33.7526 36.7205 33.8173C36.7205 33.8389 36.6989 33.8605 36.6989 33.8605C36.6774 33.9252 36.6558 33.99 36.6126 34.0547C36.6126 34.0763 36.591 34.0979 36.591 34.1195C36.5694 34.1842 36.5479 34.2489 36.5263 34.2921C36.5263 34.3137 36.5047 34.3353 36.5047 34.3784C36.4831 34.4432 36.4615 34.4863 36.4615 34.5511C36.4615 34.5942 36.44 34.6158 36.44 34.659C36.4184 34.7021 36.4184 34.7669 36.3968 34.81C36.3968 34.8532 36.3752 34.8964 36.3752 34.9395C36.3752 34.9827 36.3536 35.0259 36.3536 35.069C36.3536 35.1122 36.3321 35.1769 36.3321 35.2201C36.3321 35.2632 36.3105 35.2848 36.3105 35.328C36.3105 35.4143 36.2889 35.5006 36.2889 35.587C36.2673 35.7596 36.2673 35.9107 36.2673 36.0617C36.2673 36.0617 36.2673 36.0617 36.2673 36.0833C36.2673 36.2344 36.2673 36.3855 36.2673 36.5365C36.2673 36.7955 36.2889 37.0545 36.3105 37.2919C36.3321 37.5724 36.3752 37.8314 36.44 38.0903C36.4615 38.2414 36.5047 38.3925 36.5263 38.5435V38.5651C36.5695 38.7162 36.591 38.8673 36.6342 39.0183V39.0399C36.6774 39.191 36.7205 39.342 36.7637 39.4931C36.7637 39.5147 36.7637 39.5147 36.7853 39.5363C36.8284 39.6873 36.8716 39.8168 36.9363 39.9679C36.9363 39.9895 36.9579 40.011 36.9579 40.0326C37.0011 40.1837 37.0658 40.3132 37.109 40.4642C37.1306 40.5074 37.1306 40.5506 37.1521 40.5937C37.1953 40.7232 37.26 40.8527 37.3032 40.9822C37.3679 41.1548 37.4543 41.3491 37.519 41.5217C37.7996 42.2339 38.0585 42.9892 38.2743 43.7445V43.7661C38.7491 45.4926 39.0081 47.327 39.0081 48.8592C39.0081 49.0319 39.1592 49.1829 39.3318 49.1829C39.5045 49.1829 39.6555 49.0319 39.7203 48.8376C39.7203 46.4853 39.1376 43.6366 38.188 41.2412C37.3248 39.1262 36.8284 37.6803 36.9795 35.587C37.0874 34.2705 37.6485 33.1699 38.8354 32.0045C39.3534 31.4866 39.9576 31.0334 40.5403 30.5802C41.5762 29.8033 42.6553 28.9832 43.389 27.7531C43.7559 27.1272 43.9285 26.4367 43.8854 25.8108Z" fill="#101010"/>
<path d="M23.8153 43.6367C23.2973 43.6367 22.8657 44.0683 22.8657 44.5862C22.8657 45.1042 23.2973 45.5358 23.8153 45.5358C24.3548 45.5358 24.7648 45.1042 24.7648 44.5862C24.7648 44.0683 24.3332 43.6367 23.8153 43.6367ZM23.8153 44.8884C23.6426 44.8884 23.5132 44.7589 23.5132 44.5862C23.5132 44.4136 23.6426 44.2841 23.8153 44.2841C23.9879 44.2841 24.1174 44.4136 24.1174 44.5862C24.1174 44.7589 23.9879 44.8884 23.8153 44.8884Z" fill="#101010"/>
<path d="M14.6647 11.6753C14.6215 11.6969 14.5784 11.7401 14.5568 11.7832C14.492 11.8695 14.4705 11.9774 14.5136 12.1069C14.5136 12.1285 14.5352 12.1285 14.5352 12.1501C14.5999 12.258 14.6863 12.3012 14.8158 12.3012C14.8589 12.3012 14.9021 12.3012 14.9021 12.3012C15.9811 11.8264 17.2328 10.8121 17.6429 9.64671C17.7723 9.27983 17.7939 8.91296 17.686 8.50292C17.4702 7.61811 16.7365 6.75486 16.3048 6.2585C15.5063 5.30894 14.6647 4.44571 13.7583 3.64722C13.6935 3.58248 13.6288 3.51773 13.5425 3.45298C13.1324 3.04295 12.4419 2.41711 11.7728 2.35236C11.5139 2.33078 11.2549 2.37394 10.9959 2.56817C10.888 2.6545 10.8665 2.82714 10.9312 2.95663C10.9312 2.97821 10.9528 2.99979 10.9528 3.02137C10.9744 3.04295 10.9959 3.06453 11.0175 3.06453C11.0607 3.10769 11.1254 3.12927 11.1902 3.12927C11.2549 3.12927 11.3412 3.10769 11.406 3.06453C11.5139 2.97821 11.6649 2.95663 11.7944 2.97821C12.1829 3.06453 12.6577 3.47457 13.1109 3.90619C13.1756 3.99251 13.2619 4.05725 13.3267 4.12199C14.2115 4.89891 15.0531 5.76215 15.8301 6.66855C16.2401 7.12174 16.9091 7.89865 17.0818 8.6324C17.1465 8.91296 17.1465 9.15035 17.0602 9.38774C16.7149 10.3805 15.5927 11.2437 14.6647 11.6753Z" fill="#101010"/>
<path d="M31.5843 6.64695C32.3828 5.74056 33.2244 4.87732 34.0877 4.1004C34.1524 4.03566 34.2172 3.97092 34.3035 3.88459C34.9078 3.30191 35.5983 2.71923 36.0084 3.04294C36.1163 3.15084 36.2889 3.15084 36.4184 3.04294C36.44 3.02136 36.4616 2.99978 36.4616 2.99978C36.5695 2.89188 36.5695 2.71922 36.4832 2.58974C36.4616 2.56816 36.44 2.54658 36.4184 2.54658C36.3537 2.50342 36.3105 2.46026 36.2458 2.43868C36.181 2.4171 36.1379 2.37393 36.0731 2.37393C35.9652 2.33077 35.8357 2.33077 35.7278 2.33077C35.6199 2.33077 35.4904 2.35235 35.3825 2.39551C35.3178 2.41709 35.2746 2.43868 35.2099 2.46026C35.102 2.50342 34.9725 2.56816 34.8646 2.6329C34.7567 2.69765 34.6488 2.78397 34.5409 2.84871C34.4977 2.89187 34.433 2.93504 34.3898 2.9782C34.2819 3.06452 34.1956 3.15085 34.1093 3.21559C34.0229 3.30191 33.9366 3.36665 33.8719 3.45298C33.7855 3.51772 33.7208 3.58247 33.6561 3.64721C33.3323 3.94934 32.9871 4.25147 32.6633 4.57519C32.3396 4.8989 32.0159 5.22261 31.7138 5.56791C31.498 5.78372 31.3037 6.0211 31.1095 6.25849C31.0448 6.32324 31.0016 6.38798 30.9369 6.4743C30.8505 6.58221 30.7426 6.7117 30.6347 6.84118C30.5268 6.97067 30.4405 7.10015 30.3326 7.25122C30.2031 7.44545 30.0736 7.63968 29.9657 7.85549C29.9226 7.96339 29.8578 8.0713 29.8147 8.1792C29.7715 8.28711 29.7283 8.39501 29.7068 8.50291C29.6852 8.61082 29.6636 8.69714 29.6636 8.80505C29.642 8.99927 29.642 9.1935 29.6852 9.38773C29.7068 9.47405 29.7283 9.56038 29.7499 9.6467C29.7931 9.7546 29.8362 9.84093 29.8794 9.92725C29.901 9.94883 29.901 9.97041 29.9226 9.992C29.9657 10.0783 30.0305 10.1862 30.0736 10.2725C30.1168 10.3373 30.16 10.402 30.2031 10.4668C30.4405 10.7905 30.7426 11.1142 31.0663 11.3732C31.1743 11.4595 31.3037 11.5674 31.4116 11.6537C31.5195 11.74 31.6275 11.8048 31.7354 11.8695C31.7569 11.8911 31.8001 11.9127 31.8217 11.9343C31.908 11.9774 31.9727 12.0422 32.0591 12.0853C32.0807 12.1069 32.1238 12.1285 32.1454 12.1285C32.2533 12.1932 32.3612 12.2364 32.4691 12.2796C32.5123 12.3012 32.5554 12.3011 32.5986 12.3011C32.7065 12.3011 32.836 12.2364 32.8791 12.1069C32.8791 12.1069 32.8791 12.1069 32.8791 12.0853C32.9439 11.9559 32.9223 11.8048 32.836 11.7185C32.8144 11.6969 32.7712 11.6753 32.7281 11.6537C31.7785 11.2221 30.6779 10.3589 30.3326 9.36615C30.2894 9.25825 30.2679 9.15034 30.2679 9.02085C30.2679 8.89137 30.2894 8.76189 30.311 8.61082C30.5268 7.87707 31.1958 7.10015 31.5843 6.64695Z" fill="#101010"/>
<path d="M19.4989 15.603C20.0384 15.603 20.4484 15.1714 20.4484 14.6535C20.4484 14.1355 20.0168 13.7039 19.4989 13.7039C18.9809 13.7039 18.5493 14.1355 18.5493 14.6535C18.5493 15.1714 18.9809 15.603 19.4989 15.603Z" fill="#101010"/>
<path d="M31.3685 20.0056C31.3685 19.8329 31.2175 19.6818 31.0448 19.6818C30.2032 19.6818 29.5126 20.6314 28.9515 21.3867C28.7573 21.6457 28.5846 21.9047 28.4335 22.0557C27.7214 22.8111 26.5344 23.2211 25.5849 23.07C25.1748 23.0053 24.6353 22.8111 24.2468 22.25C24.7864 21.9263 25.9086 21.1709 26.1244 20.1998C26.2755 19.5739 26.146 18.9697 25.7575 18.4949C25.3259 17.9554 24.6353 17.6532 23.8152 17.6532C22.9952 17.6532 22.3046 17.9554 21.8729 18.4949C21.5061 18.9697 21.3766 19.5739 21.5061 20.1998C21.7003 21.1493 22.8225 21.9047 23.362 22.2284C22.9736 22.8111 22.4125 23.0053 22.0024 23.07C21.3118 23.178 20.4918 22.9837 19.8228 22.5737C19.758 22.5305 19.7149 22.4874 19.7149 22.4874C19.6933 22.4658 19.6501 22.4442 19.607 22.4442C19.4343 22.3363 19.2832 22.2068 19.1538 22.0557C19.0027 21.9047 18.83 21.6457 18.6358 21.3867C18.0963 20.6314 17.4057 19.6818 16.5425 19.6818C16.3698 19.6818 16.2188 19.8329 16.2188 20.0056C16.2188 20.1782 16.3698 20.3293 16.5425 20.3293C17.0604 20.3293 17.6647 21.1709 18.1179 21.7752C18.3337 22.0557 18.5279 22.3147 18.7006 22.5089C18.8948 22.7032 19.1322 22.8974 19.3911 23.0485C19.5854 23.2211 20.2544 23.847 20.5349 24.7749C20.5565 24.8613 20.5997 24.9692 20.6213 25.0555C20.7507 25.4655 20.9018 25.9619 21.1392 26.3935C21.5708 27.192 22.3046 27.8826 23.8368 27.8826C25.3475 27.8826 26.1028 27.192 26.5344 26.3935C26.7718 25.9619 26.9229 25.4655 27.0524 25.0555C27.0739 24.9476 27.1171 24.8613 27.1387 24.7749C27.484 23.6959 28.3472 23.0053 28.3472 23.0053C28.3904 22.9837 28.412 22.9406 28.4335 22.8974C28.5846 22.7679 28.7357 22.6384 28.8867 22.5089C29.0594 22.3147 29.2536 22.0557 29.4694 21.7752C29.901 21.1709 30.5269 20.3293 31.0448 20.3293C31.2175 20.3293 31.3685 20.1782 31.3685 20.0056ZM26.5128 24.5807C26.4913 24.667 26.4481 24.7749 26.4265 24.8613C26.3618 25.0555 26.297 25.2497 26.2323 25.4655C26.1244 25.8108 25.9733 26.113 25.7791 26.3935C25.4122 26.8899 24.8511 27.2352 23.8368 27.2352C22.8225 27.2352 22.2614 26.8899 21.8945 26.3935C21.7003 26.1345 21.5708 25.8324 21.4629 25.5303V25.5087C21.3982 25.2929 21.3334 25.0771 21.2687 24.8613C21.2471 24.7749 21.2039 24.667 21.1824 24.5807C21.0745 24.2138 20.9018 23.8901 20.7292 23.6311C21.0313 23.6959 21.3334 23.739 21.6356 23.739C21.8082 23.739 21.9809 23.7391 22.0888 23.7175C22.8009 23.6096 23.3836 23.2643 23.7936 22.7248C24.2037 23.2643 24.7864 23.6096 25.4985 23.7175C25.9733 23.7822 26.4913 23.7391 26.9876 23.6096C26.7934 23.8901 26.6207 24.2138 26.5128 24.5807Z" fill="#101010"/>
<path d="M29.1025 14.6535C29.1025 14.1355 28.6709 13.7039 28.1529 13.7039C27.635 13.7039 27.2034 14.1355 27.2034 14.6535C27.2034 15.1714 27.635 15.603 28.1529 15.603C28.6709 15.603 29.1025 15.1714 29.1025 14.6535Z" fill="#101010"/>
</g>
</g>
<defs>
<clipPath id="clip0_2374_2957">
<rect width="48" height="48" fill="white"/>
</clipPath>
<clipPath id="clip1_2374_2957">
<rect width="39" height="34" fill="white" transform="translate(6)"/>
</clipPath>
</defs>
</svg>
