<svg xmlns="http://www.w3.org/2000/svg" width="81" height="90" viewBox="0 0 81 90" fill="none">
    <g clip-path="url(#clip0_3842_14599)">
        <path d="M19.6666 50.1132C19.2322 49.7973 18.8373 49.4419 18.4819 49.047C17.4946 49.5208 15.0067 50.4686 12.1239 49.1259C10.8601 48.5336 9.87287 47.5858 8.92509 46.717C8.45119 46.2431 7.9773 45.8087 7.46392 45.4138C7.1085 45.1373 6.71359 44.8609 6.27919 44.624C5.21293 44.0316 3.94922 44.0316 2.88296 44.624C2.52754 44.8214 2.25111 45.0584 2.01416 45.3348C4.30464 44.624 6.59512 46.1246 8.29323 49.8368C9.43847 52.2852 9.55694 55.0891 9.47796 57.1426C9.55694 57.1821 9.59643 57.2611 9.67541 57.3401C9.83338 57.498 9.99134 57.6165 10.1493 57.7745C12.5188 60.1044 13.7035 62.4344 13.901 65.1198C13.9799 66.265 13.9799 67.2918 13.8615 68.2791C13.585 70.846 12.7952 73.097 11.6105 75.9798C11.0971 77.283 10.6232 78.6652 10.2678 80.0869C12.2423 79.0996 14.0984 77.8754 15.5201 76.3352C18.4819 73.0575 20.5354 68.9899 21.3253 64.6459C21.9176 61.3287 21.3648 55.0101 20.3775 50.5871C20.101 50.4291 19.9036 50.2712 19.6666 50.1132Z" fill="#F8AD5F"/>
        <path d="M63.6201 59.3154C63.0672 58.8415 62.5144 58.3677 62.0405 57.9333C58.9997 55.1689 56.3538 52.602 54.5372 49.3242C53.9448 50.272 53.5104 51.2988 53.155 52.2466C51.6543 56.1957 51.2594 60.5397 52.0097 64.6862C52.6021 67.8455 53.8263 70.9258 55.6429 73.5717L58.6837 70.5309C58.4863 70.057 58.2493 69.5831 58.0519 69.1092C57.8544 68.6748 57.657 68.2404 57.657 67.727C57.657 67.0162 58.0519 66.4238 58.6442 66.2264C59.1576 66.0289 59.6315 66.1869 59.9869 66.4238C59.7895 64.3703 60.0659 62.3562 61.7245 60.9741C62.3959 60.4212 63.1857 59.9868 64.0545 59.6709C63.8965 59.5524 63.7386 59.4339 63.6201 59.3154Z" fill="#F8AD5F"/>
        <path d="M55.6034 27.6827L55.3664 27.3668C55.2479 27.2483 55.2084 27.0508 55.2479 26.8929C55.2874 26.7349 55.3664 26.577 55.5244 26.498C56.8671 25.7476 61.764 20.1399 62.4353 10.899L62.4748 10.5436C62.5933 8.806 62.7117 7.02891 62.7117 5.2913V5.05436C62.7117 3.9881 62.7117 2.48744 62.0404 1.81609C60.1053 -0.118965 56.2747 3.1193 54.6161 4.46199C52.1676 6.51552 49.8772 9.04295 47.5867 12.1627C45.4147 15.1246 43.3611 15.2035 41.4656 15.0456C40.6363 14.9666 39.7675 14.8481 38.9776 14.7691C38.0299 14.6507 37.1611 14.5322 36.6872 14.5322C36.2133 14.5322 35.3445 14.6507 34.3967 14.7691C33.6069 14.8876 32.7381 14.9666 31.9088 15.0456C30.0132 15.2035 27.9597 15.1246 25.7877 12.1627C23.4972 9.00346 21.2067 6.51552 18.7583 4.46199C17.0996 3.07981 13.2295 -0.158456 11.3339 1.7766C10.6626 2.44795 10.6626 3.94861 10.6626 5.01487V5.25181C10.6626 6.98942 10.7811 8.76651 10.8995 10.5041L10.939 10.8595C11.5314 20.1399 16.4283 25.7476 17.771 26.498C17.9289 26.577 18.0079 26.7349 18.0474 26.8929C18.0869 27.0508 18.0474 27.2483 17.9289 27.3668L17.692 27.6827C19.5086 27.6037 22.036 27.8407 24.05 29.4598C27.6042 32.3031 30.4476 31.5528 31.9482 30.5261C33.4489 29.4993 35.068 28.1171 36.6477 28.1171C38.2273 28.1171 39.8464 29.4993 41.3471 30.5261C42.8478 31.5528 45.6911 32.2637 49.2453 29.4598C51.2199 27.8802 53.7473 27.6037 55.6034 27.6827ZM25.7877 17.6125C25.0373 19.745 22.7468 21.6011 20.8118 22.4699C20.7328 22.5094 20.6538 22.5094 20.5353 22.5094C20.2984 22.5094 20.1009 22.3909 19.9825 22.154V22.1145C15.9149 23.2202 14.2168 14.9666 13.8614 12.3997C13.6639 10.9385 12.6766 7.22636 13.6244 5.60723C13.5849 5.56774 13.5454 5.56774 13.5454 5.52825C13.348 5.2913 13.3875 4.89639 13.6244 4.69894C15.2436 3.43523 17.2181 5.2913 18.2844 6.31807C18.4423 6.43654 18.5608 6.55501 18.6793 6.67349C20.2984 8.13465 21.878 9.7143 23.3392 11.4519C24.129 12.3602 25.4717 13.9398 25.8666 15.559C26.0641 16.2698 26.0246 16.9411 25.7877 17.6125ZM28.7495 28.5515C27.8017 28.5515 27.0119 27.7617 27.0119 26.8139C27.0119 25.8661 27.8017 25.0763 28.7495 25.0763C29.6973 25.0763 30.4871 25.8661 30.4871 26.8139C30.4871 27.7617 29.6973 28.5515 28.7495 28.5515ZM60.0658 4.69894C60.3028 4.8569 60.3423 5.17283 60.2238 5.40978C60.2238 5.44927 60.1843 5.48876 60.1448 5.52825C60.1053 5.56774 60.1053 5.60723 60.0658 5.60723C61.0136 7.22636 60.0264 10.9385 59.8289 12.3997C59.4735 14.8481 57.9333 22.4699 54.2212 22.1935C54.0237 22.1935 53.8658 22.154 53.6683 22.1145V22.154C53.6683 22.154 53.6683 22.154 53.6683 22.1935C53.5498 22.3909 53.3524 22.5094 53.1549 22.5094C53.0759 22.5094 52.997 22.5094 52.918 22.4699C50.9829 21.5616 48.6924 19.745 47.9026 17.6125C47.6657 16.9806 47.6657 16.2698 47.8236 15.5195C48.2185 13.9003 49.5612 12.3602 50.3511 11.4124C51.8122 9.7143 53.3919 8.09516 55.011 6.634C55.1295 6.51552 55.2479 6.39705 55.4059 6.27858C56.1957 5.56774 57.4594 4.38301 58.6837 4.26454C59.1576 4.22505 59.6314 4.34352 60.0658 4.69894ZM48.0211 27.6827C47.9026 27.9986 47.5472 28.1171 47.2313 27.9986C46.6389 27.7617 45.9676 27.6432 45.2962 27.6432C44.4669 27.6432 43.6376 27.8407 42.9662 28.1961C42.8873 28.2356 42.7688 28.2751 42.6898 28.2751C42.5713 28.2751 42.4529 28.2356 42.3344 28.1566C42.1369 27.9986 42.0579 27.7617 42.1369 27.5642C42.5318 25.7871 44.1115 24.5629 45.9281 24.5629C46.5599 24.5629 47.1918 24.7209 47.7447 24.9973C48.0211 25.1553 48.1396 25.5107 47.9816 25.7871C47.8236 26.0636 47.4682 26.182 47.1918 26.0241C46.7969 25.8266 46.3625 25.7082 45.9281 25.7082C45.1382 25.7082 44.3879 26.0636 43.914 26.6164C45.1382 26.34 46.5599 26.4585 47.7052 26.8929C48.0211 27.0508 48.1396 27.3668 48.0211 27.6827Z" fill="#F8AD5F"/>
        <path d="M39.7278 43.3615C38.4246 43.1641 37.3584 42.5322 36.608 41.5449C35.8577 42.5322 34.7914 43.1641 33.4882 43.3615C32.6589 43.48 31.7506 43.4405 30.8818 43.2035C31.1978 43.7169 31.4742 44.3093 31.7111 44.9411C31.7506 45.0991 31.8296 45.2966 31.8691 45.4545C31.9876 45.8099 32.1061 46.2049 32.2245 46.5603C33.5672 47.666 35.0679 48.2584 36.608 48.2584C38.1482 48.2584 39.6488 47.6265 40.9915 46.5603C41.11 46.2049 41.2285 45.8099 41.347 45.4545C41.3864 45.2966 41.4654 45.0991 41.5049 44.9411C41.7024 44.2698 42.0183 43.6774 42.3342 43.2035C41.7814 43.3615 41.189 43.4405 40.6361 43.4405C40.3597 43.4405 40.0437 43.4405 39.7278 43.3615Z" fill="#F48E8F"/>
        <path d="M78.5873 66.6596L72.0713 60.1436C71.8738 59.9462 71.6369 59.8672 71.4 59.8672C71.163 59.8672 70.8866 59.9857 70.7286 60.1436L68.5171 62.3551C69.5439 63.5793 70.4127 64.8825 70.8471 66.3437C71.3605 68.1208 71.005 70.0559 69.8993 71.2406C69.7808 71.3591 69.6624 71.4775 69.5439 71.5565C69.5044 71.596 69.4649 71.596 69.4254 71.6355C69.3464 71.7145 69.228 71.754 69.149 71.833C69.1095 71.8724 69.07 71.8725 69.0305 71.9119C68.912 71.9909 68.7935 72.0304 68.7146 72.0699C68.6751 72.0699 68.6751 72.1094 68.6356 72.1094C68.4776 72.1884 68.3591 72.2279 68.2012 72.2674C68.1617 72.2674 68.1222 72.2674 68.0827 72.3069C67.9642 72.3463 67.8458 72.3463 67.7273 72.3858C67.6878 72.3858 67.6088 72.3858 67.5693 72.4253C67.4509 72.4253 67.3324 72.4648 67.2139 72.4648C67.1744 72.4648 67.1349 72.4648 67.0954 72.4648H67.0559C66.9375 72.4648 66.8585 72.4648 66.74 72.4648C66.661 72.4648 66.6215 72.4648 66.5426 72.4648C66.3451 72.4648 66.1871 72.4253 65.9897 72.3858C64.1731 71.9909 62.7514 70.8062 61.4482 69.503L60.1055 70.8457L59.6711 71.2801L59.2367 71.7145L56.3539 74.5973L54.6163 76.3349C54.4188 76.5324 54.3398 76.7693 54.3398 77.0063C54.3398 77.2432 54.4583 77.5197 54.6163 77.6776L61.1323 84.1936C61.5272 84.5885 62.1196 84.5885 62.5145 84.1936L63.6597 83.0484L64.1731 82.535L64.647 82.0611L78.6268 68.0813C78.9822 67.6469 78.9822 67.0545 78.5873 66.6596ZM62.6724 76.2165C62.6329 76.2559 62.5935 76.2559 62.5935 76.2954C62.4355 76.4139 62.1986 76.4929 62.0011 76.4534C61.8036 76.4534 61.6457 76.3744 61.4877 76.2165C61.4482 76.177 61.4482 76.1375 61.4877 76.098C61.5667 76.019 61.6457 75.94 61.7641 75.9005C61.9616 75.8215 62.1986 75.8215 62.4355 75.9005C62.5145 75.94 62.5935 75.9795 62.6724 76.0585C62.7119 76.1375 62.7119 76.177 62.6724 76.2165ZM64.3311 81.1923L63.8967 81.6267L63.4228 82.1006L62.5935 82.9299C62.396 83.1274 62.1196 83.2459 61.8826 83.2459C61.6062 83.2459 61.3692 83.1274 61.1718 82.9299C60.7769 82.535 60.7769 81.8637 61.1718 81.4688L62.7119 79.9286L62.7514 79.8891L62.8699 79.7706C62.9884 79.6522 63.1068 79.5732 63.2648 79.5337C63.4623 79.4547 63.6992 79.4547 63.8967 79.4942C64.0546 79.5337 64.2126 79.6127 64.3311 79.7706C64.726 80.1656 64.726 80.7579 64.41 81.1528C64.3706 81.1528 64.3311 81.1923 64.3311 81.1923ZM64.489 76.2954C63.9756 76.8088 63.3043 76.6903 63.1068 76.4929C63.0279 76.3744 62.9489 76.2954 62.8699 76.1375C62.8304 76.0585 62.7909 75.9795 62.7119 75.9005C62.633 75.8215 62.554 75.7821 62.475 75.7426C62.4355 75.7031 62.3565 75.7031 62.317 75.6636C62.238 75.6241 62.1986 75.5846 62.1196 75.5451C62.0011 75.3477 61.9221 75.1502 61.9616 74.9133C61.9616 74.8738 61.9616 74.8343 62.0011 74.7948C62.0011 74.7553 62.0801 74.7553 62.1196 74.7553C62.317 74.8343 62.5145 74.8343 62.6724 74.7158C62.9094 74.5578 62.9489 74.2024 62.7514 73.9655C62.7514 73.9655 62.7514 73.926 62.7514 73.8865C62.7514 73.847 62.7514 73.847 62.7909 73.847C63.2648 73.6101 63.8967 73.4521 64.0941 73.689C64.2126 73.8075 64.2916 73.926 64.3311 74.0839C64.3311 74.1234 64.3706 74.2024 64.41 74.2419C64.4495 74.2814 64.489 74.3209 64.568 74.3209C64.726 74.3604 64.8444 74.4394 64.9629 74.5578C65.2788 74.8343 65.0024 75.8215 64.489 76.2954Z" fill="#EF4E50"/>
        <path d="M53.3526 21.3651C53.4711 21.4046 53.5501 21.4836 53.5895 21.5625C53.708 21.7205 53.708 21.918 53.6685 22.0759C53.866 22.1154 54.0239 22.1549 54.2214 22.1549C57.8941 22.4314 59.4737 14.8096 59.8291 12.3611C60.0266 10.9 61.0139 7.18782 60.0661 5.56869C59.9871 5.64767 59.8686 5.68716 59.7501 5.68716C59.5922 5.68716 59.4342 5.64767 59.3157 5.56869C59.1183 5.41073 58.8813 5.37124 58.6049 5.41073C57.8941 5.5292 56.9858 6.31902 56.1565 7.10884C55.9985 7.26681 55.88 7.38528 55.7615 7.50375C54.1819 8.92543 52.6418 10.5051 51.1806 12.1637C50.4698 12.993 49.2455 14.4147 48.8901 15.7574C48.7716 16.2708 48.7716 16.7446 48.9296 17.1396C49.6404 18.9956 51.6545 20.6148 53.3526 21.3651Z" fill="white"/>
        <path d="M19.9826 22.1148C19.8641 21.8384 20.0221 21.5225 20.2985 21.3645C21.9966 20.5747 24.0502 18.9951 24.682 17.1785C24.84 16.7441 24.84 16.3097 24.7215 15.7963C24.4056 14.4536 23.1814 13.0319 22.431 12.2026C21.0094 10.544 19.4692 8.96435 17.8501 7.54267C17.7316 7.4242 17.6131 7.30572 17.4552 7.14776C17.3762 7.06878 17.2577 6.95031 17.1787 6.87132C17.1392 6.83183 17.1392 6.83183 17.0997 6.79234C16.9813 6.71336 16.9023 6.59489 16.7838 6.5159L16.7443 6.47641C16.6653 6.39743 16.5469 6.31845 16.4679 6.23947L16.4284 6.19998C16.3494 6.12099 16.2309 6.04201 16.152 5.96303C16.1125 5.96303 16.1125 5.92354 16.073 5.92354C15.9545 5.84456 15.8755 5.80507 15.7965 5.72608C15.7176 5.68659 15.5991 5.60761 15.5201 5.56812C15.4806 5.56812 15.4806 5.52863 15.4411 5.52863C15.3621 5.48914 15.2437 5.44965 15.1647 5.44965H15.1252C15.0462 5.44965 14.9672 5.41016 14.8882 5.41016H14.8488H14.8093C14.7698 5.41016 14.7303 5.41016 14.6908 5.41016H14.6513C14.6118 5.41016 14.5723 5.44965 14.5328 5.44965H14.4933C14.4538 5.48914 14.4144 5.48914 14.3749 5.52863C14.1379 5.68659 13.8615 5.68659 13.6245 5.52863C12.6767 7.14776 13.664 10.8599 13.8615 12.3211C14.2169 14.967 15.915 23.2206 19.9826 22.1148Z" fill="white"/>
        <path d="M64.6074 74.3233C64.5679 74.3233 64.4889 74.2838 64.4494 74.2443C64.4099 74.2048 64.3705 74.1653 64.3705 74.0863C64.331 73.9284 64.252 73.8099 64.1335 73.6914C63.8966 73.4545 63.2647 73.6124 62.8303 73.8494L62.7908 73.8889C62.7908 73.9284 62.7908 73.9284 62.7908 73.9679C62.9488 74.2048 62.9093 74.5207 62.7118 74.7182C62.5539 74.8367 62.3169 74.8762 62.159 74.7577C62.1195 74.7577 62.08 74.7577 62.0405 74.7972C62.0405 74.8367 62.0405 74.8762 62.001 74.9157C61.9615 75.1526 62.0405 75.3501 62.159 75.5475C62.1984 75.587 62.2774 75.6265 62.3564 75.666C62.3959 75.7055 62.4749 75.7055 62.5144 75.745C62.5934 75.7845 62.6723 75.8239 62.7513 75.9029C62.8303 75.9819 62.8698 76.0609 62.9093 76.1399C62.9488 76.2584 63.0278 76.3768 63.1462 76.4953C63.3437 76.6928 64.015 76.8112 64.5284 76.2978C65.0023 75.8239 65.2787 74.7972 65.0023 74.5207C64.8838 74.4418 64.7259 74.3628 64.6074 74.3233Z" fill="white"/>
        <path d="M62.5934 76.2974C62.6329 76.2579 62.6724 76.2579 62.6724 76.2184C62.7119 76.1789 62.7119 76.1394 62.6724 76.0999C62.5934 76.0209 62.5144 75.9814 62.4354 75.942C62.238 75.863 62.001 75.8235 61.7641 75.942C61.6456 75.9814 61.5666 76.0604 61.4876 76.1394C61.4481 76.1789 61.4481 76.2184 61.4876 76.2579C61.6456 76.4158 61.8036 76.4553 62.001 76.4948C62.1985 76.4553 62.4354 76.4158 62.5934 76.2974Z" fill="white"/>
        <path d="M8.29336 49.8374C6.59524 46.1252 4.30477 44.6246 2.01429 45.3354C1.5404 45.8488 1.26396 46.5596 1.18498 47.31C1.106 48.4552 1.57989 49.5215 1.9748 50.2323C3.19902 52.2858 4.97611 53.6285 6.91117 55.0897C7.77997 55.7611 8.64878 56.4324 9.47809 57.1827C9.59656 55.0897 9.4386 52.2858 8.29336 49.8374Z" fill="white"/>
        <path d="M63.3045 84.985C62.8701 85.4194 62.3173 85.6169 61.7644 85.6169C61.2115 85.6169 60.6586 85.4194 60.2242 84.985L53.7082 78.469C53.3133 78.0741 53.0764 77.5212 53.0764 76.9288C53.0764 76.3365 53.3133 75.8231 53.7082 75.3887L55.5643 73.5326C53.7477 70.8472 52.484 67.8064 51.9311 64.6471C51.1808 60.5006 51.6152 56.1566 53.0764 52.2075C53.4318 51.2597 53.9057 50.2329 54.4585 49.2851C52.9579 50.6673 51.2203 51.7336 49.5222 52.2864C49.2062 52.4049 48.8903 52.2075 48.7718 51.8915C48.7718 51.852 48.7324 51.7731 48.7324 51.7336C48.7324 51.4966 48.8903 51.2597 49.1273 51.1807C50.7069 50.7068 52.326 49.68 53.7082 48.3373C55.8012 46.3233 57.3809 43.6379 57.3809 40.913C57.3809 40.6366 57.4994 40.3997 57.7363 40.2812C58.1312 40.0442 58.5261 40.2812 58.921 40.4786C58.921 40.4391 58.921 40.4391 58.921 40.3997V40.3207C58.9605 39.6888 58.8026 38.8595 58.5656 38.2671C58.1707 37.3588 58.1707 36.569 58.5656 36.1741C58.8026 35.9372 59.1185 35.8187 59.4739 35.9372C59.5924 35.9767 59.7109 36.0162 59.8293 36.0556C59.9083 36.0951 59.9873 36.1346 60.0663 36.1346C60.2637 35.5817 59.6319 34.2391 59.3554 33.6467C59.2765 33.4887 59.1975 33.3308 59.158 33.2123C58.6841 32.146 58.1312 31.0798 57.4599 30.132C56.986 29.4212 56.4331 28.7498 55.8407 28.1179L55.4853 27.6441C53.6687 27.5651 51.1413 27.802 49.1273 29.4212C45.5731 32.2645 42.7297 31.5142 41.2291 30.4874C39.7284 29.4606 38.1093 28.0785 36.5296 28.0785C34.95 28.0785 33.3309 29.4606 31.8302 30.4874C30.3295 31.5142 27.4862 32.225 23.932 29.4212C21.918 27.8415 19.3905 27.5651 17.574 27.6441L17.2185 28.0785C16.6262 28.7498 16.0733 29.4212 15.5994 30.132C15.3625 30.4874 14.7701 31.7116 14.5726 32.383C15.1255 32.225 15.4414 32.4225 15.5994 32.5409C15.9153 32.8174 15.9943 33.2913 15.8363 33.8441C15.6389 34.5155 15.244 35.0289 14.8886 35.5423C14.6911 35.7792 14.5331 36.0162 14.4147 36.2531C13.9408 37.0429 13.8223 38.0302 13.7038 39.0175C13.6643 39.2544 13.7433 39.8863 13.8223 40.3207C13.9013 40.2022 13.9803 40.0442 14.0593 39.9258C14.4147 39.4914 14.8096 39.5703 14.9281 39.6098C15.5204 39.8073 15.5994 40.5971 15.6784 41.5054C15.6784 41.5449 15.6784 41.5844 15.6784 41.6239C15.7969 42.7691 16.1523 43.8354 16.7446 44.9411C17.2975 45.9679 18.0084 46.9157 18.7982 47.7845C18.8377 47.824 18.8772 47.8635 18.8772 47.9029C18.9956 48.0214 19.1141 48.1399 19.2326 48.2584C19.3116 48.3373 19.43 48.4558 19.509 48.5348C19.5485 48.5743 19.588 48.6138 19.6275 48.6533C20.3383 49.2851 21.1281 49.838 21.9575 50.3119C22.5893 50.6673 23.1817 50.9043 23.8135 51.1017C24.0505 51.1807 24.2084 51.4176 24.2084 51.6546C24.2084 51.6941 24.2084 51.7731 24.169 51.8126C24.09 52.0495 23.853 52.247 23.6161 52.247C23.5766 52.247 23.4976 52.247 23.4581 52.2075C22.7868 52.01 22.0759 51.6941 21.4046 51.2992C20.9702 51.0622 20.5358 50.7858 20.1409 50.5093C21.1281 54.9323 21.7205 61.2509 21.0887 64.5681C20.2988 68.8727 18.2453 72.9797 15.2835 76.218C13.8618 77.7976 12.0057 79.0219 10.0312 79.9696C9.16237 83.1289 8.68848 86.4857 8.68848 89.329H64.3708C64.3708 87.6309 64.2128 85.9723 63.9364 84.3137L63.3045 84.985ZM36.6481 83.3264C35.7003 83.3264 34.9105 82.5366 34.9105 81.5888C34.9105 80.641 35.7003 79.8512 36.6481 79.8512C37.5959 79.8512 38.3857 80.641 38.3857 81.5888C38.3857 82.5366 37.5959 83.3264 36.6481 83.3264ZM47.0737 39.8468C46.6788 40.3602 46.3234 40.8341 46.0075 41.1895C45.6521 41.5449 45.2571 41.8608 44.8622 42.1373C44.6253 42.3347 43.2431 43.5194 42.6902 45.336C42.6507 45.494 42.5718 45.652 42.5323 45.8494C42.2953 46.6392 42.0189 47.508 41.5845 48.3373C40.7947 49.7985 39.4125 51.0227 36.6481 51.0227C33.8837 51.0227 32.5016 49.7985 31.7117 48.3373C31.2773 47.508 31.0009 46.6392 30.764 45.8494C30.7245 45.6914 30.6455 45.494 30.606 45.336C30.0136 43.48 28.5919 42.2557 28.3945 42.0978C27.9996 41.8213 27.6047 41.5054 27.2493 41.15C26.9333 40.7946 26.5779 40.3207 26.183 39.8073C25.3537 38.7015 24.2479 37.1614 23.3001 37.1614C22.9842 37.1614 22.7078 36.885 22.7078 36.569C22.7078 36.2531 22.9842 35.9767 23.3001 35.9767C24.8798 35.9767 26.1435 37.7143 27.1308 39.0964C27.4862 39.5703 27.8021 40.0442 28.0786 40.3207C29.4213 41.6634 31.5538 42.4532 33.2914 42.1767C34.0417 42.0583 35.0685 41.7029 35.7793 40.6366C34.792 40.0442 32.7385 38.6226 32.3831 36.9244C32.1461 35.7792 32.3831 34.6735 33.0544 33.8047C33.8442 32.8174 35.108 32.2645 36.6086 32.2645C38.1093 32.2645 39.373 32.8174 40.1628 33.8047C40.8736 34.6735 41.1106 35.7792 40.8342 36.9244C40.4392 38.662 38.4252 40.0442 37.4379 40.6366C38.1488 41.6634 39.136 42.0583 39.9259 42.1767C41.6635 42.4532 43.8355 41.7029 45.1387 40.3207C45.4151 40.0442 45.731 39.5703 46.0865 39.0964C47.1132 37.7143 48.3769 35.9767 49.9171 35.9767C50.233 35.9767 50.5095 36.2531 50.5095 36.569C50.5095 36.885 50.233 37.1614 49.9171 37.1614C49.0088 37.2009 47.8636 38.741 47.0737 39.8468Z" fill="white"/>
        <path d="M36.6481 82.1409C36.9534 82.1409 37.201 81.8934 37.201 81.588C37.201 81.2827 36.9534 81.0352 36.6481 81.0352C36.3427 81.0352 36.0952 81.2827 36.0952 81.588C36.0952 81.8934 36.3427 82.1409 36.6481 82.1409Z" fill="white"/>
        <path d="M32.2251 46.5996C32.462 47.2315 32.699 47.8238 33.0939 48.2977C33.7652 49.206 34.792 49.7984 36.6086 49.7984C38.4252 49.7984 39.452 49.1665 40.1233 48.2977C40.5182 47.7843 40.7552 47.192 40.9921 46.5996C39.6494 47.7054 38.1488 48.2977 36.6086 48.2977C35.0685 48.3372 33.6073 47.7054 32.2251 46.5996Z" fill="white"/>
        <path d="M69.6625 66.6618C69.3071 65.4376 68.5567 64.2528 67.6484 63.1866C67.53 63.0286 67.372 62.8706 67.2535 62.7522C67.1351 62.5942 66.9771 62.4757 66.8586 62.3178C65.9503 61.37 64.9631 60.5012 64.0153 59.6719C63.186 59.9878 62.3961 60.4222 61.6853 60.9751C60.0267 62.3178 59.7108 64.3713 59.9477 66.4248C60.2636 66.6223 60.5006 66.8592 60.6585 66.9777C60.935 67.2147 61.1719 67.4911 61.4484 67.7675C61.4878 67.807 61.5273 67.8465 61.6063 67.9255C61.6853 68.0045 61.8038 68.1229 61.8828 68.2019C62.0012 68.3599 62.1592 68.4784 62.3172 68.6363C63.5019 69.8211 64.7656 70.8873 66.2663 71.2032C67.4115 71.4402 68.3988 71.2032 69.0701 70.4529C69.8204 69.5051 70.0969 68.044 69.6625 66.6618Z" fill="white"/>
        <path d="M36.6478 79.8496C35.7 79.8496 34.9102 80.6394 34.9102 81.5872C34.9102 82.535 35.7 83.3248 36.6478 83.3248C37.5955 83.3248 38.3854 82.535 38.3854 81.5872C38.3854 80.5999 37.5955 79.8496 36.6478 79.8496ZM36.6478 82.1401C36.3318 82.1401 36.0949 81.9031 36.0949 81.5872C36.0949 81.2713 36.3318 81.0343 36.6478 81.0343C36.9637 81.0343 37.2006 81.2713 37.2006 81.5872C37.2006 81.8637 36.9242 82.1401 36.6478 82.1401Z" fill="#101010"/>
        <path d="M51.22 12.2028C52.6417 10.5442 54.1818 8.96458 55.8009 7.5429C55.9194 7.42443 56.0379 7.30595 56.1958 7.14799C57.0252 6.35817 57.9335 5.60784 58.6443 5.44988C58.9207 5.41039 59.1577 5.44988 59.3551 5.60784C59.4736 5.72631 59.6316 5.76581 59.7895 5.72631C59.908 5.72631 60.0265 5.68682 60.1055 5.60784C60.1449 5.56835 60.1844 5.56835 60.1844 5.52886C60.2239 5.48937 60.2239 5.44988 60.2634 5.41039C60.3819 5.17344 60.3029 4.85751 60.1055 4.69955C59.6711 4.34413 59.1972 4.22566 58.7233 4.30464C57.4596 4.42311 56.2353 5.60784 55.4455 6.31868C55.2876 6.43715 55.1691 6.55562 55.0506 6.6741C53.392 8.13527 51.8518 9.71491 50.3907 11.4525C49.6008 12.3608 48.2582 13.9404 47.8632 15.5596C47.6658 16.3099 47.7053 16.9812 47.9422 17.6526C48.6926 19.7851 50.983 21.6412 52.9576 22.51C53.0366 22.5495 53.1155 22.5495 53.1945 22.5495C53.392 22.5495 53.6289 22.431 53.7079 22.2336C53.7079 22.2336 53.7079 22.2336 53.7079 22.1941V22.1546C53.7869 21.9571 53.7474 21.7597 53.6289 21.6412C53.5894 21.5622 53.471 21.4832 53.392 21.4437C51.6939 20.6539 49.6403 19.0743 49.0085 17.2577C48.8505 16.8233 48.8505 16.3889 48.969 15.8755C49.2849 14.4538 50.5091 13.0321 51.22 12.2028Z" fill="#101010"/>
        <path d="M20.2986 21.3644C20.0222 21.4829 19.9037 21.7988 19.9827 22.1148V22.1543C20.1012 22.3517 20.2986 22.5097 20.5356 22.5097C20.6146 22.5097 20.6935 22.5097 20.7725 22.4702C22.7076 21.5619 24.9981 19.7453 25.7484 17.6128C25.9853 16.9809 25.9853 16.2701 25.8274 15.5198C25.4325 13.9006 24.0898 12.3605 23.2999 11.4127C21.8388 9.7146 20.2591 8.09547 18.64 6.6343C18.5215 6.51583 18.4031 6.39736 18.2451 6.27889C17.1788 5.25212 15.1648 3.39604 13.5852 4.65975C13.3087 4.85721 13.2692 5.25212 13.5062 5.48907C13.5457 5.52856 13.5457 5.56805 13.5852 5.56805C13.7826 5.72601 14.0985 5.7655 14.3355 5.56805C14.375 5.52856 14.4145 5.48907 14.454 5.48907H14.4934C14.5329 5.48907 14.5724 5.44957 14.6119 5.44957H14.6514C14.6909 5.44957 14.7304 5.44957 14.7699 5.44957H14.8094H14.8489C14.9278 5.44957 15.0068 5.44957 15.0858 5.48907H15.1253C15.2043 5.52856 15.2833 5.52856 15.4017 5.56805C15.4412 5.56805 15.4412 5.56805 15.4807 5.60754C15.5597 5.64703 15.6782 5.68652 15.7572 5.7655C15.8361 5.80499 15.9546 5.88398 16.0336 5.96296C16.0731 5.96296 16.0731 6.00245 16.1126 6.00245C16.1916 6.08143 16.31 6.16041 16.389 6.23939L16.4285 6.27889C16.5075 6.35787 16.626 6.43685 16.7049 6.51583L16.7444 6.55532C16.8629 6.6343 16.9419 6.71329 17.0604 6.83176C17.0999 6.87125 17.0999 6.87125 17.1393 6.91074C17.2578 6.98972 17.3368 7.1082 17.4158 7.18718C17.5737 7.34514 17.6922 7.46362 17.8107 7.58209C19.3903 9.00377 20.9305 10.5834 22.3916 12.242C23.1025 13.0713 24.3267 14.493 24.6821 15.8357C24.8006 16.3491 24.8006 16.823 24.6426 17.2179C24.0503 18.995 22.0362 20.6141 20.2986 21.3644Z" fill="#101010"/>
        <path d="M50.5487 36.6073C50.5487 36.2913 50.2723 36.0149 49.9564 36.0149C48.3767 36.0149 47.113 37.7525 46.1257 39.1347C45.7703 39.6086 45.4544 40.0825 45.178 40.3589C43.8353 41.7016 41.7027 42.4914 39.9651 42.215C39.2148 42.0965 38.1881 41.7411 37.4772 40.6748C38.4645 40.0825 40.518 38.6608 40.8734 36.9627C41.1104 35.8174 40.8734 34.7117 40.2021 33.8429C39.4123 32.8556 38.1486 32.3027 36.6479 32.3027C35.1472 32.3027 33.8835 32.8556 33.0937 33.8429C32.3829 34.7117 32.1459 35.8174 32.4224 36.9627C32.8173 38.7003 34.8313 40.0825 35.8186 40.6748C35.1078 41.7016 34.1205 42.0965 33.3307 42.215C31.5931 42.4914 29.421 41.7411 28.1178 40.3589C27.8414 40.0825 27.5255 39.6086 27.1701 39.1347C26.1433 37.7525 24.8796 36.0149 23.3394 36.0149C23.0235 36.0149 22.7471 36.2913 22.7471 36.6073C22.7471 36.9232 23.0235 37.1996 23.3394 37.1996C24.2872 37.1996 25.4325 38.7398 26.2223 39.8455C26.6172 40.3589 26.9726 40.8328 27.2885 41.1882C27.644 41.5436 27.9994 41.8596 28.4338 42.136C28.5917 42.294 30.0529 43.4787 30.6453 45.3743C30.6848 45.5322 30.7637 45.6902 30.8032 45.8876C31.0402 46.6775 31.3166 47.5463 31.751 48.3756C32.5408 49.8367 33.923 51.061 36.6874 51.061C39.4518 51.061 40.834 49.8367 41.6238 48.3756C42.0582 47.5463 42.3346 46.6775 42.5716 45.8876C42.611 45.7297 42.69 45.5322 42.7295 45.3743C43.2824 43.5577 44.6646 42.3729 44.9015 42.1755C45.3359 41.899 45.6913 41.5831 46.0468 41.2277C46.3627 40.8723 46.7181 40.3984 47.113 39.885C47.9423 38.7793 49.0481 37.2391 49.9959 37.2391C50.2723 37.1996 50.5487 36.9232 50.5487 36.6073ZM41.3868 45.4927C41.2684 45.8481 41.1499 46.2431 41.0314 46.5985C40.7945 47.2303 40.5575 47.8227 40.1626 48.2966C39.4913 49.2049 38.4645 49.7973 36.6479 49.7973C34.8313 49.7973 33.8046 49.1654 33.1332 48.2966C32.7383 47.7832 32.5013 47.1908 32.2644 46.5985C32.1459 46.2431 32.0275 45.8481 31.909 45.4927C31.8695 45.3348 31.7905 45.1373 31.751 44.9793C31.5536 44.308 31.2376 43.7156 30.9217 43.2417C31.7905 43.4392 32.6988 43.5182 33.5281 43.3997C34.8313 43.2023 35.8976 42.5704 36.6479 41.5831C37.3982 42.5704 38.4645 43.2023 39.7677 43.3997C40.0836 43.4392 40.3601 43.4787 40.676 43.4787C41.2289 43.4787 41.8212 43.3997 42.3741 43.2417C42.0582 43.7551 41.7422 44.3475 41.5448 44.9793C41.5053 45.1373 41.4263 45.3348 41.3868 45.4927Z" fill="#101010"/>
        <path d="M28.7493 28.5514C29.709 28.5514 30.4869 27.7734 30.4869 26.8138C30.4869 25.8541 29.709 25.0762 28.7493 25.0762C27.7897 25.0762 27.0117 25.8541 27.0117 26.8138C27.0117 27.7734 27.7897 28.5514 28.7493 28.5514Z" fill="#101010"/>
        <path d="M42.137 27.5647C42.0975 27.8017 42.1765 28.0386 42.3345 28.1571C42.4529 28.2361 42.5714 28.2756 42.6899 28.2756C42.7689 28.2756 42.8873 28.2361 42.9663 28.1966C43.6377 27.8412 44.467 27.6437 45.2963 27.6437C45.9676 27.6437 46.639 27.7622 47.2314 27.9991C47.5473 28.1176 47.8632 27.9596 48.0212 27.6832C48.1397 27.3673 47.9817 27.0513 47.7053 26.8934C46.56 26.4195 45.1383 26.3405 43.9141 26.6169C44.4275 26.0641 45.1383 25.7086 45.9282 25.7086C46.3626 25.7086 46.797 25.8271 47.1919 26.0246C47.4683 26.1825 47.8237 26.0641 47.9817 25.7876C48.1397 25.5112 48.0212 25.1558 47.7447 24.9978C47.1919 24.7214 46.56 24.5634 45.9282 24.5634C44.1116 24.5239 42.5319 25.7876 42.137 27.5647Z" fill="#101010"/>
        <path d="M80.0483 67.3318C80.0483 66.7394 79.8113 66.2261 79.4164 65.7916L72.9004 59.2756C72.0711 58.4463 70.6889 58.4463 69.8596 59.2756L67.6876 61.4476C66.6608 60.3814 65.4761 59.3546 64.3703 58.4068C63.8175 57.9329 63.3041 57.459 62.7907 57.0246C59.7499 54.2603 57.0645 51.6539 55.3664 48.4156C57.104 46.4805 58.4072 44.1111 58.6047 41.6232C58.9206 41.7811 59.197 41.8996 59.5129 41.7811C60.1448 41.5047 60.1448 40.7938 60.1843 40.4779V40.3989C60.2238 39.5696 60.0658 38.5823 59.7499 37.8715C59.6314 37.5951 59.5919 37.3976 59.5524 37.2397C59.9474 37.3976 60.6977 37.6346 61.1321 36.8053C61.685 35.818 60.9741 34.2383 60.5002 33.2116C60.4212 33.0536 60.3818 32.9351 60.3028 32.8167C59.7894 31.6714 59.197 30.5657 58.4862 29.5389C57.9728 28.7886 57.3804 28.0383 56.7881 27.4064L56.5906 27.1695C58.6441 25.4713 62.9092 19.7451 63.541 11.0176L63.5805 10.6622C63.699 8.92461 63.857 7.10802 63.8175 5.33093V5.09398C63.8175 3.79078 63.8175 2.05317 62.7907 1.02641C60.1053 -1.65898 55.6823 2.05317 53.7473 3.63281C51.2593 5.72584 48.8899 8.29275 46.5204 11.531C44.7038 14.0189 43.2032 14.0979 41.4656 13.94C40.6757 13.861 39.8069 13.7425 39.0171 13.6635C37.9904 13.5451 37.1216 13.4266 36.5687 13.4266C36.0158 13.4266 35.147 13.5451 34.1202 13.6635C33.3699 13.782 32.4616 13.861 31.6718 13.94C29.8947 14.0979 28.4335 14.0189 26.6169 11.531C24.2475 8.29275 21.9175 5.72584 19.3901 3.59332C17.4945 2.01368 13.0715 -1.69847 10.3861 0.986915C9.35938 2.01368 9.35938 3.79078 9.35938 5.05449V5.29143C9.35938 7.06853 9.47785 8.88511 9.59632 10.6622L9.63581 11.0176C10.2677 19.7451 14.5327 25.4713 16.5862 27.1695L16.3888 27.4064C15.7569 28.0777 15.204 28.7886 14.6907 29.5784C14.6907 29.6179 12.8346 32.5797 13.6244 33.5275C13.7824 33.725 14.0983 33.9619 14.7302 33.725C14.5722 34.1594 14.2958 34.5543 13.9798 34.9887C13.7824 35.2256 13.5849 35.5021 13.427 35.7785C12.8346 36.7658 12.6766 37.9505 12.5581 39.0168C12.5581 39.2142 12.5581 41.0308 13.1505 41.6626C13.3085 41.8206 13.5454 41.9391 13.7429 41.9391C14.1378 41.9391 14.3747 41.7811 14.5722 41.5837C14.5722 41.6232 14.5722 41.6626 14.5722 41.7416C14.5722 41.8206 14.5722 41.8996 14.5722 41.9391C14.7302 43.2028 15.1251 44.427 15.7964 45.6907C16.2703 46.599 16.8627 47.4678 17.534 48.2576C16.5862 48.6526 14.6907 49.1659 12.5187 48.1787C11.4129 47.6653 10.5441 46.836 9.63581 45.9672C8.76701 45.1379 7.85872 44.3085 6.75297 43.7162C5.33129 42.9659 3.63318 42.9659 2.251 43.7162C0.908302 44.4665 0.0395 45.7697 -0.078973 47.3494C-0.157955 48.4946 0.157973 49.7583 0.868811 50.943C2.21151 53.194 4.18606 54.6947 6.08162 56.1164C7.14788 56.9457 8.25363 57.775 9.20141 58.7228C11.3734 60.8553 12.4002 62.8693 12.5976 65.2783C12.8741 69.1089 11.9658 71.7548 10.3861 75.6249C8.64854 80.0084 7.58228 85.2212 7.58228 89.5257C7.58228 89.8417 7.85872 90.1181 8.17465 90.1181C8.49057 90.1181 8.76701 89.8417 8.76701 89.5257C8.76701 86.6824 9.28039 83.3257 10.1097 80.1664C10.5046 78.7447 10.939 77.3625 11.4524 76.0593C12.6371 73.137 13.427 70.886 13.7034 68.3586C13.7824 67.3713 13.8219 66.3445 13.7429 65.1993C13.5454 62.5139 12.3607 60.1839 9.99123 57.854C9.83327 57.696 9.6753 57.538 9.51734 57.4196C9.43836 57.3801 9.39887 57.3011 9.31989 57.2221C8.49057 56.4718 7.62177 55.8004 6.75297 55.1291C4.8574 53.6679 3.04082 52.3252 1.8166 50.2717C1.42169 49.5608 0.947793 48.4946 1.02678 47.3494C1.10576 46.599 1.38219 45.8882 1.85609 45.3748C2.09303 45.0984 2.40896 44.8614 2.72489 44.664C3.75165 44.1111 5.01537 44.1111 6.12111 44.664C6.51602 44.9009 6.91093 45.1379 7.30584 45.4538C7.77974 45.8487 8.25363 46.2831 8.76701 46.757C9.7148 47.6653 10.7021 48.6131 11.9658 49.1659C14.8486 50.5086 17.3761 49.5608 18.3238 49.087C18.7187 49.4424 19.1137 49.7978 19.5086 50.1532C19.706 50.3112 19.943 50.4691 20.1799 50.6271C20.5748 50.9035 21.0092 51.18 21.4436 51.4169C22.115 51.8118 22.8258 52.0883 23.4972 52.3252C23.5366 52.3252 23.6156 52.3647 23.6551 52.3647C23.8921 52.3647 24.129 52.2067 24.208 51.9303C24.208 51.8908 24.2475 51.8118 24.2475 51.7723C24.2475 51.5354 24.0895 51.2985 23.8526 51.2195C23.2602 51.022 22.6284 50.7456 21.9965 50.4296C21.1672 49.9558 20.3774 49.4029 19.6665 48.771C19.627 48.7315 19.5875 48.692 19.5481 48.6526C19.4691 48.5736 19.3506 48.4946 19.2716 48.3761C19.1531 48.2576 19.0347 48.1392 18.9162 48.0207C18.8767 47.9812 18.8372 47.9417 18.8372 47.9022C18.0079 47.0334 17.3366 46.0856 16.7837 45.0589C16.1913 43.9531 15.8359 42.8474 15.7174 41.7416C15.7174 41.7021 15.7174 41.6626 15.7174 41.6232C15.6384 40.6754 15.5595 39.8856 14.9671 39.7276C14.8091 39.6881 14.4537 39.6091 14.0983 40.0435C13.9798 40.162 13.9008 40.32 13.8614 40.4384C13.7824 40.004 13.7034 39.3722 13.7429 39.1352C13.8219 38.1479 13.9798 37.1607 14.4537 36.3709C14.6117 36.1339 14.7696 35.897 14.9276 35.66C15.283 35.1466 15.6779 34.6332 15.8754 33.9619C16.0334 33.409 15.9544 32.9351 15.6384 32.6587C15.4805 32.5007 15.1251 32.3428 14.6117 32.5007C14.8091 31.8294 15.4015 30.6052 15.6384 30.2497C16.1123 29.5389 16.6652 28.8676 17.2576 28.1962L17.613 27.7618L17.8499 27.4459C17.9684 27.3274 18.0079 27.13 17.9684 26.972C17.9289 26.814 17.8499 26.6561 17.692 26.5771C16.4283 25.7478 11.5314 20.1401 10.86 10.8992L10.8205 10.5437C10.7021 8.80613 10.5441 7.02904 10.5836 5.29143V5.05449C10.5836 3.98823 10.5836 2.48757 11.2549 1.81623C13.19 -0.118833 17.0206 3.11943 18.6793 4.50161C21.0882 6.51566 23.3787 9.04308 25.7087 12.2024C27.8807 15.1642 29.9342 15.2432 31.8298 15.0852C32.6591 15.0062 33.5279 14.8877 34.3177 14.8088C35.2655 14.6903 36.1343 14.5718 36.6082 14.5718C37.0821 14.5718 37.9509 14.6903 38.8986 14.8088C39.6885 14.9272 40.5573 15.0062 41.3866 15.0852C43.2822 15.2432 45.3357 15.1642 47.5077 12.2024C49.7982 9.04308 52.0886 6.55515 54.5371 4.50161C56.1957 3.11943 60.0263 -0.079342 61.9614 1.85572C62.6327 2.52706 62.6327 4.02772 62.6327 5.09398V5.33093C62.6327 7.06853 62.5143 8.84562 62.3958 10.5832L62.3563 10.9386C61.685 20.1795 56.7881 25.7873 55.4454 26.5376C55.2874 26.6166 55.2084 26.7745 55.1689 26.9325C55.1294 27.0905 55.1689 27.2879 55.2874 27.4064L55.5244 27.7223L55.8798 28.1962C56.4721 28.8281 56.9855 29.4994 57.4989 30.2103C58.1703 31.1975 58.7231 32.2243 59.197 33.2906C59.2365 33.409 59.3155 33.567 59.3945 33.725C59.6709 34.3173 60.3028 35.66 60.1053 36.2129C60.0263 36.1734 59.9474 36.1339 59.8684 36.1339C59.7499 36.0944 59.6314 36.0154 59.5129 36.0154C59.197 35.9365 58.8416 36.0154 58.6047 36.2524C58.2097 36.6868 58.2492 37.4371 58.6047 38.3454C58.8416 38.8983 58.9601 39.7276 58.9601 40.3989V40.4779C58.9601 40.4779 58.9601 40.5174 58.9601 40.5569C58.5652 40.32 58.1703 40.1225 57.7753 40.3594C57.5384 40.4779 57.4199 40.7149 57.4199 40.9913C57.4199 43.7162 55.8403 46.4016 53.7473 48.4156C52.3651 49.7583 50.7065 50.7851 49.1663 51.259C48.9294 51.3379 48.7714 51.5749 48.7714 51.8118C48.7714 51.8513 48.7714 51.9303 48.8109 51.9698C48.8899 52.2857 49.2453 52.4437 49.5612 52.3647C51.2593 51.8513 52.9969 50.7851 54.4976 49.3634C56.3142 52.6411 58.9996 55.2081 62.0009 57.9724C62.5143 58.4463 63.0276 58.8807 63.5805 59.3546C63.699 59.4731 63.857 59.5916 63.9754 59.71C64.9232 60.5393 65.9105 61.4081 66.8188 62.3559C66.9373 62.5139 67.0952 62.6324 67.2137 62.7903C67.3322 62.9483 67.4901 63.1063 67.6086 63.2247C68.5169 64.291 69.2672 65.4757 69.6227 66.6999C70.0176 68.0821 69.7806 69.5433 68.9513 70.4516C68.28 71.1624 67.3322 71.4389 66.1474 71.2019C64.6468 70.886 63.3831 69.8197 62.1983 68.635C62.0404 68.477 61.9219 68.3586 61.7639 68.2006C61.685 68.1216 61.5665 68.0031 61.4875 67.9242C61.448 67.8847 61.4085 67.8452 61.3295 67.7662C61.0531 67.4898 60.8162 67.2528 60.5397 66.9764C60.3818 66.8579 60.1448 66.621 59.8289 66.4235C59.4735 66.1866 58.9996 66.0681 58.4862 66.2261C57.8938 66.4235 57.4989 67.0554 57.4989 67.7267C57.4989 68.2401 57.6964 68.6745 57.8938 69.1089C58.1308 69.5828 58.3282 70.0567 58.5257 70.5306L55.4849 73.5714L53.6288 75.4275C53.2339 75.8224 52.9969 76.3752 52.9969 76.9676C52.9969 77.56 53.2339 78.0733 53.6288 78.5078L60.1448 85.0238C60.5792 85.4582 61.1321 85.6556 61.685 85.6556C62.2378 85.6556 62.7907 85.4582 63.2251 85.0238L63.8175 84.4314C64.0939 86.09 64.2519 87.7881 64.2519 89.4468C64.2519 89.7627 64.5283 90.0391 64.8442 90.0391C65.1602 90.0391 65.4366 89.7627 65.4366 89.4468C65.4366 87.4327 65.2392 85.3792 64.8047 83.4046L79.2979 68.9114C79.8508 68.477 80.0483 67.9242 80.0483 67.3318ZM78.5871 68.0426L64.6073 82.0224L64.1334 82.4963L63.62 83.0097L62.4748 84.155C62.0799 84.5499 61.4875 84.5499 61.0926 84.155L54.5766 77.639C54.3791 77.4415 54.3001 77.2045 54.3001 76.9676C54.3001 76.7307 54.4186 76.4542 54.5766 76.2963L56.3142 74.5587L59.197 71.6758L59.6314 71.2414L60.0658 70.807L61.4085 69.4643C62.7117 70.7675 64.1334 71.9917 65.95 72.3472C66.1474 72.3866 66.3054 72.4261 66.5029 72.4261C66.5818 72.4261 66.6213 72.4261 66.7003 72.4261C66.8188 72.4261 66.8978 72.4261 67.0162 72.4261H67.0557C67.0952 72.4261 67.1347 72.4261 67.1742 72.4261C67.2927 72.4261 67.4111 72.4261 67.5296 72.3867C67.5691 72.3867 67.6481 72.3866 67.6876 72.3472C67.8061 72.3472 67.9245 72.3077 68.043 72.2682C68.0825 72.2682 68.122 72.2682 68.1615 72.2287C68.3194 72.1892 68.4379 72.1497 68.5959 72.0707C68.6354 72.0707 68.6354 72.0312 68.6749 72.0312C68.7933 71.9917 68.9118 71.9128 68.9908 71.8733C69.0303 71.8338 69.0698 71.8338 69.1093 71.7943C69.1882 71.7153 69.3067 71.6758 69.3857 71.5968C69.4252 71.5573 69.4647 71.5573 69.5042 71.5178C69.6227 71.3994 69.7411 71.3204 69.8596 71.2019C70.9653 70.0172 71.3208 68.0821 70.8074 66.305C70.373 64.8439 69.5437 63.5407 68.4774 62.3164L70.6889 60.1049C70.8864 59.9075 71.1233 59.8285 71.3603 59.8285C71.5972 59.8285 71.8736 59.947 72.0316 60.1049L78.5476 66.621C78.982 67.0554 78.982 67.6477 78.5871 68.0426ZM58.8021 67.7267C58.8021 67.5293 58.8811 67.3713 58.9996 67.3318C59.0785 67.2923 59.3155 67.3318 59.8289 67.8057C60.0658 68.0426 60.3423 68.3191 60.5792 68.5955L59.5129 69.6618C59.355 69.3458 59.197 68.9904 59.0391 68.635C58.9206 68.2796 58.8021 68.0031 58.8021 67.7267Z" fill="#101010"/>
        <path d="M63.857 79.4947C63.6595 79.4552 63.4226 79.4552 63.2251 79.5342C63.0672 79.5737 62.9487 79.6527 62.8302 79.7711L62.7118 79.8896L62.6723 79.9291L61.1321 81.4692C60.7372 81.8641 60.7372 82.5355 61.1321 82.9304C61.3296 83.1279 61.606 83.2463 61.843 83.2463C62.1194 83.2463 62.3563 83.1279 62.5538 82.9304L63.3831 82.1011L63.857 81.6272L64.2914 81.1928C64.3309 81.1533 64.3309 81.1533 64.3704 81.1138C64.6863 80.7189 64.6863 80.1265 64.2914 79.7316C64.2124 79.6132 64.0545 79.5342 63.857 79.4947Z" fill="#101010"/>
    </g>
    <defs>
        <clipPath id="clip0_3842_14599">
            <rect width="80.0483" height="90" fill="white"/>
        </clipPath>
    </defs>
</svg>