<svg xmlns="http://www.w3.org/2000/svg" width="16" height="16" viewBox="0 0 16 16" fill="none">
    <g clip-path="url(#clip0_3831_6932)">
        <path d="M3.54594 9.66941L2.989 11.7485L0.953406 11.7916C0.345063 10.6633 0 9.37229 0 8.00041C0 6.67382 0.322625 5.42282 0.8945 4.32129H0.894938L2.70719 4.65354L3.50106 6.45491C3.33491 6.93932 3.24434 7.45932 3.24434 8.00041C3.24441 8.58766 3.35078 9.15032 3.54594 9.66941Z" fill="#FBBB00"/>
        <path d="M15.8601 6.50586C15.952 6.9898 15.9999 7.48958 15.9999 8.00036C15.9999 8.57311 15.9397 9.1318 15.825 9.6707C15.4355 11.5045 14.4179 13.1059 13.0083 14.239L13.0078 14.2386L10.7252 14.1221L10.4022 12.1054C11.3375 11.5569 12.0685 10.6984 12.4536 9.6707H8.17578V6.50586H12.516H15.8601Z" fill="#518EF8"/>
        <path d="M13.0081 14.2382L13.0086 14.2386C11.6376 15.3406 9.89602 15.9999 8.00021 15.9999C4.95361 15.9999 2.30483 14.2971 0.953613 11.7911L3.54615 9.66895C4.22174 11.472 5.96108 12.7555 8.00021 12.7555C8.87668 12.7555 9.6978 12.5186 10.4024 12.105L13.0081 14.2382Z" fill="#28B446"/>
        <path d="M13.1064 1.84175L10.5148 3.9635C9.78553 3.50769 8.92353 3.24438 8.00003 3.24438C5.91475 3.24438 4.14288 4.58678 3.50113 6.4545L0.894969 4.32088H0.894531C2.22597 1.75384 4.90816 0 8.00003 0C9.94112 0 11.7209 0.691438 13.1064 1.84175Z" fill="#F14336"/>
    </g>
    <defs>
        <clipPath id="clip0_3831_6932">
            <rect width="16" height="16" fill="white"/>
        </clipPath>
    </defs>
</svg>