<svg xmlns="http://www.w3.org/2000/svg" width="32" height="32" viewBox="0 0 32 32" fill="none">
    <path d="M26.43 31.1499H5.57C4.35786 31.1447 3.19701 30.6601 2.34082 29.8021C1.48464 28.944 1.00263 27.7821 1 26.5699V11.0899C1.00501 10.2693 1.2304 9.46517 1.6526 8.7615C2.0748 8.05783 2.6783 7.48052 3.4 7.08994L13.81 1.39994C14.4805 1.03497 15.2316 0.84375 15.995 0.84375C16.7584 0.84375 17.5095 1.03497 18.18 1.39994L28.62 7.05994C29.3417 7.45052 29.9452 8.02783 30.3674 8.7315C30.7896 9.43517 31.015 10.2393 31.02 11.0599V26.5699C31.0174 27.7855 30.5326 28.9505 29.6721 29.8091C28.8116 30.6677 27.6456 31.1499 26.43 31.1499ZM16 2.83994C15.5706 2.8393 15.1478 2.94586 14.77 3.14994L4.33 8.81994C3.92506 9.0442 3.58792 9.37328 3.35391 9.77267C3.11991 10.1721 2.99766 10.6271 3 11.0899V26.5699C3 27.2542 3.27182 27.9104 3.75566 28.3943C4.23951 28.8781 4.89574 29.1499 5.58 29.1499H26.43C27.1125 29.1473 27.7662 28.8743 28.2479 28.3907C28.7296 27.9072 29 27.2525 29 26.5699V11.0899C29.0004 10.625 28.8751 10.1687 28.6375 9.7691C28.3999 9.36952 28.0587 9.04158 27.65 8.81994L17.23 3.15994C16.8531 2.95238 16.4303 2.84237 16 2.83994Z" fill="#58D65A"/>
    <path d="M16 26.7599C14.608 26.7602 13.2593 26.2765 12.1847 25.3917C11.1102 24.5069 10.3767 23.276 10.11 21.9099C10.0882 21.7665 10.0979 21.6202 10.1383 21.481C10.1787 21.3418 10.2489 21.213 10.344 21.1036C10.4391 20.9942 10.5569 20.9068 10.6892 20.8475C10.8214 20.7881 10.965 20.7582 11.11 20.7599C11.3482 20.7564 11.5798 20.8381 11.7632 20.9903C11.9465 21.1425 12.0695 21.3551 12.11 21.5899C12.2983 22.4888 12.7902 23.2955 13.5031 23.8746C14.2161 24.4536 15.1065 24.7696 16.025 24.7696C16.9434 24.7696 17.8339 24.4536 18.5468 23.8746C19.2597 23.2955 19.7516 22.4888 19.94 21.5899C19.9804 21.3551 20.1034 21.1425 20.2867 20.9903C20.4701 20.8381 20.7017 20.7564 20.94 20.7599C21.0849 20.7582 21.2285 20.7881 21.3607 20.8475C21.493 20.9068 21.6108 20.9942 21.7059 21.1036C21.801 21.213 21.8712 21.3418 21.9116 21.481C21.952 21.6202 21.9617 21.7665 21.94 21.9099C21.6716 23.2845 20.9308 24.5219 19.8459 25.4077C18.761 26.2935 17.4005 26.7718 16 26.7599Z" fill="#58D65A"/>
</svg>