<svg width="44" height="30" viewBox="0 0 44 30" fill="none" xmlns="http://www.w3.org/2000/svg">
    <path d="M41.1282 0H2.87183C2.11044 0.000862911 1.38048 0.301139 0.842099 0.834954C0.303716 1.36877 0.000870296 2.09253 0 2.84746V23.1525C0.000870296 23.9075 0.303716 24.6312 0.842099 25.165C1.38048 25.6989 2.11044 25.9991 2.87183 26H41.1282C41.8896 25.9991 42.6195 25.6989 43.1579 25.165C43.6963 24.6312 43.9991 23.9075 44 23.1525V2.84746C43.9991 2.09253 43.6963 1.36877 43.1579 0.834954C42.6195 0.301139 41.8896 0.000862911 41.1282 0ZM42.5641 23.1525C42.5637 23.53 42.4122 23.8919 42.143 24.1588C41.8738 24.4257 41.5089 24.5758 41.1282 24.5763H2.87183C2.49113 24.5758 2.12615 24.4257 1.85696 24.1588C1.58777 23.8919 1.43635 23.53 1.43591 23.1525V2.84746C1.43635 2.46999 1.58777 2.10811 1.85696 1.84121C2.12615 1.5743 2.49113 1.42416 2.87183 1.42373H16.3348L17.1999 2.31721C17.2669 2.38637 17.3474 2.4414 17.4364 2.479C17.5254 2.5166 17.6211 2.53599 17.7179 2.53602H26.2821C26.3789 2.53599 26.4746 2.5166 26.5636 2.479C26.6526 2.4414 26.7331 2.38637 26.8001 2.31721L27.6652 1.42373H41.1282C41.5089 1.42416 41.8738 1.5743 42.143 1.84121C42.4122 2.10811 42.5637 2.46999 42.5641 2.84746V23.1525Z" fill="#D8D8D8"/>
    <rect x="17" y="25" width="10" height="5" rx="1" fill="#D8D8D8"/>
</svg>