<svg width="32" height="44" viewBox="0 0 32 44" fill="none" xmlns="http://www.w3.org/2000/svg">
    <path d="M29.1282 0H2.87183C2.11044 0.000862911 1.38048 0.301139 0.842099 0.834954C0.303716 1.36877 0.000870296 2.09253 0 2.84746V41.1525C0.000870296 41.9075 0.303716 42.6312 0.842099 43.165C1.38048 43.6989 2.11044 43.9991 2.87183 44H29.1282C29.8896 43.9991 30.6195 43.6989 31.1579 43.165C31.6963 42.6312 31.9991 41.9075 32 41.1525V2.84746C31.9991 2.09253 31.6963 1.36877 31.1579 0.834954C30.6195 0.301139 29.8896 0.000862911 29.1282 0ZM30.5641 41.1525C30.5637 41.53 30.4122 41.8919 30.143 42.1588C29.8738 42.4257 29.5089 42.5758 29.1282 42.5763H2.87183C2.49113 42.5758 2.12615 42.4257 1.85696 42.1588C1.58777 41.8919 1.43635 41.53 1.43591 41.1525V2.84746C1.43635 2.46999 1.58777 2.10811 1.85696 1.84121C2.12615 1.5743 2.49113 1.42416 2.87183 1.42373H10.3348L11.1999 2.31721C11.2669 2.38637 11.3474 2.4414 11.4364 2.479C11.5254 2.5166 11.6211 2.53599 11.7179 2.53602H20.2821C20.3789 2.53599 20.4746 2.5166 20.5636 2.479C20.6526 2.4414 20.7331 2.38637 20.8001 2.31721L21.6652 1.42373H29.1282C29.5089 1.42416 29.8738 1.5743 30.143 1.84121C30.4122 2.10811 30.5637 2.46999 30.5641 2.84746V41.1525Z" fill="#D8D8D8"/>
</svg>