<svg width="24" height="44" viewBox="0 0 24 44" fill="none" xmlns="http://www.w3.org/2000/svg">
    <path d="M21.1282 0H2.87183C2.11044 0.000862911 1.38048 0.301139 0.842099 0.834954C0.303716 1.36877 0.000870296 2.09253 0 2.84746V41.1525C0.000870296 41.9075 0.303716 42.6312 0.842099 43.165C1.38048 43.6989 2.11044 43.9991 2.87183 44H21.1282C21.8896 43.9991 22.6195 43.6989 23.1579 43.165C23.6963 42.6312 23.9991 41.9075 24 41.1525V2.84746C23.9991 2.09253 23.6963 1.36877 23.1579 0.834954C22.6195 0.301139 21.8896 0.000862911 21.1282 0ZM22.5641 41.1525C22.5637 41.53 22.4122 41.8919 22.143 42.1588C21.8738 42.4257 21.5089 42.5758 21.1282 42.5763H2.87183C2.49113 42.5758 2.12615 42.4257 1.85696 42.1588C1.58777 41.8919 1.43635 41.53 1.43591 41.1525V2.84746C1.43635 2.46999 1.58777 2.10811 1.85696 1.84121C2.12615 1.5743 2.49113 1.42416 2.87183 1.42373H6.33481L7.1999 2.31721C7.26693 2.38637 7.34736 2.4414 7.43636 2.479C7.52537 2.5166 7.62111 2.53599 7.71785 2.53602H16.2821C16.3789 2.53599 16.4746 2.5166 16.5636 2.479C16.6526 2.4414 16.7331 2.38637 16.8001 2.31721L17.6652 1.42373H21.1282C21.5089 1.42416 21.8738 1.5743 22.143 1.84121C22.4122 2.10811 22.5637 2.46999 22.5641 2.84746V41.1525Z" fill="#D8D8D8"/>
</svg>