<svg width="104" height="16" viewBox="0 0 104 16" fill="none" xmlns="http://www.w3.org/2000/svg">
<path d="M93.0005 15.3296H82.3804V1.23047H92.8277V4.0584H86.6283V6.64214H92.543V9.48045H86.6283V12.4913H93.0005V15.3296Z" fill="white"/>
<path d="M13.5265 13.9973C12.9437 14.3023 12.3476 14.5464 11.7378 14.7298C11.128 14.9127 10.5131 15.0435 9.89333 15.121C9.27351 15.1993 8.63122 15.2386 7.96769 15.2386C6.74096 15.2386 5.64203 15.0685 4.66964 14.7298C3.69725 14.3906 2.8539 13.8902 2.13917 13.229C1.42403 12.5677 0.889134 11.7948 0.533648 10.9098C0.177749 10.0248 0 9.05353 0 7.99562C0 6.78145 0.209797 5.71854 0.630228 4.80605C1.04982 3.89438 1.63758 3.13645 2.3931 2.53269C3.14861 1.92895 4.00903 1.48314 4.97476 1.1948C5.94008 0.906878 6.95784 0.762695 8.02846 0.762695C9.62733 0.762695 11.4397 1.11851 13.4657 1.83102V5.57437C12.7676 5.14021 12.0783 4.77939 11.3973 4.49106C10.7167 4.20272 9.91539 4.05852 8.99379 4.05852C8.17416 4.05852 7.40865 4.22147 6.69726 4.54689C5.98586 4.87272 5.41308 5.33687 4.97976 5.94062C4.54601 6.54395 4.32914 7.24938 4.32914 8.05646C4.32914 8.76853 4.51896 9.42148 4.89817 10.0144C5.2778 10.6081 5.80437 11.0794 6.47872 11.4286C7.15265 11.7781 7.91317 11.9527 8.76026 11.9527C9.44418 11.9527 10.0915 11.8698 10.7013 11.7031C11.3111 11.5373 11.8244 11.3523 12.2411 11.149C12.6577 10.9456 13.0861 10.7048 13.5265 10.4269V13.9973Z" fill="white"/>
<path fill-rule="evenodd" clip-rule="evenodd" d="M41.5331 2.34961C44.6505 2.34961 47.1777 4.87878 47.1777 7.9996C47.1777 11.12 44.6505 13.6496 41.5331 13.6496C38.4157 13.6496 35.8882 11.12 35.8882 7.9996C35.8882 4.87878 38.4157 2.34961 41.5331 2.34961Z" fill="white"/>
<path d="M49.2984 14.75C53.0173 14.75 56.0418 11.7216 56.0418 7.99998C56.0418 4.2779 53.0173 1.25002 49.2984 1.25002H41.0064C37.2879 1.25002 34.2629 4.2779 34.2629 7.99998C34.2629 11.7216 37.2879 14.75 41.0064 14.75H49.2984ZM49.2984 16H41.0064C36.5928 16 33.0142 12.4179 33.0142 7.99998C33.0142 3.58124 36.5928 0 41.0064 0H49.2984C53.7124 0 57.2906 3.58124 57.2906 7.99998C57.2906 12.4179 53.7124 16 49.2984 16Z" fill="white"/>
<path d="M79.5226 14.2717C78.9402 14.5768 78.3437 14.8209 77.7339 15.0042C77.1241 15.1871 76.5097 15.318 75.8894 15.3959C75.2696 15.4739 74.6277 15.513 73.9638 15.513C72.7375 15.513 71.6381 15.343 70.6662 15.0042C69.6938 14.665 68.85 14.165 68.1357 13.5038C67.4205 12.8425 66.8857 12.0696 66.5297 11.1846C66.1743 10.2996 65.9961 9.32794 65.9961 8.27003C65.9961 7.05628 66.2063 5.99296 66.6263 5.08046C67.0459 4.16879 67.6337 3.41127 68.3896 2.80711C69.1447 2.20377 70.0056 1.75795 70.9709 1.46961C71.9362 1.18128 72.9544 1.03711 74.0246 1.03711C75.6238 1.03711 77.4358 1.39335 79.4618 2.10543V5.84878C78.7641 5.41504 78.0744 5.0538 77.3938 4.76547C76.7128 4.47713 75.9115 4.33294 74.9899 4.33294C74.1707 4.33294 73.4047 4.49588 72.6934 4.8213C71.982 5.14713 71.4096 5.6117 70.9759 6.21503C70.5421 6.81879 70.3252 7.5242 70.3252 8.33087C70.3252 9.04295 70.5151 9.69587 70.8943 10.2892C71.2743 10.8825 71.8005 11.3538 72.4748 11.7034C73.1487 12.0525 73.9097 12.2271 74.7564 12.2271C75.4407 12.2271 76.0876 12.1442 76.6974 11.978C77.3072 11.8117 77.8205 11.6267 78.2372 11.4234C78.6538 11.22 79.0822 10.9796 79.5226 10.7013V14.2717Z" fill="white"/>
<path d="M63.3559 15.3296H59.1079V1.23047H63.3559V15.3296Z" fill="white"/>
<path d="M31.2628 15.0543H27.0249V9.55095H20.6327V15.0543H16.3848V0.955078H20.6327V6.133H27.0249V0.955078H31.2628V15.0543Z" fill="white"/>
<g clip-path="url(#clip0_3833_8076)">
<path d="M100 0.661133C97.7944 0.661133 96 2.45551 96 4.66115C96 6.86679 97.7944 8.66113 100 8.66113C102.206 8.66113 104 6.86675 104 4.66115C104 2.45555 102.206 0.661133 100 0.661133ZM100 7.56026C98.4015 7.56026 97.1009 6.25974 97.1009 4.66115C97.1009 3.06256 98.4015 1.76205 100 1.76205C101.599 1.76205 102.899 3.06256 102.899 4.66115C102.899 6.25974 101.599 7.56026 100 7.56026ZM101.454 4.14089C101.454 3.33344 100.887 2.8318 99.9746 2.8318H98.6231V6.4905H99.398V5.47114H99.9746C100.009 5.47114 100.045 5.47027 100.082 5.46845L100.827 6.49053H101.787L100.878 5.24503C101.25 5.01337 101.454 4.62208 101.454 4.14089ZM99.9746 4.6963H99.398V3.60668H99.9746C100.679 3.60668 100.679 4.00872 100.679 4.14089C100.679 4.27822 100.679 4.6963 99.9746 4.6963Z" fill="white"/>
</g>
<defs>
<clipPath id="clip0_3833_8076">
<rect width="8" height="8" fill="white" transform="translate(96 0.661133)"/>
</clipPath>
</defs>
</svg>
