<svg width="44" height="29" viewBox="0 0 44 29" fill="none" xmlns="http://www.w3.org/2000/svg">
    <path d="M39.637 0H5.38061C4.61923 0.000862911 3.88927 0.301139 3.35089 0.834954C2.81251 1.36877 2.50966 2.09253 2.50879 2.84746V23.1525C2.50966 23.9075 2.81251 24.6312 3.35089 25.165C3.88927 25.6989 4.61923 25.9991 5.38061 26H39.637C40.3983 25.9991 41.1283 25.6989 41.6667 25.165C42.2051 24.6312 42.5079 23.9075 42.5088 23.1525V2.84746C42.5079 2.09253 42.2051 1.36877 41.6667 0.834954C41.1283 0.301139 40.3983 0.000862911 39.637 0ZM41.0729 23.1525C41.0724 23.53 40.921 23.8919 40.6518 24.1588C40.3826 24.4257 40.0177 24.5758 39.637 24.5763H5.38061C4.99992 24.5758 4.63494 24.4257 4.36575 24.1588C4.09656 23.8919 3.94514 23.53 3.9447 23.1525V2.84746C3.94514 2.46999 4.09656 2.10811 4.36575 1.84121C4.63494 1.5743 4.99992 1.42416 5.38061 1.42373H16.8436L17.7087 2.31721C17.7757 2.38637 17.8561 2.4414 17.9452 2.479C18.0342 2.5166 18.1299 2.53599 18.2266 2.53602H26.7909C26.8877 2.53599 26.9834 2.5166 27.0724 2.479C27.1614 2.4414 27.2419 2.38637 27.3089 2.31721L28.174 1.42373H39.637C40.0177 1.42416 40.3826 1.5743 40.6518 1.84121C40.921 2.10811 41.0724 2.46999 41.0729 2.84746V23.1525Z" fill="#D8D8D8"/>
    <rect y="27" width="44" height="1.5" rx="0.75" fill="#D8D8D8"/>
</svg>