<svg width="32" height="32" viewBox="0 0 32 32" fill="none" xmlns="http://www.w3.org/2000/svg">
    <g clip-path="url(#clip0_3852_14659)">
        <path d="M16.4489 32C16.3 32.0007 16.1524 31.9716 16.0149 31.9146C15.8774 31.8575 15.7526 31.7735 15.648 31.6675L6.944 22.9636C5.06175 21.0833 3.77949 18.6869 3.25944 16.0777C2.73939 13.4685 3.00491 10.7637 4.02241 8.30542C5.03992 5.84715 6.76368 3.7459 8.97564 2.26751C11.1876 0.789113 13.7883 0 16.4489 0C19.1094 0 21.7101 0.789113 23.9221 2.26751C26.1341 3.7459 27.8578 5.84715 28.8753 8.30542C29.8928 10.7637 30.1584 13.4685 29.6383 16.0777C29.1183 18.6869 27.836 21.0833 25.9537 22.9636L17.2498 31.6675C17.1451 31.7735 17.0204 31.8575 16.8829 31.9146C16.7453 31.9716 16.5978 32.0007 16.4489 32ZM16.4489 2.27648C14.2384 2.27803 12.0779 2.93469 10.2405 4.16351C8.403 5.39234 6.97096 7.13818 6.12525 9.1805C5.27954 11.2228 5.05811 13.47 5.48893 15.6381C5.91975 17.8062 6.98349 19.798 8.54577 21.3618L16.4489 29.2649L24.352 21.3618C25.9143 19.798 26.978 17.8062 27.4088 15.6381C27.8396 13.47 27.6182 11.2228 26.7725 9.1805C25.9268 7.13818 24.4947 5.39234 22.6573 4.16351C20.8198 2.93469 18.6594 2.27803 16.4489 2.27648Z" fill="#58D65A"/>
        <path fill-rule="evenodd" clip-rule="evenodd" d="M15.25 16.25C15.25 15.8358 15.5858 15.5 16 15.5H22.75C23.1642 15.5 23.5 15.8358 23.5 16.25C23.5 16.6642 23.1642 17 22.75 17H16C15.5858 17 15.25 16.6642 15.25 16.25Z" fill="#58D65A"/>
        <path fill-rule="evenodd" clip-rule="evenodd" d="M19.5303 12.7197C19.8232 13.0125 19.8232 13.4874 19.5303 13.7803L17.0606 16.25L19.5303 18.7197C19.8232 19.0125 19.8232 19.4874 19.5303 19.7803C19.2374 20.0732 18.7625 20.0732 18.4697 19.7803L15.4697 16.7803C15.1768 16.4874 15.1768 16.0125 15.4697 15.7197L18.4697 12.7197C18.7625 12.4268 19.2374 12.4268 19.5303 12.7197Z" fill="#58D65A"/>
        <path fill-rule="evenodd" clip-rule="evenodd" d="M16.75 11.75C16.75 11.3358 16.4142 11 16 11H9.25C8.83578 11 8.5 11.3358 8.5 11.75C8.5 12.1642 8.83579 12.5 9.25 12.5H16C16.4142 12.5 16.75 12.1642 16.75 11.75Z" fill="#58D65A"/>
        <path fill-rule="evenodd" clip-rule="evenodd" d="M12.4697 8.21967C12.1768 8.51257 12.1768 8.98743 12.4697 9.28033L14.9394 11.75L12.4697 14.2197C12.1768 14.5125 12.1768 14.9875 12.4697 15.2803C12.7626 15.5732 13.2374 15.5732 13.5303 15.2803L16.5303 12.2803C16.8232 11.9874 16.8232 11.5126 16.5303 11.2197L13.5303 8.21967C13.2374 7.92678 12.7626 7.92678 12.4697 8.21967Z" fill="#58D65A"/>
    </g>
    <defs>
        <clipPath id="clip0_3852_14659">
            <rect width="32" height="32" fill="white"/>
        </clipPath>
    </defs>
</svg>