<svg width="24" height="24" viewBox="0 0 24 24" fill="none" xmlns="http://www.w3.org/2000/svg">
<path d="M18.1398 9.4777L18.1112 9.43688L18.1055 9.42493L15.5037 5.35938L12.902 9.42497L12.8965 9.43638L12.8676 9.47774C12.4501 10.0729 12.2295 10.78 12.2295 11.5226C12.2295 13.4231 13.6983 14.9691 15.5037 14.9691C17.3091 14.9691 18.7779 13.423 18.7779 11.5226C18.778 10.7799 18.5573 10.0728 18.1398 9.4777Z" fill="#101010"/>
<path d="M15.5041 16.1437C13.0835 16.1437 11.1143 14.0708 11.1143 11.5228C11.1143 10.5324 11.4074 9.58857 11.9621 8.79255L13.6725 6.11993L11.0358 2L5.5423 10.5841C4.67858 11.8214 4.22217 13.2883 4.22217 14.8277C4.22217 18.7825 7.27876 22 11.0358 22C14.5957 22 17.5262 19.1113 17.8241 15.4438C17.1505 15.8871 16.3553 16.1437 15.5041 16.1437Z" fill="#101010"/>
</svg>
