<svg width="24" height="24" viewBox="0 0 24 24" fill="none" xmlns="http://www.w3.org/2000/svg">
<g clip-path="url(#clip0_3845_8324)">
<path fill-rule="evenodd" clip-rule="evenodd" d="M19.2003 14.8792C19.0498 14.8792 18.8979 14.8324 18.7683 14.7352L16.4578 12.8805L14.1603 15.1773V17.0392C14.1603 17.4367 13.8377 17.7592 13.4403 17.7592C13.0429 17.7592 12.7203 17.4367 12.7203 17.0392V15.5992H11.2803C10.8829 15.5992 10.5603 15.2767 10.5603 14.8792C10.5603 14.4818 10.8829 14.1592 11.2803 14.1592H13.1422L15.3022 11.9992H13.4403C13.2135 11.9992 13.0004 11.8927 12.8643 11.7112L12.5533 11.2958L11.6799 11.8783C11.3487 12.0986 10.9016 12.0093 10.6813 11.6788C10.4609 11.3476 10.5502 10.9005 10.8807 10.6802L11.6878 10.1423L10.7043 8.83122C10.466 8.51298 10.5301 8.06154 10.8483 7.82322C11.1665 7.5849 11.618 7.64898 11.8563 7.96722L13.8003 10.5592H15.6003C15.7558 10.5592 15.9077 10.6096 16.0323 10.7032L19.2003 13.2376V3.35922C19.2003 2.1669 18.2326 1.19922 17.0403 1.19922H6.96029C5.76797 1.19922 4.80029 2.1669 4.80029 3.35922V20.6392C4.80029 21.8315 5.76797 22.7992 6.96029 22.7992H17.0403C18.2326 22.7992 19.2003 21.8315 19.2003 20.6392V14.8792Z" fill="#101010"/>
</g>
<defs>
<clipPath id="clip0_3845_8324">
<rect width="21.6" height="21.6" fill="white" transform="translate(1.2002 1.19922)"/>
</clipPath>
</defs>
</svg>
