<svg width="24" height="24" viewBox="0 0 24 24" fill="none" xmlns="http://www.w3.org/2000/svg">
<g clip-path="url(#clip0_4029_130)">
<path d="M13.187 10.1992H10.8134C10.4747 10.1992 10.2002 10.4738 10.2002 10.8124V13.186C10.2002 13.5247 10.4747 13.7992 10.8134 13.7992H13.187C13.5257 13.7992 13.8002 13.5247 13.8002 13.186V10.8124C13.8002 10.4738 13.5257 10.1992 13.187 10.1992Z" fill="#101010"/>
<path d="M20.1 12.9C20.3387 12.9 20.5676 12.8052 20.7364 12.6364C20.9052 12.4676 21 12.2387 21 12C21 11.7613 20.9052 11.5324 20.7364 11.3636C20.5676 11.1948 20.3387 11.1 20.1 11.1H18V9.6H20.1C20.3387 9.6 20.5676 9.50518 20.7364 9.3364C20.9052 9.16761 21 8.93869 21 8.7C21 8.46131 20.9052 8.23239 20.7364 8.0636C20.5676 7.89482 20.3387 7.8 20.1 7.8H18V7.17C18.0003 7.01626 17.9703 6.86398 17.9116 6.72189C17.8529 6.57979 17.7667 6.45069 17.658 6.34198C17.5493 6.23327 17.4202 6.1471 17.2781 6.08842C17.136 6.02973 16.9837 5.99968 16.83 6H16.2V3.9C16.2 3.66131 16.1052 3.43239 15.9364 3.2636C15.7676 3.09482 15.5387 3 15.3 3C15.0613 3 14.8324 3.09482 14.6636 3.2636C14.4948 3.43239 14.4 3.66131 14.4 3.9V6H12.9V3.9C12.9 3.66131 12.8052 3.43239 12.6364 3.2636C12.4676 3.09482 12.2387 3 12 3C11.7613 3 11.5324 3.09482 11.3636 3.2636C11.1948 3.43239 11.1 3.66131 11.1 3.9V6H9.6V3.9C9.6 3.66131 9.50518 3.43239 9.3364 3.2636C9.16761 3.09482 8.93869 3 8.7 3C8.46131 3 8.23239 3.09482 8.0636 3.2636C7.89482 3.43239 7.8 3.66131 7.8 3.9V6H7.17C7.01626 5.99968 6.86398 6.02973 6.72189 6.08842C6.57979 6.1471 6.45069 6.23327 6.34198 6.34198C6.23327 6.45069 6.1471 6.57979 6.08842 6.72189C6.02973 6.86398 5.99968 7.01626 6 7.17V7.8H3.9C3.66131 7.8 3.43239 7.89482 3.2636 8.0636C3.09482 8.23239 3 8.46131 3 8.7C3 8.93869 3.09482 9.16761 3.2636 9.3364C3.43239 9.50518 3.66131 9.6 3.9 9.6H6V11.1H3.9C3.66131 11.1 3.43239 11.1948 3.2636 11.3636C3.09482 11.5324 3 11.7613 3 12C3 12.2387 3.09482 12.4676 3.2636 12.6364C3.43239 12.8052 3.66131 12.9 3.9 12.9H6V14.4H3.9C3.66131 14.4 3.43239 14.4948 3.2636 14.6636C3.09482 14.8324 3 15.0613 3 15.3C3 15.5387 3.09482 15.7676 3.2636 15.9364C3.43239 16.1052 3.66131 16.2 3.9 16.2H6V16.83C5.99968 16.9837 6.02973 17.136 6.08842 17.2781C6.1471 17.4202 6.23327 17.5493 6.34198 17.658C6.45069 17.7667 6.57979 17.8529 6.72189 17.9116C6.86398 17.9703 7.01626 18.0003 7.17 18H7.8V20.1C7.8 20.3387 7.89482 20.5676 8.0636 20.7364C8.23239 20.9052 8.46131 21 8.7 21C8.93869 21 9.16761 20.9052 9.3364 20.7364C9.50518 20.5676 9.6 20.3387 9.6 20.1V18H11.1V20.1C11.1 20.3387 11.1948 20.5676 11.3636 20.7364C11.5324 20.9052 11.7613 21 12 21C12.2387 21 12.4676 20.9052 12.6364 20.7364C12.8052 20.5676 12.9 20.3387 12.9 20.1V18H14.4V20.1C14.4 20.3387 14.4948 20.5676 14.6636 20.7364C14.8324 20.9052 15.0613 21 15.3 21C15.5387 21 15.7676 20.9052 15.9364 20.7364C16.1052 20.5676 16.2 20.3387 16.2 20.1V18H16.83C16.9837 18.0003 17.136 17.9703 17.2781 17.9116C17.4202 17.8529 17.5493 17.7667 17.658 17.658C17.7667 17.5493 17.8529 17.4202 17.9116 17.2781C17.9703 17.136 18.0003 16.9837 18 16.83V16.2H20.1C20.3387 16.2 20.5676 16.1052 20.7364 15.9364C20.9052 15.7676 21 15.5387 21 15.3C21 15.0613 20.9052 14.8324 20.7364 14.6636C20.5676 14.4948 20.3387 14.4 20.1 14.4H18V12.9H20.1ZM15.6 14.832C15.6003 14.9329 15.5807 15.033 15.5422 15.1263C15.5037 15.2196 15.4471 15.3044 15.3758 15.3758C15.3044 15.4471 15.2196 15.5037 15.1263 15.5422C15.033 15.5807 14.9329 15.6003 14.832 15.6H9.168C9.06706 15.6003 8.96705 15.5807 8.87372 15.5422C8.7804 15.5037 8.69561 15.4471 8.62424 15.3758C8.55286 15.3044 8.4963 15.2196 8.45782 15.1263C8.41933 15.033 8.39968 14.9329 8.4 14.832V9.168C8.39968 9.06706 8.41933 8.96705 8.45782 8.87372C8.4963 8.7804 8.55286 8.69561 8.62424 8.62424C8.69561 8.55286 8.7804 8.4963 8.87372 8.45782C8.96705 8.41933 9.06706 8.39968 9.168 8.4H14.832C14.9329 8.39968 15.033 8.41933 15.1263 8.45782C15.2196 8.4963 15.3044 8.55286 15.3758 8.62424C15.4471 8.69561 15.5037 8.7804 15.5422 8.87372C15.5807 8.96705 15.6003 9.06706 15.6 9.168V14.832Z" fill="#101010"/>
</g>
<defs>
<clipPath id="clip0_4029_130">
<rect width="18" height="18" fill="white" transform="translate(3 3)"/>
</clipPath>
</defs>
</svg>
