<svg width="24" height="24" viewBox="0 0 24 24" fill="none" xmlns="http://www.w3.org/2000/svg">
<path fill-rule="evenodd" clip-rule="evenodd" d="M4.7998 3.19922C4.7998 2.09465 5.69524 1.19922 6.7998 1.19922H17.1998C18.3044 1.19922 19.1998 2.09465 19.1998 3.19922V20.7992C19.1998 21.9038 18.3044 22.7992 17.1998 22.7992H6.79981C5.69524 22.7992 4.7998 21.9038 4.7998 20.7992V3.19922ZM15.6259 8.49771C15.5605 8.43301 15.4829 8.40056 15.3932 8.40056C15.3035 8.40056 15.226 8.43301 15.1604 8.49771L14.4881 9.15746C14.1191 8.8131 13.6966 8.54628 13.2208 8.35712C12.745 8.16794 12.2552 8.07337 11.7517 8.07337C10.8034 8.07337 9.97588 8.35714 9.26895 8.9248C8.56201 9.49238 8.09651 10.2329 7.87236 11.1466V11.1824C7.87236 11.2267 7.88872 11.2651 7.9215 11.2975C7.95427 11.3299 7.99304 11.346 8.03786 11.346H9.06716C9.14306 11.346 9.19474 11.3068 9.22235 11.2284C9.36716 10.8876 9.45851 10.6881 9.49648 10.6302C9.73784 10.2415 10.0585 9.93638 10.4586 9.71479C10.8586 9.49321 11.2896 9.38237 11.7517 9.38237C12.4448 9.38237 13.0466 9.61592 13.5569 10.083L12.843 10.7886C12.7777 10.8534 12.7448 10.9301 12.7448 11.0188C12.7448 11.1074 12.7777 11.1841 12.843 11.2489C12.9086 11.3137 12.9862 11.346 13.0759 11.346H15.3932C15.4828 11.346 15.5605 11.3137 15.6259 11.2489C15.6914 11.1841 15.7241 11.1074 15.7241 11.0188V8.72783C15.7241 8.63919 15.6916 8.56251 15.6259 8.49771ZM14.4362 12.6552H15.4293C15.4742 12.6552 15.513 12.6715 15.5458 12.7037C15.5785 12.7362 15.595 12.7744 15.595 12.8188C15.595 12.8358 15.5933 12.8477 15.5899 12.8545C15.3691 13.7682 14.907 14.5089 14.2036 15.0764C13.5001 15.644 12.676 15.9278 11.7311 15.9278C11.2277 15.9278 10.7406 15.8342 10.2699 15.6466C9.79922 15.4591 9.37936 15.1914 9.01037 14.8438L8.34314 15.5035C8.27759 15.5682 8.20003 15.6007 8.11039 15.6007C8.02072 15.6007 7.94313 15.5681 7.87756 15.5035C7.81203 15.4387 7.7793 15.3619 7.7793 15.2734V12.9824C7.7793 12.8938 7.81203 12.817 7.87755 12.7523C7.94306 12.6874 8.02065 12.655 8.11037 12.655H10.4277C10.5173 12.655 10.5949 12.6874 10.6604 12.7523C10.7259 12.817 10.7587 12.8938 10.7587 12.9824C10.7587 13.071 10.7259 13.1478 10.6604 13.2125L9.95177 13.913C10.1966 14.1381 10.4742 14.312 10.7845 14.4348C11.0948 14.5575 11.4173 14.6188 11.7517 14.6188C12.2138 14.6188 12.6448 14.5081 13.0449 14.2864C13.4448 14.0649 13.7655 13.7596 14.007 13.3711C14.0448 13.3131 14.1363 13.1138 14.281 12.7728C14.3086 12.6944 14.3603 12.6552 14.4362 12.6552Z" fill="#101010"/>
</svg>
