<svg width="24" height="24" viewBox="0 0 24 24" fill="none" xmlns="http://www.w3.org/2000/svg">
<g clip-path="url(#clip0_4029_141)">
<path d="M8.27344 8.27344H15.7266V15.7266H8.27344V8.27344Z" fill="#101010"/>
<path d="M20.4727 10.418C20.7639 10.418 21 10.1819 21 9.89062C21 9.59935 20.7639 9.36328 20.4727 9.36328H18.8906V8.30859H20.4727C20.7639 8.30859 21 8.07253 21 7.78125C21 7.48997 20.7639 7.25391 20.4727 7.25391H18.8906V6.33984C18.8906 5.6613 18.3387 5.10938 17.6602 5.10938H16.7461V3.52734C16.7461 3.23607 16.51 3 16.2188 3C15.9275 3 15.6914 3.23607 15.6914 3.52734V5.10938H14.6367V3.52734C14.6367 3.23607 14.4007 3 14.1094 3C13.8181 3 13.582 3.23607 13.582 3.52734V5.10938H12.5273V3.52734C12.5273 3.23607 12.2913 3 12 3C11.7087 3 11.4727 3.23607 11.4727 3.52734V5.10938H10.418V3.52734C10.418 3.23607 10.1819 3 9.89062 3C9.59935 3 9.36328 3.23607 9.36328 3.52734V5.10938H8.30859V3.52734C8.30859 3.23607 8.07253 3 7.78125 3C7.48997 3 7.25391 3.23607 7.25391 3.52734V5.10938H6.33984C5.6613 5.10938 5.10938 5.6613 5.10938 6.33984V7.25391H3.52734C3.23607 7.25391 3 7.48997 3 7.78125C3 8.07253 3.23607 8.30859 3.52734 8.30859H5.10938V9.36328H3.52734C3.23607 9.36328 3 9.59935 3 9.89062C3 10.1819 3.23607 10.418 3.52734 10.418H5.10938V11.4727H3.52734C3.23607 11.4727 3 11.7087 3 12C3 12.2913 3.23607 12.5273 3.52734 12.5273H5.10938V13.582H3.52734C3.23607 13.582 3 13.8181 3 14.1094C3 14.4007 3.23607 14.6367 3.52734 14.6367H5.10938V15.6914H3.52734C3.23607 15.6914 3 15.9275 3 16.2188C3 16.51 3.23607 16.7461 3.52734 16.7461H5.10938V17.6602C5.10938 18.3387 5.6613 18.8906 6.33984 18.8906H7.25391V20.4727C7.25391 20.7639 7.48997 21 7.78125 21C8.07253 21 8.30859 20.7639 8.30859 20.4727V18.8906H9.36328V20.4727C9.36328 20.7639 9.59935 21 9.89062 21C10.1819 21 10.418 20.7639 10.418 20.4727V18.8906H11.4727V20.4727C11.4727 20.7639 11.7087 21 12 21C12.2913 21 12.5273 20.7639 12.5273 20.4727V18.8906H13.582V20.4727C13.582 20.7639 13.8181 21 14.1094 21C14.4007 21 14.6367 20.7639 14.6367 20.4727V18.8906H15.6914V20.4727C15.6914 20.7639 15.9275 21 16.2188 21C16.51 21 16.7461 20.7639 16.7461 20.4727V18.8906H17.6602C18.3387 18.8906 18.8906 18.3387 18.8906 17.6602V16.7461H20.4727C20.7639 16.7461 21 16.51 21 16.2188C21 15.9275 20.7639 15.6914 20.4727 15.6914H18.8906V14.6367H20.4727C20.7639 14.6367 21 14.4007 21 14.1094C21 13.8181 20.7639 13.582 20.4727 13.582H18.8906V12.5273H20.4727C20.7639 12.5273 21 12.2913 21 12C21 11.7087 20.7639 11.4727 20.4727 11.4727H18.8906V10.418H20.4727ZM16.7812 16.2539C16.7812 16.5452 16.5452 16.7812 16.2539 16.7812H7.74609C7.45482 16.7812 7.21875 16.5452 7.21875 16.2539V7.74609C7.21875 7.45482 7.45482 7.21875 7.74609 7.21875H16.2539C16.5452 7.21875 16.7812 7.45482 16.7812 7.74609V16.2539Z" fill="#101010"/>
</g>
<defs>
<clipPath id="clip0_4029_141">
<rect width="18" height="18" fill="white" transform="translate(3 3)"/>
</clipPath>
</defs>
</svg>
