<svg width="48" height="48" viewBox="0 0 48 48" fill="none" xmlns="http://www.w3.org/2000/svg">
<circle cx="24" cy="24" r="24" fill="url(#paint0_linear_2374_3015)"/>
<path d="M24 13C20.8174 13.0001 17.7652 14.0531 15.5147 15.9276C13.2643 17.802 12 20.3443 12 22.9952C12.0029 24.7195 12.5413 26.4138 13.5628 27.9135C14.5843 29.4132 16.0543 30.6673 17.8298 31.5539C17.3569 32.6126 16.6477 33.6053 15.7315 34.491C17.5082 34.1791 19.176 33.5239 20.6052 32.5764C21.7071 32.8491 22.8504 32.9885 24 32.9904C27.1826 32.9904 30.2348 31.9373 32.4853 30.0629C34.7357 28.1884 36 25.6461 36 22.9952C36 20.3443 34.7357 17.802 32.4853 15.9276C30.2348 14.0531 27.1826 13.0001 24 13Z" fill="white"/>
<defs>
<linearGradient id="paint0_linear_2374_3015" x1="24.381" y1="44.8138" x2="24.381" y2="5.95705" gradientUnits="userSpaceOnUse">
<stop stop-color="#0CBD2A"/>
<stop offset="1" stop-color="#5BF675"/>
</linearGradient>
</defs>
</svg>
