<svg width="48" height="48" viewBox="0 0 48 48" fill="none" xmlns="http://www.w3.org/2000/svg">
<circle cx="24" cy="24" r="24" fill="#199BDF"/>
<path fill-rule="evenodd" clip-rule="evenodd" d="M30.3537 16.1135C30.5995 16.012 30.8679 15.9777 31.1313 16.0141C31.3947 16.0505 31.6438 16.1562 31.8529 16.3205C32.062 16.4848 32.2236 16.7017 32.3213 16.949C32.419 17.1963 32.4492 17.4652 32.4087 17.728C31.826 21.5175 30.7577 28.4615 30.1906 32.1475C30.1514 32.4026 30.047 32.6432 29.8876 32.8461C29.7282 33.0491 29.5191 33.2074 29.2805 33.3059C29.042 33.4044 28.7821 33.4397 28.5259 33.4083C28.2698 33.377 28.0261 33.2801 27.8183 33.127C25.8122 31.649 22.8045 29.433 21.2774 28.3075C21.1596 28.2207 21.0623 28.109 20.9923 27.9804C20.9223 27.8519 20.8815 27.7095 20.8726 27.5634C20.8636 27.4172 20.8869 27.271 20.9407 27.1348C20.9946 26.9987 21.0776 26.876 21.184 26.7755C22.5833 25.454 25.3702 22.822 27.2876 21.011C27.3328 20.9681 27.3603 20.9099 27.3648 20.8477C27.3692 20.7856 27.3503 20.724 27.3118 20.6751C27.2732 20.6261 27.2177 20.5934 27.1563 20.5832C27.0948 20.573 27.0317 20.5861 26.9794 20.62C24.5209 22.2235 20.7556 24.679 18.9102 25.8825C18.5644 26.1081 18.1757 26.2598 17.7685 26.3282C17.3613 26.3966 16.9444 26.3802 16.5438 26.28C15.5276 26.026 14.0619 25.6595 12.7576 25.3335C12.5534 25.2825 12.3705 25.1683 12.2349 25.0073C12.0994 24.8463 12.0181 24.6466 12.0027 24.4366C11.9873 24.2267 12.0385 24.0173 12.149 23.8381C12.2596 23.659 12.4238 23.5193 12.6184 23.439C17.159 21.5635 26.0449 17.8935 30.3537 16.1135Z" fill="white"/>
</svg>
