<svg width="48" height="48" viewBox="0 0 48 48" fill="none" xmlns="http://www.w3.org/2000/svg">
<circle cx="24" cy="23.9998" r="24" fill="#1BD741"/>
<path d="M12 35.9998L13.6808 30.0366C12.6 28.2023 12.0309 26.1154 12.0309 23.9715C12.0309 17.3703 17.4071 11.9998 24.0155 11.9998C30.6238 11.9998 36 17.3703 36 23.9715C36 30.5726 30.6238 35.9431 24.0155 35.9431C21.9564 35.9431 19.9401 35.4166 18.1564 34.4168L12 35.9998ZM18.4711 32.2388L18.838 32.4626C20.3931 33.411 22.1835 33.9123 24.0155 33.9123C29.5028 33.9123 33.967 29.4528 33.967 23.9715C33.967 18.4901 29.5028 14.0306 24.0155 14.0306C18.5281 14.0306 14.0639 18.4901 14.0639 23.9715C14.0639 25.8814 14.6073 27.7361 15.6352 29.335L15.8823 29.7193L14.9143 33.1534L18.4711 32.2388Z" fill="white"/>
<path d="M20.6487 18.3995L19.8711 18.3572C19.6268 18.3439 19.3872 18.4254 19.2026 18.5856C18.8256 18.9126 18.2228 19.5449 18.0376 20.3688C17.7615 21.5973 18.1882 23.1015 19.2926 24.6058C20.3969 26.1101 22.455 28.517 26.0942 29.5449C27.267 29.8761 28.1895 29.6528 28.9013 29.198C29.465 28.8378 29.8536 28.2596 29.9937 27.606L30.1178 27.0267C30.1573 26.8426 30.0637 26.6558 29.8925 26.577L27.2643 25.3668C27.0937 25.2883 26.8913 25.338 26.7766 25.4865L25.7448 26.8226C25.6669 26.9235 25.5334 26.9636 25.413 26.9213C24.7064 26.6732 22.3396 25.683 21.0408 23.1841C20.9845 23.0757 20.9985 22.9442 21.0784 22.8518L22.0645 21.7123C22.1652 21.5959 22.1907 21.4323 22.1302 21.2909L20.9973 18.6433C20.9369 18.5023 20.8018 18.4079 20.6487 18.3995Z" fill="white"/>
</svg>
